<svg width="165" height="39" viewBox="0 0 165 39" fill="none" xmlns="http://www.w3.org/2000/svg">
<path fill-rule="evenodd" clip-rule="evenodd" d="M131.388 17.6021L127.821 26.2323L124.263 34.8431L124.255 34.8625L107.029 17.6021H131.388Z" fill="#834F58"/>
<path fill-rule="evenodd" clip-rule="evenodd" d="M107.029 17.6021L89.8024 34.8625L89.7951 34.8431L86.2347 26.2323L82.667 17.6021H107.029Z" fill="#73484E"/>
<path fill-rule="evenodd" clip-rule="evenodd" d="M33.7876 17.6021V17.5997L37.3529 8.97188L40.9206 0.339218L58.1398 17.5948L58.1471 17.6021H33.7876Z" fill="#B7686E"/>
<path fill-rule="evenodd" clip-rule="evenodd" d="M58.1471 17.6021L40.9206 34.8625L40.9133 34.8431L37.3529 26.2323L33.7876 17.6021H58.1471Z" fill="#73484E"/>
<path fill-rule="evenodd" clip-rule="evenodd" d="M81.6372 34.6654C80.8813 35.2926 80.0397 35.8081 79.1381 36.1963C78.5366 36.4565 77.8865 36.5843 77.2316 36.5711C75.6413 36.5759 74.0878 36.0926 72.7798 35.1862L72.5151 35.3688C71.4862 36.0986 70.2898 36.5557 69.0373 36.6976C68.8395 36.7167 68.6407 36.7224 68.4422 36.7147C67.0308 36.6683 65.6802 36.1284 64.6244 35.1887C63.4131 36.0382 61.9927 36.539 60.5175 36.6368C60.3323 36.6477 60.1466 36.6477 59.9613 36.6368C59.0971 36.5929 58.2523 36.3638 57.484 35.9649C56.7156 35.5661 56.0415 35.0068 55.5072 34.3247C55.2084 34.5437 54.9024 34.753 54.594 34.955C53.1366 35.9256 51.4548 36.5047 49.7099 36.6368C49.5788 36.6368 49.4452 36.649 49.3116 36.6368C48.0822 36.6402 46.8746 36.3124 45.815 35.6877C44.7553 35.063 43.8828 34.1644 43.2885 33.0859C41.4962 34.9891 39.2691 36.7852 36.5708 36.7098C35.6574 36.6924 34.7598 36.4681 33.9451 36.0538C33.1305 35.6395 32.4198 35.0459 31.8665 34.3174C31.1563 33.3619 30.7113 32.235 30.5769 31.0512C28.5178 32.6244 26.3391 34.0338 24.0608 35.2666C20.6097 37.1211 16.4639 38.9173 12.4979 39H12.2793C8.92535 38.9124 5.82394 37.7831 3.45842 35.3493C1.18276 33.0202 0.0558593 30.0728 0 26.8213C0 26.685 0 26.5487 0.0121433 26.41C0.395873 20.9291 3.08926 16.5653 7.85188 13.8297C11.5483 11.7074 15.6236 10.2959 19.9272 10.2959C21.7241 10.2845 23.5119 10.553 25.2266 11.0917C27.0289 11.6504 28.6723 12.6316 30.0207 13.9538C30.5271 14.4567 30.9723 15.018 31.3468 15.6259C32.213 14.5777 33.0558 13.5093 33.875 12.4205C34.0499 12.1893 34.2223 11.9581 34.3948 11.7245C33.4744 11.39 32.6802 10.7778 32.1215 9.97215C31.543 9.13521 31.2353 8.14029 31.2399 7.12218C31.2393 6.74738 31.2842 6.37389 31.3735 6.00994C31.8981 3.8463 33.6419 2.72432 35.4439 1.70456C37.3506 0.661732 39.4735 0.0784274 41.6443 0.000904672C41.7269 0.000904672 41.8119 0.000904672 41.8872 0.000904672C44.4108 -0.0330919 46.8536 0.892179 48.7239 2.59046C49.5814 3.36914 50.2821 4.30516 50.7883 5.34795C51.0311 5.00884 51.274 4.67135 51.5169 4.33549C52.0213 3.63448 52.5905 2.98259 53.2169 2.38845C53.6737 1.92876 54.1919 1.53479 54.7567 1.2178C55.6049 0.750076 56.5573 0.504781 57.5254 0.504701C57.6063 0.504701 57.6873 0.504701 57.7682 0.504701C60.0342 0.621523 61.897 1.96498 62.8684 4.00936C63.4302 5.21169 63.7165 6.52474 63.7063 7.85232C63.7102 8.84106 63.5694 9.82502 63.2886 10.7729C63.0235 11.6254 62.6989 12.4582 62.3171 13.2651C61.8144 14.3603 61.2607 15.4336 60.7045 16.502L60.3232 17.2322C63.036 14.8534 66.4714 13.4631 70.0719 13.287C70.1666 13.287 70.2613 13.287 70.356 13.287C70.9162 13.2868 71.4753 13.3357 72.0269 13.433C72.2115 13.4671 72.3937 13.5036 72.5758 13.545H74.2467C75.0289 13.5454 75.7986 13.7416 76.4859 14.1159C77.1731 14.4901 77.7562 15.0305 78.1821 15.688C78.608 16.3454 78.8632 17.0991 78.9245 17.8805C78.9858 18.6619 78.8514 19.4463 78.5333 20.1624C78.169 20.9834 77.7966 21.802 77.4161 22.6181C77.7443 22.7096 78.0638 22.8301 78.3706 22.9783C78.6329 22.5889 78.9025 22.2068 79.1745 21.8247C79.5995 21.2211 80.0391 20.6249 80.4836 20.0359C80.9887 19.3666 81.5109 18.707 82.05 18.0645C82.6202 17.3801 83.2249 16.7253 83.8618 16.1029C84.508 15.4652 85.2167 14.8944 85.9772 14.3992C87.2052 13.5712 88.6853 13.2041 90.1569 13.3624C91.5947 13.4972 92.9361 14.146 93.9359 15.1902C94.359 14.8015 94.8213 14.4582 95.3154 14.1656C96.3345 13.5712 97.4928 13.2588 98.6718 13.2602H98.871C99.7412 13.2886 100.596 13.4965 101.383 13.8708C102.169 14.2452 102.87 14.778 103.442 15.436C103.872 14.8284 104.443 14.334 105.105 13.995C105.767 13.656 106.501 13.4824 107.245 13.489H109.642C110.59 13.4794 111.518 13.7605 112.301 14.2946C113.187 13.8535 114.139 13.5593 115.119 13.4233C115.39 13.3868 115.664 13.3746 115.937 13.3868C116.935 13.4264 117.911 13.698 118.786 14.1802C119.37 14.5041 119.902 14.9143 120.365 15.3971C120.792 14.7935 121.358 14.3017 122.015 13.9628C122.672 13.624 123.4 13.4482 124.139 13.45H126.533C127.519 13.4427 128.481 13.7495 129.28 14.3262C130.135 13.4705 131.288 12.9824 132.496 12.9657L135.014 12.9097C135.902 12.8843 136.779 13.1141 137.54 13.5717C138.726 12.5872 140.185 11.9924 141.72 11.8681C141.841 11.8681 141.963 11.8535 142.087 11.8535C143.48 11.8286 144.836 12.3092 145.905 13.2067C146.136 13.4045 146.352 13.621 146.548 13.8541C147.42 13.4537 148.368 13.247 149.326 13.248H149.523C150.394 13.2761 151.249 13.4838 152.036 13.8582C152.823 14.2326 153.524 14.7655 154.096 15.4238C154.527 14.8162 155.098 14.3219 155.76 13.9829C156.422 13.6439 157.156 13.4702 157.9 13.4768H160.297C161.088 13.4754 161.866 13.6741 162.56 14.0546C163.253 14.4351 163.84 14.9851 164.265 15.6534C164.69 16.3218 164.939 17.0869 164.99 17.8777C165.041 18.6685 164.892 19.4594 164.557 20.177C163.998 21.3664 163.438 22.5549 162.876 23.7426L162.993 23.8545C163.442 24.3052 163.798 24.8404 164.04 25.4293C164.282 26.0182 164.406 26.6492 164.404 27.2862C164.404 27.5249 164.386 27.7633 164.35 27.9993C164.154 29.2819 163.478 30.2846 162.718 31.2922C162.13 32.0708 161.492 32.8106 160.809 33.5069C160.235 34.1025 159.61 34.6465 158.942 35.1327C157.718 36.055 156.257 36.6087 154.73 36.7293C154.575 36.7414 154.422 36.7439 154.269 36.7414C152.765 36.7417 151.305 36.2332 150.126 35.2982C149.036 36.0531 147.779 36.5294 146.463 36.6855C146.234 36.7073 146.003 36.7122 145.773 36.7001C144.577 36.6403 143.425 36.2289 142.461 35.5172C142.325 35.6081 142.186 35.6933 142.045 35.7728C141.214 36.2427 140.284 36.5095 139.33 36.5516C139.218 36.5516 139.109 36.5516 139 36.5516C136.758 36.5054 134.932 35.2812 133.841 33.429L133.824 33.4777C133.488 34.3652 132.889 35.1284 132.108 35.6648C131.326 36.2012 130.4 36.4852 129.453 36.4786H127.043C126.09 36.4861 125.157 36.1989 124.372 35.656C123.351 36.2453 122.215 36.6072 121.042 36.7171C120.862 36.7346 120.681 36.7411 120.501 36.7366C118.862 36.7408 117.28 36.1335 116.064 35.0329L115.966 34.9429C115.531 35.4301 114.997 35.8188 114.399 36.0831C113.802 36.3475 113.156 36.4815 112.503 36.4762H110.021C109.09 36.485 108.178 36.2128 107.403 35.6949C106.382 36.2749 105.246 36.623 104.076 36.7147C103.92 36.7268 103.767 36.7293 103.614 36.7268C102.11 36.7271 100.65 36.2186 99.4709 35.2836C98.3814 36.0388 97.124 36.5151 95.8084 36.6709C95.5792 36.6928 95.3486 36.6977 95.1187 36.6855C93.572 36.6126 92.1126 35.9459 91.0434 34.8236C90.6152 35.2127 90.1471 35.5554 89.6469 35.8458C88.6345 36.4259 87.4883 36.7305 86.3221 36.7293H86.2176C85.3539 36.7175 84.5017 36.5283 83.7138 36.1733C82.926 35.8183 82.2192 35.3051 81.6372 34.6654Z" fill="#50323A"/>
<path fill-rule="evenodd" clip-rule="evenodd" d="M145.636 15.3775C145.833 15.2271 146.04 15.0897 146.255 14.9662C147.054 14.4979 147.964 14.2517 148.89 14.2531H149.028C149.803 14.2749 150.562 14.4815 151.242 14.8556C151.921 15.2297 152.502 15.7607 152.936 16.4045C153.245 16.8556 153.49 17.3469 153.665 17.8648C153.989 17.318 154.299 16.7615 154.597 16.1952C154.867 15.6676 155.278 15.2258 155.784 14.9192C156.29 14.6127 156.872 14.4537 157.463 14.4599H159.86C160.409 14.4579 160.949 14.595 161.43 14.8584C161.912 15.1217 162.319 15.5029 162.614 15.9663C162.909 16.4297 163.082 16.9604 163.117 17.5089C163.153 18.0575 163.049 18.606 162.816 19.1036C162.089 20.6596 161.356 22.2124 160.618 23.7619C160.96 23.9249 161.271 24.1455 161.538 24.4142C161.854 24.7308 162.104 25.1069 162.274 25.5209C162.444 25.9348 162.531 26.3784 162.529 26.8261C162.529 26.989 162.517 27.1517 162.493 27.3128C162.337 28.3204 161.73 29.1625 161.133 29.9559C160.58 30.6891 159.98 31.3851 159.336 32.0392C158.813 32.5748 158.244 33.0634 157.636 33.4995C156.63 34.2603 155.428 34.7163 154.172 34.8138C154.066 34.8198 153.958 34.8198 153.852 34.8138C152.567 34.8255 151.323 34.3569 150.364 33.4995C150.174 33.3214 150 33.1277 149.842 32.9203L149.531 33.1636C148.462 33.9619 147.234 34.6434 145.888 34.7699C145.726 34.7837 145.564 34.7837 145.402 34.7699C144.764 34.7422 144.139 34.5808 143.567 34.2962C142.994 34.0116 142.488 33.61 142.08 33.1174C141.726 33.4754 141.323 33.7825 140.885 34.0301C140.249 34.3898 139.538 34.5933 138.809 34.6239C138.728 34.6239 138.66 34.6239 138.58 34.6239C136.572 34.5825 135.044 33.3121 134.277 31.5014C133.939 30.7055 133.64 29.8707 133.361 29.0384L132.033 32.4676C131.809 33.0903 131.398 33.6285 130.857 34.0084C130.317 34.3883 129.672 34.5914 129.011 34.5898H126.602C126.115 34.5967 125.632 34.4904 125.193 34.2793C124.754 34.0681 124.369 33.7579 124.069 33.373L123.843 33.5409C122.855 34.2708 121.687 34.716 120.465 34.8284C120.34 34.8406 120.214 34.8454 120.088 34.843C118.803 34.8542 117.56 34.3857 116.601 33.5287C116.09 33.0518 115.697 32.4629 115.452 31.808C115.445 31.8255 115.437 31.8426 115.428 31.8591C115.255 32.2218 115.078 32.5893 114.876 32.9422C114.599 33.4457 114.19 33.8643 113.694 34.1536C113.198 34.4429 112.633 34.592 112.059 34.585H109.577C109.103 34.5935 108.633 34.495 108.202 34.2965C107.771 34.098 107.39 33.8048 107.088 33.4387L106.986 33.5141C105.98 34.2748 104.779 34.7309 103.522 34.8284C103.416 34.8344 103.309 34.8344 103.202 34.8284C101.917 34.8396 100.674 34.3711 99.7143 33.5141C99.525 33.3354 99.3504 33.1417 99.1922 32.9349L98.8813 33.1782C97.8151 33.9765 96.5838 34.658 95.2383 34.7845C95.0767 34.7983 94.9142 34.7983 94.7526 34.7845C94.0554 34.754 93.3744 34.5643 92.7615 34.2298C92.1487 33.8953 91.6202 33.4249 91.2164 32.8546C91.0537 32.6241 90.9115 32.3798 90.7914 32.1244C90.6238 32.3021 90.4538 32.4798 90.2814 32.6526C89.759 33.2276 89.1561 33.7236 88.4915 34.125C87.6955 34.5801 86.7946 34.8184 85.8782 34.8162H85.8078C85.0358 34.8086 84.2766 34.6176 83.5927 34.2588C82.9087 33.9 82.3195 33.3837 81.8734 32.7523C81.8418 32.711 81.8175 32.6745 81.7883 32.6331C81.6569 32.4299 81.5368 32.2194 81.4289 32.0027C81.1909 32.2558 80.948 32.4992 80.7003 32.7329C79.9509 33.4449 79.084 34.0213 78.1381 34.4365C77.7196 34.6197 77.2661 34.7086 76.8096 34.6969C75.3397 34.7145 73.9111 34.2091 72.778 33.2707C72.6404 33.1507 72.5092 33.0265 72.3846 32.8984C72.0292 33.1996 71.6578 33.4816 71.2722 33.7429C70.4406 34.3361 69.4735 34.7102 68.4598 34.8308C68.3226 34.8442 68.1848 34.8491 68.047 34.8454C67.4175 34.8209 66.7994 34.6698 66.2294 34.4009C65.6595 34.1321 65.1493 33.751 64.7294 33.2805C64.5924 33.1338 64.4658 32.9776 64.3505 32.8132C64.1975 32.9422 64.0445 33.0566 63.8891 33.188C62.7879 34.1045 61.4303 34.6563 60.0032 34.7675C59.8746 34.776 59.7456 34.776 59.6171 34.7675C58.7878 34.7306 57.9841 34.4692 57.2913 34.0111C56.5985 33.553 56.0426 32.9153 55.6826 32.1658C55.6073 32.0149 55.5418 31.8616 55.481 31.7058C54.8218 32.2987 54.116 32.8375 53.3705 33.317C52.1205 34.1561 50.6762 34.659 49.1762 34.7772C49.0791 34.7772 48.9965 34.7772 48.8994 34.7772C48.1026 34.781 47.3148 34.6099 46.591 34.2761C45.8673 33.9423 45.2252 33.4537 44.7099 32.8448C44.0122 31.985 43.5613 30.9509 43.4057 29.8537C43.1483 30.1652 42.8884 30.4702 42.6261 30.7688C41.0353 32.5893 38.7864 34.9208 36.1731 34.8503C35.4744 34.8376 34.7877 34.6666 34.1643 34.3501C33.541 34.0335 32.9972 33.5796 32.5739 33.0225C31.7627 31.9614 31.498 30.6641 31.498 29.3548C31.4987 28.741 31.5646 28.1291 31.6947 27.5294C29.0024 29.8502 26.0715 31.8775 22.9515 33.5774C19.7214 35.3029 15.7311 37.065 12.0274 37.138H11.8768C8.89437 37.0602 6.14755 36.0939 4.04918 33.9279C2.03582 31.8518 1.05221 29.2525 1.00364 26.3661C0.998787 26.2712 0.998787 26.1762 1.00364 26.0813C1.35337 21.0774 3.77717 17.1469 8.12449 14.6425C11.6072 12.6541 15.4469 11.3155 19.4906 11.3155C21.1377 11.3057 22.7763 11.552 24.348 12.0456C25.9333 12.5352 27.3794 13.3962 28.5666 14.5573C29.2375 15.2122 29.7709 15.9951 30.1355 16.8597H30.2156C30.5783 16.8566 30.9398 16.9 31.2915 16.9887C32.4249 15.6501 33.5227 14.2766 34.5848 12.8682C35.2956 11.9239 35.9975 10.9699 36.6904 10.0061C36.3625 10.1157 36.0186 10.17 35.6728 10.1667C35.123 10.1743 34.5797 10.0472 34.09 9.7965C33.6003 9.54584 33.1791 9.17918 32.8629 8.72836C32.4496 8.1305 32.2323 7.41853 32.2411 6.69128C32.239 6.43122 32.27 6.17195 32.3334 5.91976C32.7439 4.23071 34.3176 3.31804 35.7117 2.52706C37.4255 1.59432 39.3316 1.072 41.2806 1.00107H41.4555C43.6221 0.966783 45.7206 1.75942 47.3256 3.21826C48.7828 4.54711 49.5721 6.27997 49.8587 8.16616L50.3444 7.43602C50.9589 6.53308 51.5879 5.63258 52.2412 4.75884C52.6959 4.12327 53.2098 3.53244 53.7761 2.99434C54.1428 2.61997 54.5607 2.29958 55.0172 2.04273C55.6543 1.69214 56.3692 1.508 57.0961 1.5073C57.1544 1.5073 57.203 1.5073 57.2612 1.5073C58.9977 1.59492 60.3918 2.63415 61.1325 4.18447C61.6024 5.19786 61.8389 6.30409 61.8247 7.42142C61.8279 8.26916 61.7076 9.11284 61.4677 9.92579C61.2198 10.7135 60.9171 11.4829 60.5618 12.2282C60.0761 13.299 59.5223 14.3577 58.9783 15.3921C58.1186 17.0471 57.2928 18.7215 56.4671 20.3935L56.0153 21.3038C56.3605 21.2076 56.7189 21.1682 57.0767 21.1869C57.328 21.1943 57.5778 21.2278 57.8223 21.2867C58.2473 20.6832 58.7063 20.099 59.1872 19.5368C60.4839 17.9804 62.0885 16.7102 63.8998 15.8067C65.7111 14.9031 67.6897 14.3857 69.7106 14.2871C69.7786 14.2871 69.8393 14.2871 69.9073 14.2871C70.3829 14.2859 70.8575 14.3274 71.3257 14.4113C71.5369 14.4478 71.7482 14.4916 71.9595 14.5451H73.798C74.3404 14.5452 74.8741 14.6811 75.3508 14.9405C75.8274 15.1999 76.2317 15.5745 76.5271 16.0303C76.8225 16.4862 76.9995 17.0087 77.042 17.5506C77.0846 18.0924 76.9913 18.6363 76.7707 19.1328C76.285 20.2256 75.7823 21.3111 75.2771 22.3965C75.1152 22.7421 74.9533 23.0894 74.7914 23.4382L74.8108 23.4504C75.8406 23.3046 76.8886 23.5316 77.7665 24.0905C77.9663 24.2153 78.1563 24.3552 78.3348 24.5091C78.5501 24.1846 78.7647 23.8601 78.9784 23.5356C79.2747 23.0877 79.5855 22.6448 79.8964 22.2067C80.3141 21.6153 80.744 21.0336 81.1787 20.4568C81.6645 19.8078 82.1721 19.1693 82.7015 18.5414C83.2364 17.8947 83.8038 17.2757 84.4016 16.6869C84.9783 16.1133 85.6113 15.5996 86.2911 15.1536C87.2393 14.5027 88.3882 14.2127 89.5309 14.3358C90.1926 14.392 90.834 14.5923 91.4104 14.9228C91.9868 15.2532 92.4842 15.7057 92.8679 16.2488C93.0268 16.4748 93.1673 16.7133 93.2881 16.9619C93.4581 16.7794 93.6305 16.5992 93.8054 16.4265C94.3224 15.856 94.9197 15.364 95.5783 14.9662C96.3768 14.4977 97.2857 14.2515 98.211 14.2531H98.3494C99.1245 14.2749 99.8832 14.4815 100.563 14.8556C101.242 15.2297 101.823 15.7607 102.257 16.4045C102.566 16.8556 102.811 17.3469 102.986 17.8648C103.31 17.318 103.62 16.7615 103.918 16.1952C104.193 15.6681 104.609 15.2282 105.12 14.925C105.63 14.6219 106.215 14.4676 106.808 14.4794H109.203C109.672 14.4709 110.136 14.5669 110.563 14.7605C110.99 14.9542 111.368 15.2406 111.671 15.599C112.638 14.9743 113.728 14.5666 114.867 14.404C115.055 14.3781 115.245 14.3691 115.435 14.3772C116.21 14.4055 116.967 14.6164 117.645 14.9929C118.25 15.3238 118.78 15.7752 119.204 16.3194C119.229 16.3486 119.248 16.3753 119.27 16.407C119.594 16.8497 119.852 17.3375 120.035 17.8551L120.764 16.3267C121.023 15.767 121.438 15.2946 121.96 14.9668C122.481 14.6389 123.087 14.4696 123.702 14.4794H126.097C126.646 14.4718 127.187 14.6071 127.668 14.872C128.149 15.137 128.553 15.5224 128.841 15.9908C128.91 16.0984 128.972 16.2098 129.028 16.3242L129.135 16.0565C129.364 15.4542 129.768 14.935 130.296 14.5668C130.824 14.1986 131.45 13.9985 132.093 13.9927L134.612 13.9367C135.097 13.9187 135.579 14.013 136.022 14.2122C136.465 14.4114 136.856 14.7102 137.164 15.0854C138.236 13.8294 139.755 13.0433 141.398 12.895C141.487 12.895 141.563 12.895 141.64 12.895C142.688 12.8602 143.713 13.2059 144.526 13.8685C145.013 14.2734 145.394 14.7914 145.636 15.3775ZM140.992 22.3357C140.783 22.5791 140.564 22.8225 140.339 23.0415C140.536 23.3822 140.717 23.7319 140.88 24.0905C141.068 23.966 141.27 23.8624 141.48 23.7814L141.419 23.6816C141.184 23.2681 141.038 22.8095 140.992 22.3357ZM10.0334 26.7384C9.28357 26.0842 8.71687 25.2453 8.38921 24.3046C8.35081 24.4056 8.32155 24.5099 8.30178 24.6162C8.42807 25.4291 9.18096 26.1081 9.79541 26.5632C9.87313 26.6265 9.95327 26.6849 10.0334 26.7384Z" fill="white"/>
<path fill-rule="evenodd" clip-rule="evenodd" d="M144.282 20.0383L144.396 19.8972C144.93 19.2358 145.498 18.6022 146.096 17.9988C146.51 17.5329 146.988 17.1296 147.517 16.8014C148.069 16.4799 148.696 16.3119 149.334 16.3146H149.402C149.923 16.3267 150.435 16.4639 150.893 16.7145C151.351 16.9652 151.742 17.3221 152.034 17.7554C152.521 18.4693 152.784 19.3125 152.79 20.177C152.841 21.0775 152.469 22.0462 152.093 22.8542C151.643 23.8083 151.163 24.7574 150.672 25.7042C151.401 24.8791 152.105 24.0224 152.778 23.1633C154.18 21.36 155.419 19.4345 156.479 17.4098C156.613 17.1458 156.819 16.9246 157.072 16.7711C157.325 16.6176 157.616 16.5379 157.912 16.541H160.309C160.583 16.5403 160.853 16.6091 161.094 16.7411C161.335 16.8731 161.538 17.0639 161.686 17.2959C161.833 17.5278 161.919 17.7933 161.937 18.0677C161.954 18.342 161.902 18.6164 161.786 18.8652C160.814 20.951 159.828 23.0367 158.82 25.1103L158.441 25.8916C158.714 25.6758 159.044 25.5447 159.391 25.5143C159.442 25.5143 159.488 25.5143 159.539 25.5143C159.778 25.5097 160.015 25.5527 160.237 25.6409C160.458 25.729 160.661 25.8606 160.831 26.0279C160.995 26.1932 161.125 26.3895 161.213 26.6055C161.301 26.8215 161.345 27.0529 161.344 27.2861C161.344 27.3677 161.338 27.4491 161.324 27.5295C161.225 28.1915 160.673 28.9095 160.277 29.4352C159.763 30.1203 159.204 30.7707 158.604 31.3822C158.146 31.8565 157.647 32.289 157.113 32.6746C156.351 33.2451 155.441 33.5839 154.492 33.6505C154.439 33.6542 154.385 33.6542 154.332 33.6505C153.447 33.667 152.586 33.3539 151.918 32.7719C151.339 32.2131 150.992 31.4561 150.946 30.6521C150.333 31.2457 149.684 31.8016 149.003 32.3168C148.195 32.9228 147.204 33.5118 146.179 33.6067C146.098 33.6129 146.017 33.6129 145.936 33.6067C145.483 33.5892 145.04 33.4675 144.641 33.251C144.242 33.0345 143.898 32.7291 143.636 32.3582C143.275 31.8303 143.054 31.2188 142.995 30.5815C142.49 31.1973 141.965 31.8203 141.416 32.3874C141.156 32.6596 140.858 32.8917 140.53 33.0761C140.115 33.311 139.65 33.4421 139.175 33.4582C139.137 33.4607 139.099 33.4607 139.061 33.4582C137.698 33.4315 136.734 32.5407 136.219 31.3287C135.733 30.1702 135.325 28.9265 134.939 27.7291C134.767 27.1912 134.232 25.5703 133.861 25.0811C133.836 25.07 133.81 25.0611 133.783 25.0544L130.963 32.3436C130.848 32.6524 130.64 32.918 130.368 33.1044C130.097 33.2907 129.775 33.3888 129.445 33.3852H127.036C126.771 33.3852 126.51 33.3201 126.275 33.1957C126.041 33.0713 125.84 32.8914 125.691 32.6716C125.542 32.4518 125.449 32.1988 125.419 31.9347C125.39 31.6705 125.426 31.4031 125.523 31.1559L125.931 30.1215L125.674 30.4209C125.397 30.7373 125.118 31.0512 124.826 31.3555C124.61 31.5794 124.387 31.7935 124.151 31.9955C123.915 32.1975 123.602 32.4458 123.315 32.6575C122.563 33.2106 121.675 33.5472 120.746 33.6311C120.683 33.6359 120.62 33.6359 120.557 33.6311C119.671 33.6475 118.811 33.3345 118.142 32.7524C117.441 32.0978 117.171 31.19 117.171 30.2529C117.171 29.3159 117.433 28.3814 117.781 27.5441C117.88 27.3008 117.985 27.0574 118.089 26.814H117.929C117.547 26.8002 117.166 26.7669 116.787 26.7142C116.746 26.797 116.707 26.8773 116.668 26.9576C116.425 27.4622 116.187 27.9668 115.952 28.4714C115.925 28.5274 115.901 28.5736 115.869 28.6272C115.726 28.8705 115.595 29.1139 115.466 29.3573C115.284 29.7053 115.114 30.0558 114.946 30.4087C114.779 30.7616 114.584 31.1729 114.402 31.555C114.247 31.8836 114.087 32.217 113.917 32.5285C113.777 32.7803 113.572 32.9896 113.324 33.1344C113.076 33.2792 112.793 33.3541 112.505 33.3512L110.019 33.4071C109.746 33.4077 109.478 33.3399 109.239 33.2097C108.999 33.0796 108.797 32.8913 108.649 32.6622C108.501 32.4331 108.413 32.1705 108.392 31.8984C108.372 31.6263 108.42 31.3534 108.532 31.1048C108.641 30.8614 108.751 30.618 108.862 30.3746C108.569 30.7154 108.266 31.0455 107.952 31.3652C107.493 31.8389 106.993 32.2713 106.458 32.6575C105.697 33.235 104.785 33.5798 103.833 33.6505C103.779 33.6542 103.726 33.6542 103.672 33.6505C102.788 33.6675 101.928 33.3544 101.261 32.7719C100.681 32.2137 100.334 31.4563 100.289 30.6521C99.6757 31.2457 99.0269 31.8016 98.3464 32.3168C97.5376 32.9228 96.5491 33.5118 95.5218 33.6067C95.441 33.6129 95.3598 33.6129 95.279 33.6067C94.8257 33.5892 94.3826 33.4675 93.9838 33.251C93.585 33.0345 93.2412 32.7291 92.979 32.3582C92.504 31.6383 92.2677 30.7866 92.3038 29.9244C92.2972 29.1751 92.4564 28.4336 92.7701 27.7534C93.0859 27.0793 93.4769 26.4075 93.8558 25.7602C94.1132 25.1931 94.3779 24.626 94.6451 24.0565C94.4793 24.1129 94.3052 24.1409 94.1302 24.1393C93.8239 24.1451 93.5217 24.0688 93.2548 23.9181C92.9879 23.7675 92.766 23.5481 92.6123 23.2826C92.4521 23.0044 92.3683 22.6886 92.3694 22.3675C92.3686 22.2437 92.3825 22.1204 92.4107 22C92.5783 21.2698 93.2607 20.4496 93.7295 19.8777C94.2662 19.2254 94.8224 18.5756 95.4295 17.9793C95.8429 17.5135 96.3214 17.1101 96.8503 16.7819C97.4019 16.4608 98.029 16.2927 98.6669 16.2951H98.7374C99.2594 16.3071 99.7709 16.4445 100.229 16.6956C100.687 16.9467 101.078 17.3043 101.37 17.7384C101.858 18.4518 102.121 19.2953 102.125 20.16C102.179 21.0605 101.805 22.0292 101.428 22.8372C100.979 23.7912 100.498 24.7404 100.008 25.6871C100.736 24.8621 101.44 24.0054 102.113 23.1463C103.516 21.3429 104.754 19.4174 105.815 17.3928C105.949 17.1288 106.154 16.9076 106.408 16.7541C106.661 16.6006 106.952 16.5209 107.247 16.5239H109.645C109.919 16.5232 110.189 16.5921 110.43 16.7241C110.67 16.8561 110.874 17.0469 111.021 17.2788C111.168 17.5107 111.255 17.7762 111.272 18.0506C111.29 18.325 111.238 18.5994 111.121 18.8482C111.104 18.8823 111.087 18.9188 111.073 18.9553C112.287 17.7238 113.771 16.6651 115.517 16.4339C115.611 16.4242 115.707 16.4242 115.801 16.4339C116.325 16.4506 116.836 16.5915 117.295 16.8452C117.709 17.0723 118.073 17.382 118.363 17.7554L118.395 17.7968C118.657 18.157 118.859 18.5583 118.99 18.9845C119.13 19.4292 119.2 19.8932 119.196 20.3596C119.196 20.7111 119.16 21.0618 119.09 21.4061C119.01 21.7765 118.902 22.1403 118.767 22.494C118.696 22.6765 118.623 22.8566 118.548 23.0367C119.046 23.0148 119.549 22.9637 120.005 22.9126C120.34 22.2458 120.674 21.5781 121.006 20.9096C121.574 19.7633 122.128 18.6145 122.684 17.4634C122.813 17.1857 123.019 16.9512 123.277 16.7876C123.536 16.6241 123.836 16.5385 124.141 16.541H126.533C126.807 16.5415 127.076 16.6111 127.316 16.7433C127.555 16.8755 127.758 17.066 127.905 17.2974C128.052 17.5287 128.138 17.7933 128.156 18.0669C128.174 18.3405 128.123 18.6142 128.008 18.8628C127.311 20.3539 126.609 21.8426 125.9 23.3288C125.492 24.1831 125.084 25.0325 124.668 25.8867C124.903 25.7063 125.177 25.5837 125.467 25.529C125.563 25.5104 125.661 25.5014 125.759 25.5022C126.092 25.4974 126.42 25.586 126.706 25.758C126.992 25.93 127.224 26.1786 127.376 26.4757L131.085 17.0861C131.199 16.7856 131.401 16.5266 131.665 16.343C131.928 16.1593 132.241 16.0595 132.561 16.0566L135.082 16.0007C135.354 15.9944 135.624 16.0567 135.866 16.1819C136.107 16.3071 136.314 16.4912 136.466 16.7173C136.619 16.9433 136.712 17.2041 136.737 17.4756C136.763 17.7472 136.72 18.0208 136.612 18.2714L135.665 20.4959C135.665 20.4813 135.692 20.4691 135.707 20.4545C136.621 19.4627 137.471 18.4132 138.252 17.3125C139.143 16.0347 140.367 15.0831 141.96 14.959C142.002 14.9565 142.045 14.9565 142.087 14.959C142.749 14.9292 143.4 15.141 143.918 15.5553C144.18 15.7735 144.39 16.047 144.533 16.3563C144.677 16.6656 144.75 17.003 144.748 17.3441C144.731 17.8205 144.683 18.2952 144.605 18.7654C144.557 19.2026 144.448 19.631 144.282 20.0383ZM143.651 20.8609C143.574 20.9195 143.493 20.9724 143.408 21.0191C143.048 21.2127 142.628 21.259 142.235 21.1481C141.846 21.0472 141.497 20.8288 141.237 20.5226C140.946 20.8093 140.673 21.1142 140.421 21.4353C139.903 22.0956 139.299 22.6833 138.626 23.1828L138.652 23.2168C139.588 24.3997 140.202 25.894 140.644 27.3178L140.714 27.5368C141.122 26.9892 141.674 26.2688 142.142 25.9354C142.416 25.7354 142.746 25.6296 143.085 25.6336C143.527 25.6248 143.957 25.774 144.299 26.0547L144.336 26.0839C144.396 25.9792 144.457 25.877 144.515 25.7723C144.775 25.2053 145.037 24.6382 145.307 24.0687C145.141 24.1253 144.967 24.1533 144.792 24.1514C144.486 24.1587 144.184 24.0829 143.917 23.9321C143.65 23.7813 143.429 23.5611 143.277 23.2947C143.116 23.0165 143.033 22.7008 143.034 22.3796C143.033 22.2559 143.047 22.1325 143.075 22.0121C143.197 21.597 143.392 21.2071 143.651 20.8609ZM108.964 23.4286C108.697 23.9908 108.428 24.5481 108.156 25.1079L107.777 25.8891C108.05 25.6734 108.38 25.5423 108.726 25.5119C108.78 25.5119 108.824 25.5119 108.875 25.5119C109.113 25.5073 109.35 25.5503 109.572 25.6384C109.794 25.7266 109.996 25.8582 110.167 26.0254C110.341 26.2003 110.477 26.4101 110.565 26.6412C110.733 26.2786 110.9 25.9111 111.07 25.5557C111.464 24.7153 111.859 23.8756 112.255 23.0367C112.225 23.0723 112.196 23.1097 112.17 23.1487L112.139 23.1974C111.687 23.8861 110.985 24.3656 110.147 24.1879C109.875 24.1399 109.617 24.0309 109.392 23.8691C109.225 23.7484 109.08 23.5993 108.964 23.4286ZM74.9389 25.6579C74.9899 25.636 75.0433 25.6166 75.0943 25.5995L75.223 25.5606C75.5831 25.4704 75.9579 25.4556 76.324 25.5171C76.6901 25.5787 77.0395 25.7153 77.3505 25.9184C77.9604 26.294 78.4147 26.8772 78.6305 27.5612C78.6565 27.6406 78.676 27.722 78.6887 27.8046C78.6887 27.8338 78.6887 27.863 78.7009 27.8922C78.9875 27.5125 79.2619 27.1304 79.5291 26.7385C79.9516 26.1228 80.3694 25.4997 80.7822 24.8767C81.0688 24.441 81.37 24.0151 81.6711 23.5892C82.0792 23.0116 82.4969 22.4437 82.9243 21.8856C83.3987 21.256 83.8885 20.6386 84.3937 20.0334C84.8956 19.4304 85.4282 18.8536 85.9893 18.3055C86.4872 17.8078 87.034 17.3617 87.6214 16.9742C88.2566 16.5241 89.0335 16.3208 89.8072 16.4022C90.2403 16.4337 90.661 16.5612 91.039 16.7754C91.417 16.9897 91.7428 17.2853 91.993 17.641C92.467 18.3562 92.7056 19.2022 92.6754 20.0602C92.6809 20.8052 92.5199 21.542 92.2043 22.2166C92.0634 22.5378 91.9031 22.8518 91.7331 23.1584L91.7137 23.1901C91.5145 23.5284 91.3227 23.8715 91.1308 24.2123C90.8734 24.7769 90.6135 25.3416 90.3463 25.9038C90.5078 25.8509 90.6768 25.8246 90.8466 25.8259C91.1692 25.8191 91.4871 25.9033 91.7641 26.069C92.0411 26.2347 92.266 26.4752 92.4131 26.7629C92.5412 27.0248 92.6061 27.3133 92.6026 27.605C92.6034 27.7271 92.5895 27.8488 92.5613 27.9676C92.3986 28.6783 91.704 29.5301 91.2498 30.0923C90.9584 30.4501 90.6572 30.7932 90.3512 31.1364C90.0913 31.426 89.8242 31.7108 89.5497 31.9858C89.1328 32.4497 88.651 32.8506 88.1192 33.1759C87.5703 33.495 86.9469 33.6629 86.3123 33.6627H86.2759C85.756 33.6603 85.2443 33.5334 84.7833 33.2925C84.3224 33.0516 83.9257 32.7037 83.6262 32.2779L83.5849 32.217C83.116 31.5007 82.863 30.6642 82.8563 29.8076C82.8491 29.2138 82.9546 28.6241 83.1672 28.0698L82.8806 28.5055C82.4775 29.1253 82.0484 29.7264 81.5934 30.3089C81.1174 30.9178 80.5936 31.4875 80.0269 32.0126C79.4144 32.5844 78.7088 33.047 77.9407 33.3804C77.731 33.4716 77.5038 33.5156 77.2753 33.5094C76.1866 33.5318 75.1254 33.1661 74.2807 32.4774C73.7334 32.0162 73.3254 31.411 73.1028 30.73C72.8518 31.0123 72.5944 31.2889 72.3305 31.5599C71.8598 32.0322 71.3431 32.4561 70.7883 32.8255C70.1822 33.2656 69.4759 33.5467 68.7336 33.6432C68.6649 33.648 68.5959 33.648 68.5272 33.6432C68.1115 33.6282 67.7031 33.5284 67.3273 33.3497C66.9514 33.171 66.6159 32.9172 66.3414 32.604C65.8004 31.9828 65.4861 31.1959 65.4501 30.3722C64.7796 31.075 64.0615 31.7304 63.3007 32.3338C62.4605 33.044 61.4209 33.4752 60.3256 33.5678C60.2617 33.5714 60.1976 33.5714 60.1337 33.5678C59.5913 33.5501 59.0641 33.3835 58.6096 33.086C58.1552 32.7886 57.7911 32.3718 57.5569 31.8812C57.2029 31.1102 57.0365 30.2661 57.0712 29.4181V29.3889C57.0827 29.0681 57.1103 28.7481 57.1538 28.43C56.5612 29.1334 55.9394 29.8076 55.2885 30.4598C54.5694 31.1874 53.7701 31.8308 52.906 32.3776C51.8875 33.0629 50.7096 33.4729 49.4865 33.5678C49.4403 33.5702 49.3941 33.5702 49.348 33.5678C48.7865 33.5744 48.2304 33.4575 47.7189 33.2254C47.2074 32.9933 46.7529 32.6516 46.3875 32.2243C45.6127 31.2995 45.365 30.0899 45.3553 28.9095C45.3595 28.1866 45.4801 27.4692 45.7123 26.7848C45.9676 26.0236 46.2861 25.2852 46.6643 24.5773C47.1064 23.7279 47.5435 22.8737 47.9855 22.0267C48.1475 21.7022 48.3094 21.3777 48.4713 21.0532C47.3517 22.7569 46.2029 24.4191 45.0104 26.0595C44.0025 27.4419 42.9509 28.8267 41.824 30.1167C40.6364 31.4747 38.6109 33.6943 36.6412 33.6408C36.1846 33.6358 35.7351 33.5261 35.3272 33.3203C34.9193 33.1144 34.5638 32.8178 34.2879 32.4531C33.705 31.6913 33.5471 30.7129 33.5471 29.7759C33.5505 28.9504 33.6942 28.1315 33.9721 27.3543C34.2741 26.5208 34.6547 25.7181 35.1088 24.957C35.6455 24.0346 36.2089 23.1219 36.7748 22.2166C37.505 21.0467 38.2215 19.8679 38.9242 18.6803L39.4974 17.7067C37.9413 19.8426 36.2136 21.8474 34.3316 23.7012C30.844 27.1596 26.9387 30.2432 22.606 32.5675C19.6479 34.1592 15.8422 35.8701 12.4323 35.9383C12.4073 35.9407 12.3821 35.9407 12.357 35.9383C9.80206 35.8726 7.45354 35.0792 5.65147 33.2222C3.92712 31.4431 3.10866 29.2405 3.06494 26.7702C3.06494 26.7191 3.06494 26.6753 3.06494 26.6266C3.37824 22.1655 5.49361 18.7216 9.37947 16.4947C12.6047 14.6426 16.1797 13.3673 19.9296 13.3673C21.4116 13.3552 22.8865 13.5744 24.3012 14.0171C25.6367 14.4277 26.8555 15.151 27.8568 16.1272C28.4798 16.7243 28.9454 17.4668 29.212 18.2884C29.2746 18.4908 29.3265 18.6963 29.3674 18.9042H30.6546C31.0221 18.8912 31.387 18.9706 31.7159 19.1354C31.8673 19.2146 32.0064 19.3154 32.1288 19.4347C33.586 17.7651 34.9841 16.0412 36.3231 14.2629C38.1446 11.8437 39.9078 9.371 41.569 6.83499C40.6021 6.88967 39.6595 7.1599 38.81 7.62597C38.1859 8.00321 37.4767 8.46806 36.8234 8.78689C36.6022 8.89629 36.3585 8.95215 36.1118 8.94995C35.8252 8.9585 35.5409 8.89639 35.2839 8.76908C35.0268 8.64177 34.8049 8.45317 34.6376 8.21981C34.4143 7.89546 34.2987 7.50882 34.3073 7.11487C34.3069 6.98448 34.3224 6.85453 34.3534 6.7279C34.6182 5.63756 36.0535 4.88308 36.9521 4.36955C38.448 3.5606 40.1106 3.10993 41.8094 3.05287H41.8969C43.6602 3.01999 45.3696 3.66237 46.6765 4.84901C48.1628 6.19733 48.7409 8.06892 48.7967 10.033V10.1303C48.7562 11.1172 48.5821 12.0939 48.2794 13.0339C47.9627 14.0419 47.5563 15.0193 47.0651 15.9544C46.5988 16.8468 46.113 17.7327 45.6079 18.6121C46.8586 16.7186 48.1264 14.8349 49.3699 12.9365C50.2782 11.5492 51.1914 10.1595 52.1264 8.79906C52.7263 7.91316 53.3408 7.03455 53.9819 6.17786C54.3795 5.61518 54.8318 5.09341 55.3323 4.62023C55.5983 4.343 55.9025 4.10532 56.2357 3.91443C56.6325 3.69393 57.0789 3.57834 57.5326 3.57857H57.6152C58.7518 3.63698 59.6189 4.32331 60.0997 5.33577C60.4651 6.13034 60.6477 6.99701 60.634 7.87178C60.6366 8.56125 60.5393 9.24745 60.345 9.90887C60.1198 10.6238 59.8439 11.3216 59.5193 11.9971C59.0335 13.0436 58.5041 14.0779 57.9722 15.0977C57.1076 16.7624 56.2722 18.4466 55.444 20.1284C54.772 21.4945 54.0864 22.8518 53.3869 24.2001C52.8364 25.2677 52.29 26.3402 51.7476 27.4176C51.4124 28.0869 51.0772 28.7732 50.7907 29.4693C51.4209 29.016 52.005 28.5016 52.5344 27.9335C53.3529 27.0963 54.4774 25.9695 55.1234 24.9935C55.6626 24.1733 56.3377 23.2339 57.4428 23.2753C57.8018 23.2817 58.1518 23.3887 58.4531 23.5844C58.5843 23.6732 58.7035 23.7787 58.8077 23.8983C59.405 22.893 60.091 21.9432 60.8575 21.0605C62.0112 19.6686 63.4418 18.5331 65.0581 17.7265C66.6743 16.9198 68.4406 16.4596 70.2443 16.3755H70.3438C70.7241 16.3757 71.1036 16.4091 71.478 16.4752C71.7209 16.519 71.9638 16.5702 72.1848 16.6359H74.2346C74.5056 16.636 74.7723 16.704 75.0105 16.8336C75.2486 16.9632 75.4507 17.1504 75.5984 17.3781C75.746 17.6059 75.8345 17.867 75.8559 18.1377C75.8773 18.4085 75.8309 18.6803 75.7209 18.9285C75.2352 20.014 74.7494 21.0897 74.2394 22.1654C73.7294 23.2412 73.268 24.2731 72.7944 25.3294C73.0562 25.1897 73.3504 25.1225 73.6468 25.1347C73.99 25.1377 74.3259 25.2345 74.6183 25.4146C74.7339 25.4786 74.8416 25.5562 74.9389 25.6458V25.6579ZM29.144 22.6571H28.8404C28.7011 22.9279 28.5437 23.1889 28.3692 23.4383L28.6436 23.1633C28.8209 22.9954 28.9885 22.8274 29.144 22.6571ZM24.9035 26.4684C22.9387 27.5879 20.7116 28.0577 18.4457 28.1234H18.385C16.5662 28.1345 14.7672 27.7457 13.1148 26.9844C11.5774 26.2396 10.2878 25.0373 10.1712 23.2436C10.1708 23.1423 10.1805 23.0412 10.2004 22.9418C10.5015 20.603 12.7116 19.6781 14.776 19.3544C16.9517 19.0205 19.1522 18.8755 21.3528 18.9212H23.7207L23.5337 18.8652C22.3176 18.5095 21.058 18.3252 19.7912 18.3176C16.6807 18.3607 13.6281 19.1662 10.8998 20.6638C9.27261 21.5667 7.31754 22.9881 7.09896 25.0008C7.18882 26.4075 8.17243 27.476 9.25318 28.2913C10.9994 29.608 13.1925 30.0607 15.3248 30.1191C17.6063 30.0996 19.8475 29.5143 21.8482 28.4154C22.9196 27.8485 23.9444 27.1975 24.9132 26.4684H24.9035ZM17.7802 23.5284C19.4889 23.5217 21.1842 23.2271 22.7954 22.6571H21.6539C19.8101 22.6734 17.9712 22.8501 16.1579 23.1852C16.0049 23.2095 15.7231 23.268 15.4074 23.3458C16.1921 23.4712 16.9857 23.5322 17.7802 23.5284ZM68.2455 21.0216C66.8514 21.8344 65.7391 23.0927 64.8283 24.5189C64.1988 25.4861 63.6255 26.4889 63.1113 27.5222C64.329 26.2036 65.4777 24.8226 66.5527 23.3848C67.1307 22.6254 67.699 21.8344 68.2455 21.0216Z" fill="#50323A"/>
<path fill-rule="evenodd" clip-rule="evenodd" d="M57.1152 6.21436L56.8529 6.48695L56.831 6.50885C56.6745 6.64986 56.5292 6.80283 56.3963 6.9664C56.1728 7.23412 55.9591 7.514 55.7503 7.79632C55.1018 8.67006 54.4849 9.57543 53.8802 10.4735C53.0059 11.7715 52.1372 13.076 51.2742 14.387C50.1692 16.0591 49.0884 17.7578 48.0004 19.4372C46.701 21.4158 45.3701 23.3799 43.9761 25.2953C42.9901 26.6485 41.9652 28.0041 40.8625 29.2648C40.1607 30.1025 39.3781 30.8688 38.5262 31.5526C38.0259 31.9322 37.3385 32.3655 36.6877 32.346C36.4231 32.347 36.162 32.2862 35.925 32.1683C35.6881 32.0504 35.4819 31.8788 35.3228 31.667C34.9317 31.1534 34.8492 30.4038 34.8492 29.7759C34.8518 29.0972 34.9701 28.4239 35.1989 27.7851C35.4763 27.0295 35.8227 26.3011 36.2335 25.6092C36.7654 24.6966 37.3215 23.7985 37.8801 22.9029C38.6087 21.7249 39.3373 20.5348 40.0465 19.3398C40.6925 18.2422 41.3386 17.1494 41.9724 16.042C42.5116 15.1026 43.0224 14.1461 43.5049 13.1726C43.9124 12.3646 44.2465 11.5216 44.5031 10.6536C44.7232 9.90647 44.8489 9.1346 44.8771 8.3561C44.8907 7.89583 44.819 7.43703 44.6658 7.00291C44.6318 6.9299 44.593 6.85445 44.5541 6.779C43.0969 9.59003 41.5183 12.3427 39.7988 15.0004C37.9648 17.8192 35.8313 20.4305 33.4357 22.7885C30.0355 26.1544 26.2177 29.1602 21.9967 31.4309C20.3005 32.3661 18.5295 33.1582 16.7022 33.799C15.3204 34.2955 13.8722 34.5818 12.4059 34.6484H12.3864C10.1763 34.5899 8.13869 33.9328 6.57706 32.3217C5.081 30.7811 4.39126 28.89 4.35483 26.7483C4.35373 26.7386 4.35373 26.7288 4.35483 26.7191C4.63656 22.6887 6.51149 19.6319 10.0161 17.6216C13.0446 15.8838 16.4059 14.6669 19.9274 14.6669C21.272 14.6552 22.6101 14.8539 23.8934 15.2559C25.0438 15.5989 26.095 16.2141 26.9584 17.0496C27.4303 17.4976 27.7848 18.0551 27.9906 18.6729C28.1405 19.1698 28.2222 19.6848 28.2335 20.2038H30.6767C30.8339 20.1947 30.991 20.2222 31.1357 20.2841C31.2214 20.332 31.2921 20.403 31.3397 20.489C31.3873 20.575 31.4101 20.6726 31.4053 20.7709C31.4127 20.88 31.3854 20.9887 31.3274 21.0814C31.2694 21.1741 31.1836 21.246 31.0823 21.2868C30.9043 21.3437 30.7176 21.3684 30.531 21.3598H27.9906C27.5049 22.881 26.2031 24.0662 24.9256 24.9351C22.9973 26.2469 20.7216 26.7604 18.4192 26.8286H18.4047C16.7768 26.8401 15.1662 26.4945 13.6858 25.8161C12.5929 25.2856 11.551 24.4605 11.4684 23.1584C11.4659 23.1366 11.4659 23.1145 11.4684 23.0927C11.6845 21.4085 13.5328 20.8439 14.9632 20.6175C17.0692 20.2952 19.1989 20.156 21.3288 20.2014H27.0823C27.0546 19.9976 27.0099 19.7965 26.9487 19.6002C26.8651 19.34 26.7277 19.1003 26.5456 18.8969C25.8728 18.2714 24.7483 17.8625 23.874 17.6094C22.5394 17.226 21.1579 17.0311 19.7696 17.0301C16.4485 17.0757 13.189 17.9356 10.2759 19.5345C8.19941 20.6857 6.0209 22.4234 5.80232 24.974C5.8776 26.8359 7.04336 28.2475 8.47385 29.3281C10.4484 30.8176 12.8892 31.353 15.3203 31.4163C17.8175 31.4024 20.2724 30.7686 22.4654 29.5715C25.0956 28.172 27.4733 26.1788 29.5668 24.0711C32.3657 21.2428 34.9673 18.2251 37.3531 15.0393C39.5753 12.0871 41.7126 9.05703 43.6846 5.92961C43.4855 5.8493 43.2863 5.77384 43.0872 5.6984C42.7058 5.57154 42.3063 5.50824 41.9044 5.511C40.6197 5.58158 39.2596 5.83956 38.1473 6.51372C37.7377 6.76521 37.3264 7.01264 36.9135 7.25602C36.7022 7.37771 36.4812 7.51401 36.2626 7.61866C36.2177 7.64222 36.1676 7.65395 36.1169 7.65273C36.0379 7.65817 35.9587 7.64417 35.8864 7.61193C35.814 7.57969 35.7505 7.5302 35.7016 7.46777C35.6311 7.35963 35.597 7.23167 35.6045 7.1027C35.6008 7.07606 35.6008 7.04902 35.6045 7.02238C35.6701 6.74493 36.0101 6.48694 36.2286 6.32875C36.6647 6.0228 37.1171 5.74088 37.5838 5.48422C38.9057 4.77384 40.3737 4.37982 41.8729 4.33304H41.8899C43.3325 4.30026 44.7327 4.82287 45.8024 5.79332C47.0168 6.89826 47.4539 8.45345 47.5025 10.0549V10.0744C47.4662 10.9445 47.3126 11.8058 47.0459 12.6347C46.7486 13.5648 46.3707 14.4671 45.9166 15.3314C45.4309 16.2692 44.9249 17.1964 44.3987 18.1132C43.8498 19.0753 43.3098 20.0424 42.7788 21.0142V21.0337C42.2372 21.888 41.6931 22.7374 41.1443 23.5965C40.4545 24.669 39.7664 25.7439 39.0799 26.8213C38.4752 27.7778 37.8801 28.7464 37.3191 29.7418C37.1758 29.9852 36.6391 30.9587 36.6391 31.2313V31.2459H36.78C37.1345 31.2727 37.6688 30.8954 37.9311 30.691C38.6595 30.0978 39.3304 29.4369 39.9348 28.7172C40.933 27.5806 41.8583 26.3394 42.7448 25.1103C44.0295 23.3288 45.2609 21.5034 46.4703 19.6708C47.7988 17.6581 49.1419 15.6575 50.4679 13.6374C51.3738 12.255 52.2846 10.8726 53.2123 9.49998C53.8025 8.63112 54.4072 7.76712 55.0338 6.92503C55.3907 6.4219 55.7976 5.95629 56.2481 5.53534C56.4344 5.33525 56.6478 5.16238 56.882 5.0218C57.0896 4.9072 57.3226 4.84693 57.5596 4.84657C58.2178 4.88064 58.6695 5.28709 58.9464 5.86877C59.2268 6.48986 59.3654 7.16585 59.352 7.84744C59.353 8.41208 59.2711 8.97379 59.1091 9.51458C58.9021 10.1706 58.6481 10.8107 58.3489 11.43C57.8778 12.4595 57.3532 13.4719 56.831 14.4747C55.9616 16.1467 55.1309 17.8406 54.2906 19.5321C53.6203 20.8885 52.9371 22.2385 52.2408 23.5819C51.6871 24.6552 51.1358 25.7309 50.5966 26.8115C50.2153 27.5733 49.8365 28.3546 49.5207 29.1455C49.3268 29.5713 49.2038 30.0259 49.1564 30.4914C49.1416 30.6798 49.1867 30.8681 49.2851 31.0293C49.339 31.0756 49.4015 31.1107 49.4691 31.1324C49.5367 31.1542 49.6079 31.1621 49.6786 31.1559H49.6956C50.1977 31.1395 50.6875 30.9954 51.1188 30.7373C51.4814 30.5356 51.8231 30.2984 52.1388 30.029C52.5972 29.6469 53.0349 29.2407 53.4503 28.8121C54.0478 28.2037 54.6379 27.5831 55.1965 26.9405C55.5566 26.5428 55.8901 26.1217 56.1947 25.6798C56.3695 25.401 56.566 25.1365 56.7824 24.8888C56.854 24.7909 56.9456 24.7093 57.0512 24.6497C57.1567 24.5901 57.2738 24.5538 57.3945 24.5432C57.5128 24.5407 57.6293 24.5728 57.7296 24.6357C57.793 24.6776 57.8449 24.7348 57.8805 24.802C57.9161 24.8691 57.9344 24.9442 57.9336 25.0203C57.936 25.0413 57.936 25.0625 57.9336 25.0835C57.8549 25.329 57.7341 25.5587 57.5766 25.7626C57.3338 26.135 57.0447 26.4927 56.7679 26.8529C56.0225 27.8013 55.2204 28.7035 54.3659 29.5544C53.7117 30.2136 52.9858 30.7973 52.202 31.2946C51.3662 31.8539 50.4012 32.1891 49.3993 32.2681H49.3702C48.9913 32.2791 48.6149 32.2048 48.2685 32.0506C47.9222 31.8965 47.6148 31.6664 47.3689 31.3773C46.7982 30.6983 46.6403 29.7467 46.6403 28.8876C46.6464 28.3076 46.7456 27.7323 46.9342 27.1839C47.1677 26.4907 47.4585 25.8183 47.8037 25.1736C48.2433 24.3242 48.6804 23.4699 49.1249 22.623C49.7029 21.5132 50.2599 20.392 50.7958 19.2595C51.6142 17.5412 52.4351 15.823 53.273 14.1145C53.9433 12.7515 54.6177 11.3918 55.2961 10.0354C55.7697 9.09597 56.2409 8.15166 56.6804 7.20005C56.814 6.91286 56.9452 6.62324 57.0617 6.33118C57.0739 6.29955 57.0982 6.25817 57.1152 6.21436ZM69.0763 31.1607C69.2699 31.0384 69.4564 30.9051 69.6349 30.7616C70.0358 30.4434 70.4193 30.1038 70.7837 29.7443C71.2306 29.2721 71.675 28.7902 72.083 28.284C72.3344 27.9914 72.5557 27.6742 72.7436 27.3372C72.8486 27.1201 72.9721 26.9124 73.1128 26.7166C73.1667 26.6274 73.2411 26.5523 73.3298 26.4977C73.4185 26.4431 73.519 26.4105 73.6228 26.4027C73.7343 26.4008 73.8439 26.4312 73.9385 26.4903C74.0094 26.533 74.0677 26.5938 74.1074 26.6665C74.1471 26.7392 74.1667 26.8212 74.1644 26.904C74.1656 26.9235 74.1656 26.943 74.1644 26.9624C74.0915 27.3811 73.4625 28.211 73.2099 28.5517C72.664 29.2907 72.0667 29.9901 71.4224 30.6448C71.0127 31.0555 70.5637 31.4247 70.0818 31.7473C69.652 32.0637 69.152 32.2709 68.6246 32.3509H68.5833C68.3406 32.3401 68.1027 32.2793 67.8845 32.1721C67.6663 32.0648 67.4726 31.9136 67.3156 31.7278C66.8736 31.2557 66.7521 30.562 66.7473 29.9365C66.7621 29.3099 66.8794 28.69 67.0946 28.1015C67.3511 27.3644 67.6554 26.6449 68.0053 25.9475C68.2984 25.3537 68.5882 24.7582 68.8748 24.1611C68.6319 24.4921 68.389 24.8256 68.1462 25.1541C67.6248 25.8534 67.0873 26.5406 66.5335 27.2156C65.9507 27.9287 65.3483 28.6247 64.7169 29.2964C64.04 30.0246 63.3093 30.7007 62.5311 31.3189C61.8982 31.862 61.1139 32.1967 60.2846 32.2778H60.2311C59.9159 32.2721 59.6085 32.1778 59.3441 32.0057C59.0796 31.8336 58.8686 31.5906 58.7351 31.3043C58.4683 30.7179 58.3435 30.0766 58.3708 29.4327C58.4728 26.5779 60.032 23.9883 61.8414 21.8734C62.8838 20.6139 64.1773 19.5867 65.639 18.8574C67.1007 18.1282 68.6984 17.713 70.3295 17.6386H70.349C70.6535 17.6385 70.9575 17.6654 71.2573 17.7189C71.5104 17.7619 71.7603 17.8221 72.0053 17.899H74.2397C74.2955 17.8991 74.3504 17.9131 74.3994 17.9398C74.4485 17.9665 74.4901 18.005 74.5205 18.0519C74.5508 18.0988 74.5691 18.1526 74.5735 18.2083C74.5779 18.2641 74.5683 18.32 74.5457 18.3712C74.06 19.4469 73.5694 20.5186 73.0739 21.5862C72.4522 22.9199 71.845 24.2617 71.2524 25.6117C70.7206 26.8286 70.1911 28.0455 69.6884 29.2624C69.5184 29.681 69.3484 30.1118 69.2148 30.545C69.1511 30.7459 69.1048 30.9519 69.0763 31.1607ZM74.2105 29.6591C74.072 29.0346 74.1464 28.3816 74.4218 27.8045C74.6463 27.3458 75.0373 26.9906 75.5147 26.8115H75.5415C75.733 26.7652 75.9321 26.7592 76.1261 26.794C76.3201 26.8288 76.5047 26.9035 76.6684 27.0136C77.017 27.2276 77.276 27.5615 77.397 27.953C77.4035 27.9702 77.4076 27.9882 77.4091 28.0065C77.4816 28.3985 77.4659 28.8018 77.363 29.1869C77.2444 29.5527 77.0582 29.8929 76.8141 30.1896C76.7571 30.3234 76.729 30.4677 76.7315 30.6131C76.7326 30.6961 76.7589 30.7767 76.8068 30.8443C76.8491 30.8914 76.8769 30.9497 76.8869 31.0123L76.9161 31.0342C76.9908 31.0743 77.0742 31.0952 77.159 31.095C77.496 31.0261 77.8042 30.8564 78.043 30.6083C78.4885 30.1955 78.8987 29.7461 79.2695 29.2648C79.7285 28.6831 80.1705 28.0844 80.5882 27.4735C81.006 26.8627 81.4358 26.2226 81.8511 25.5922C82.1304 25.1712 82.4243 24.755 82.7182 24.3412C83.1165 23.7742 83.5293 23.2168 83.9471 22.6644C84.4085 22.051 84.8853 21.4507 85.3776 20.8634C85.8499 20.2939 86.3517 19.7496 86.8809 19.2327C87.3178 18.7959 87.797 18.4038 88.3114 18.0621C88.6951 17.7776 89.1692 17.6435 89.6447 17.6848C89.9003 17.6938 90.1503 17.7623 90.375 17.8848C90.5997 18.0073 90.7928 18.1804 90.9392 18.3906C91.2547 18.8874 91.4099 19.4695 91.3836 20.0578C91.389 20.6174 91.2669 21.171 91.0266 21.6762C90.9003 21.9659 90.757 22.2482 90.6016 22.5256C90.3895 22.8875 90.1823 23.2517 89.9799 23.6184C89.448 24.7818 88.9064 25.9451 88.3332 27.089C87.956 27.8402 87.5739 28.589 87.1869 29.3354C86.9635 29.7613 86.7376 30.1945 86.536 30.6302C86.4589 30.7852 86.3994 30.9485 86.3587 31.1169C86.36 31.1548 86.3746 31.191 86.4 31.2191C86.4296 31.2407 86.4655 31.2519 86.502 31.2508C86.763 31.2116 87.0074 31.0984 87.2063 30.9247C87.3448 30.8224 87.4856 30.7178 87.6143 30.6058C87.6143 30.6058 87.6143 30.6058 87.6289 30.6058C87.7312 30.5224 87.8285 30.433 87.9204 30.3381C88.2183 30.0136 88.5113 29.6891 88.7995 29.3646C89.074 29.0458 89.3314 28.7148 89.584 28.3911C89.7977 28.1088 90.3927 27.291 90.7328 27.1742C90.768 27.1624 90.8049 27.1567 90.842 27.1571C90.9245 27.1506 91.007 27.168 91.0798 27.2073C91.1526 27.2466 91.2126 27.3061 91.2525 27.3786C91.2906 27.4608 91.3089 27.5509 91.3059 27.6415C91.3084 27.6657 91.3084 27.6902 91.3059 27.7145C91.2088 28.1404 90.5239 28.9752 90.2495 29.3111C89.975 29.6469 89.6836 29.9828 89.3921 30.3089C89.1444 30.5864 88.8894 30.8565 88.6271 31.1194C88.2931 31.4958 87.908 31.8235 87.4832 32.0929C87.1271 32.2953 86.7244 32.401 86.315 32.3995C85.9951 32.4018 85.6795 32.3258 85.3956 32.1782C85.1116 32.0306 84.8678 31.8159 84.6854 31.5526V31.5404C84.3431 31.0238 84.1598 30.4179 84.1584 29.7978C84.1171 29.1456 84.4595 28.3083 84.7315 27.734C85.023 27.1133 85.3363 26.5 85.6447 25.8916C86.1499 24.8913 86.672 23.8983 87.1893 22.9053C87.4443 22.4186 87.6921 21.9318 87.9446 21.445C88.1729 21.0021 88.4012 20.5616 88.6247 20.1162C88.7971 19.7925 88.9696 19.4639 89.1104 19.1281C89.1371 19.0745 89.1784 18.982 89.2148 18.8847C88.9043 19.0109 88.6194 19.1933 88.3745 19.4226C87.826 19.9179 87.3138 20.4523 86.842 21.0215C86.1912 21.7833 85.5743 22.5816 84.9768 23.3872C84.2628 24.3429 83.5585 25.3058 82.8639 26.2761C82.4947 26.7888 82.1377 27.3097 81.7928 27.8386C81.4107 28.4276 81.006 28.9955 80.5785 29.5423C80.1458 30.0975 79.669 30.6167 79.1529 31.095C78.6499 31.5679 78.0689 31.95 77.4358 32.2243C77.3921 32.243 77.3449 32.2521 77.2974 32.2511C76.5096 32.2724 75.7396 32.0137 75.1237 31.5209C74.8521 31.2901 74.6309 31.0056 74.4737 30.6853C74.3166 30.3649 74.227 30.0156 74.2105 29.6591ZM95.7722 31.1364C96.258 30.966 96.9283 30.4306 97.261 30.1629C97.9386 29.5958 98.6089 29.0117 99.2379 28.3935C100.628 27.0032 101.926 25.5236 103.124 23.964C104.572 22.0987 105.852 20.1082 106.949 18.0158C106.976 17.9609 107.019 17.9148 107.071 17.883C107.124 17.8511 107.184 17.8347 107.245 17.8357H109.642C109.7 17.8357 109.756 17.8503 109.806 17.8781C109.856 17.9059 109.898 17.946 109.929 17.9947C109.959 18.0434 109.977 18.099 109.98 18.1564C109.983 18.2137 109.971 18.2709 109.946 18.3225C108.974 20.4034 108.003 22.4843 106.988 24.5505C106.366 25.834 105.746 27.1166 105.127 28.3984C104.8 29.0774 104.474 29.7589 104.156 30.4452C104.04 30.6693 103.958 30.9097 103.913 31.1583C103.914 31.1753 103.914 31.1924 103.913 31.2094C103.912 31.2224 103.912 31.2354 103.913 31.2484C103.931 31.2495 103.949 31.2495 103.967 31.2484C104.385 31.1963 104.777 31.0161 105.089 30.7324C105.492 30.4014 105.883 30.0509 106.254 29.6859C106.626 29.3208 106.937 28.9557 107.26 28.5566C107.488 28.2875 107.7 28.0055 107.896 27.712C108.026 27.5016 108.173 27.3014 108.333 27.1133C108.452 26.9532 108.624 26.8423 108.819 26.8018H108.848C108.987 26.7945 109.123 26.8427 109.227 26.9357C109.316 27.0277 109.364 27.151 109.363 27.2788C109.364 27.2959 109.364 27.3129 109.363 27.3299C109.31 27.6755 108.77 28.374 108.562 28.6515C108.077 29.2929 107.552 29.9019 106.988 30.4744C106.578 30.8972 106.132 31.2824 105.654 31.6256C105.091 32.054 104.417 32.3116 103.712 32.3679H103.704C103.137 32.3897 102.581 32.1998 102.145 31.8349C101.946 31.6247 101.793 31.3753 101.695 31.1026C101.597 30.8298 101.557 30.5396 101.577 30.2505C101.554 29.776 101.612 29.301 101.749 28.8462C101.943 28.2446 102.192 27.6621 102.492 27.106C102.806 26.4951 103.126 25.8891 103.449 25.2807L103.155 25.619C102.169 26.8457 101.115 28.0158 99.9981 29.1236C99.2433 29.8998 98.4315 30.6182 97.5695 31.2727C96.9744 31.7181 96.156 32.2462 95.3982 32.3119H95.3472C95.0878 32.3055 94.8335 32.238 94.6048 32.115C94.3762 31.992 94.1796 31.8168 94.0309 31.6037C93.7166 31.1049 93.5639 30.5209 93.5937 29.9317C93.587 29.3724 93.7049 28.8187 93.9386 28.3108C94.0697 28.026 94.2203 27.7486 94.3709 27.4735C94.5749 27.1012 94.7862 26.7312 94.9999 26.3662C95.5342 25.2004 96.0783 24.037 96.6514 22.8907L97.7759 20.6443C97.9945 20.2038 98.2131 19.7633 98.4243 19.3228C98.504 19.1734 98.5675 19.0159 98.6138 18.853C98.6147 18.8197 98.6025 18.7873 98.5798 18.763C98.5675 18.7506 98.5527 18.7411 98.5363 18.7352C98.5199 18.7293 98.5024 18.7272 98.4851 18.7289C98.2168 18.7726 97.9651 18.8877 97.7565 19.0624C97.5065 19.2424 97.271 19.4417 97.0521 19.6586C96.4552 20.2863 95.8957 20.9486 95.3764 21.6422C95.1602 21.9294 94.5773 22.7349 94.23 22.8591C94.1965 22.8708 94.1611 22.8766 94.1256 22.8761C94.0472 22.8818 93.9688 22.8657 93.899 22.8296C93.8292 22.7936 93.7706 22.7389 93.7297 22.6717C93.6847 22.5881 93.6629 22.494 93.6666 22.3991C93.663 22.3741 93.663 22.3487 93.6666 22.3236C93.7662 21.8831 94.4365 21.0824 94.7231 20.7319C95.2327 20.0987 95.7742 19.4919 96.3454 18.9139C96.6779 18.5368 97.0622 18.209 97.4869 17.9404C97.841 17.732 98.2444 17.6227 98.6551 17.624H98.6696C98.9909 17.6275 99.3065 17.7093 99.5892 17.8624C99.8718 18.0155 100.113 18.2352 100.292 18.5026C100.641 19.0153 100.827 19.6221 100.824 20.2427C100.872 20.8926 100.52 21.7371 100.251 22.309C99.9568 22.9296 99.646 23.5454 99.3351 24.1563C98.8283 25.1541 98.3159 26.1496 97.7977 27.1425C97.312 28.0747 96.8263 29.0093 96.3405 29.9414C96.1705 30.2651 95.9981 30.5961 95.8548 30.9344C95.8451 30.9733 95.8062 31.0488 95.7722 31.1364ZM120.822 31.2264C120.84 31.2275 120.859 31.2275 120.877 31.2264C121.295 31.1841 121.688 31.0074 121.997 30.7227C122.403 30.3868 122.789 30.0314 123.163 29.6615C123.537 29.2916 123.852 28.9314 124.168 28.5347C124.391 28.2651 124.599 27.9831 124.79 27.6901C124.977 27.4176 125.346 26.8554 125.696 26.7921C125.716 26.7897 125.736 26.7897 125.757 26.7921C125.823 26.7881 125.889 26.7977 125.951 26.8204C126.014 26.8431 126.071 26.8783 126.119 26.9239C126.167 26.9695 126.206 27.0245 126.232 27.0856C126.258 27.1466 126.272 27.2124 126.271 27.2788C126.271 27.291 126.271 27.2983 126.271 27.308C126.242 27.6463 125.669 28.3838 125.468 28.6515C125.225 28.9728 124.967 29.2794 124.703 29.5836C124.438 29.8879 124.171 30.1848 123.894 30.4744C123.709 30.6691 123.512 30.8516 123.311 31.0269C123.068 31.2362 122.813 31.4358 122.553 31.628C121.988 32.0435 121.32 32.296 120.622 32.3582H120.583C120.016 32.38 119.46 32.1901 119.024 31.8252C118.826 31.6156 118.673 31.367 118.575 31.0952C118.477 30.8233 118.436 30.534 118.456 30.2456C118.424 29.5277 118.699 28.7172 118.966 28.0552C119.335 27.1669 119.748 26.2858 120.18 25.4145L119.913 25.4584C119.606 25.5018 119.296 25.5295 118.985 25.5411C118.65 25.5533 118.313 25.5533 117.978 25.5411C117.586 25.5245 117.196 25.4872 116.809 25.4292C116.637 25.43 116.465 25.4211 116.294 25.4024L116.02 25.3707C115.848 25.7188 115.675 26.0668 115.508 26.4173C115.265 26.9235 115.022 27.4346 114.779 27.9457C114.775 27.957 114.769 27.9676 114.762 27.9773C114.604 28.2402 114.461 28.5176 114.318 28.7902C114.131 29.152 113.952 29.5179 113.778 29.8879L113.237 31.0269C113.093 31.3287 112.945 31.6353 112.783 31.9225C112.754 31.9747 112.712 32.0181 112.66 32.0481C112.609 32.0781 112.551 32.0936 112.491 32.0929H110.009C109.953 32.0934 109.898 32.0796 109.848 32.0528C109.799 32.0259 109.757 31.987 109.727 31.9395C109.696 31.8928 109.677 31.8385 109.672 31.7822C109.668 31.7258 109.679 31.6693 109.703 31.6183C110.537 29.7654 111.384 27.9181 112.243 26.0765C112.855 24.7688 113.472 23.4626 114.094 22.1581C114.476 21.355 114.859 20.5518 115.243 19.7487C115.35 19.5296 115.454 19.3082 115.549 19.0843C115.589 19.0018 115.622 18.9164 115.648 18.8287C115.622 18.8068 115.59 18.7939 115.556 18.7922C115.445 18.8082 115.335 18.8376 115.231 18.8798C114.995 18.9731 114.77 19.0906 114.558 19.2303C114.216 19.4453 113.887 19.6802 113.572 19.9337C113.137 20.2864 112.72 20.6617 112.324 21.0581C112.03 21.3526 111.748 21.6568 111.464 21.961C111.32 22.1102 111.19 22.2732 111.078 22.4478V22.4599C110.932 22.679 110.709 22.9467 110.417 22.8907C110.324 22.879 110.235 22.8439 110.16 22.7885C110.095 22.742 110.043 22.6804 110.008 22.6092C109.973 22.5379 109.956 22.4591 109.958 22.3796C109.958 22.3458 109.963 22.3122 109.973 22.2798C110.128 21.952 110.334 21.6512 110.585 21.3891C111.027 20.8707 111.508 20.3717 111.984 19.885C112.984 18.8628 114.25 17.9063 115.707 17.7116C115.726 17.7093 115.746 17.7093 115.765 17.7116C116.087 17.7191 116.404 17.8025 116.688 17.955C116.951 18.0994 117.182 18.2966 117.366 18.5342C117.543 18.7821 117.68 19.0564 117.771 19.3471C117.868 19.6625 117.916 19.9907 117.914 20.3206C117.914 20.5847 117.887 20.8481 117.834 21.1067C117.77 21.4105 117.68 21.7084 117.567 21.9975C117.424 22.3796 117.261 22.7568 117.081 23.1292L116.571 24.205L117.018 24.239H117.035C117.491 24.2913 117.95 24.306 118.407 24.2828C119.058 24.2634 119.712 24.2025 120.35 24.1295C120.46 24.1295 120.571 24.1027 120.681 24.0979L120.829 24.076C121.271 23.1974 121.713 22.3188 122.148 21.4377C122.716 20.289 123.277 19.1362 123.831 17.9793C123.857 17.9218 123.9 17.8732 123.953 17.8395C124.006 17.8058 124.069 17.7884 124.132 17.7895H126.534C126.59 17.7885 126.646 17.8024 126.695 17.8297C126.745 17.857 126.786 17.8969 126.815 17.9452C126.846 17.9929 126.864 18.0476 126.868 18.1042C126.872 18.1609 126.861 18.2176 126.837 18.2689C126.143 19.7568 125.442 21.2414 124.734 22.7228C124.209 23.8228 123.681 24.9205 123.148 26.0157C122.769 26.7872 122.395 27.5636 122.016 28.3375C121.774 28.8438 121.531 29.3549 121.288 29.866C121.152 30.1556 121.013 30.4574 120.902 30.7592C120.857 30.873 120.83 30.9927 120.822 31.1145C120.822 31.1145 120.822 31.1388 120.822 31.151C120.818 31.1728 120.818 31.1949 120.822 31.2167V31.2264ZM139.891 31.9468C139.652 32.081 139.384 32.1546 139.109 32.161H139.088C138.247 32.1416 137.72 31.5477 137.409 30.8151C137.208 30.343 137.028 29.8587 136.858 29.3743C136.615 28.6953 136.389 28.0114 136.168 27.3275C135.943 26.6005 135.679 25.8863 135.376 25.1882C135.224 24.8102 135.017 24.4568 134.762 24.1392C134.359 23.7255 133.516 23.6817 132.919 23.706L129.761 31.8714C129.737 31.935 129.695 31.9897 129.639 32.028C129.582 32.0664 129.516 32.0864 129.448 32.0856H127.039C126.984 32.0865 126.93 32.0736 126.882 32.0481C126.833 32.0226 126.792 31.9852 126.762 31.9395C126.731 31.894 126.712 31.8416 126.706 31.7868C126.7 31.7321 126.708 31.6767 126.728 31.6256L132.29 17.5437C132.316 17.4824 132.36 17.4305 132.417 17.3949C132.473 17.3593 132.539 17.3416 132.605 17.3441L135.126 17.2906C135.182 17.2891 135.238 17.3018 135.288 17.3276C135.337 17.3534 135.38 17.3913 135.411 17.4379C135.442 17.4845 135.461 17.5383 135.466 17.5942C135.471 17.6501 135.462 17.7064 135.44 17.7578L133.39 22.5646C133.955 22.5692 134.518 22.4996 135.066 22.3577C135.671 22.1601 136.218 21.8127 136.654 21.3477C137.613 20.3063 138.506 19.2048 139.326 18.0499C139.989 17.0983 140.882 16.3462 142.075 16.244H142.101C142.457 16.2196 142.81 16.3222 143.097 16.5336C143.216 16.6339 143.311 16.7602 143.374 16.9027C143.437 17.0453 143.467 17.2004 143.462 17.3563C143.459 17.519 143.447 17.6815 143.428 17.843C143.398 18.0986 143.364 18.3541 143.33 18.6072C143.279 18.9772 143.185 19.6903 142.816 19.8825C142.741 19.9227 142.654 19.9323 142.573 19.9093C142.206 19.812 142.036 19.4712 141.953 19.1281C141.907 18.9382 141.693 18.8847 141.521 18.8603C140.737 19.0453 139.87 20.0578 139.408 20.6492C138.575 21.6932 137.51 22.5268 136.297 23.083C136.384 23.1219 136.469 23.1657 136.54 23.2095C136.926 23.4217 137.283 23.6835 137.601 23.9883L137.635 24.0249C138.466 25.0763 139.015 26.4343 139.408 27.7047C139.576 28.296 139.79 28.873 140.049 29.4303C140.133 29.6093 140.236 29.779 140.355 29.9365C140.796 29.5366 141.191 29.0893 141.533 28.6028C141.8 28.2426 142.072 27.8727 142.359 27.5393C142.514 27.3389 142.691 27.1561 142.886 26.9941C142.943 26.9537 143.011 26.9323 143.08 26.9332C143.222 26.9249 143.361 26.9681 143.474 27.0549C143.533 27.1091 143.579 27.176 143.61 27.2505C143.64 27.325 143.653 27.4054 143.649 27.4857C143.649 27.5309 143.64 27.5758 143.622 27.6171C143.502 27.8496 143.359 28.069 143.194 28.2718C142.901 28.6685 142.59 29.0531 142.276 29.4352C141.963 29.8173 141.594 30.2602 141.244 30.6521C141.001 30.932 140.758 31.2143 140.496 31.482C140.317 31.6647 140.114 31.8212 139.891 31.9468ZM146.427 31.1291C146.913 30.9587 147.585 30.4233 147.918 30.1556C148.593 29.5885 149.264 29.0044 149.895 28.3862C151.286 26.9966 152.584 25.5169 153.781 23.9567C155.235 22.0918 156.52 20.1003 157.621 18.0061C157.648 17.951 157.69 17.9047 157.743 17.8728C157.795 17.841 157.856 17.8247 157.917 17.826H160.312C160.368 17.8246 160.425 17.8382 160.475 17.8656C160.524 17.8929 160.566 17.933 160.596 17.9817C160.627 18.0294 160.645 18.0841 160.649 18.1408C160.652 18.1974 160.642 18.2541 160.618 18.3054C159.646 20.3863 158.663 22.4672 157.66 24.5335C157.038 25.8169 156.418 27.0995 155.799 28.3813C155.471 29.0604 155.143 29.7418 154.828 30.4282C154.71 30.6518 154.628 30.8924 154.585 31.1413C154.586 31.1583 154.586 31.1754 154.585 31.1924C154.584 31.2053 154.584 31.2184 154.585 31.2313C154.603 31.2325 154.62 31.2325 154.638 31.2313C155.056 31.1793 155.448 30.9991 155.76 30.7153C156.163 30.3844 156.552 30.0339 156.926 29.6688C157.3 29.3038 157.609 28.9387 157.932 28.5395C158.159 28.2698 158.371 27.9879 158.568 27.695C158.698 27.4845 158.844 27.2844 159.005 27.0963C159.123 26.9363 159.296 26.8255 159.491 26.7848H159.522C159.661 26.7775 159.797 26.8256 159.901 26.9186C159.989 27.0111 160.037 27.1343 160.035 27.2618C160.036 27.2788 160.036 27.2959 160.035 27.3129C159.981 27.6585 159.442 28.357 159.233 28.6345C158.749 29.2759 158.223 29.8848 157.66 30.4574C157.25 30.8801 156.804 31.2654 156.326 31.6085C155.762 32.0366 155.088 32.2942 154.383 32.3509H154.349C153.781 32.3728 153.224 32.1829 152.788 31.8179C152.589 31.6072 152.437 31.3577 152.339 31.085C152.242 30.8123 152.202 30.5224 152.222 30.2335C152.199 29.7589 152.257 29.2839 152.394 28.8292C152.588 28.2276 152.837 27.6451 153.137 27.089C153.451 26.4781 153.771 25.8721 154.094 25.2637L153.815 25.619C152.829 26.8457 151.775 28.0158 150.658 29.1236C149.903 29.8998 149.091 30.6182 148.229 31.2727C147.634 31.7181 146.816 32.2462 146.043 32.3119H145.995C145.735 32.3053 145.48 32.2377 145.251 32.1147C145.022 31.9918 144.825 31.8167 144.676 31.6037C144.363 31.1044 144.21 30.5207 144.239 29.9317C144.233 29.3722 144.352 28.8185 144.586 28.3108C144.717 28.026 144.868 27.7486 145.018 27.4735C145.222 27.1012 145.434 26.7312 145.647 26.3662C146.179 25.2004 146.726 24.037 147.299 22.8907L148.423 20.6443C148.642 20.2046 148.858 19.7641 149.072 19.3228C149.15 19.1729 149.214 19.0156 149.261 18.853C149.261 18.8199 149.249 18.788 149.227 18.763C149.215 18.7506 149.2 18.7411 149.184 18.7352C149.167 18.7293 149.15 18.7272 149.132 18.7289C148.864 18.7726 148.613 18.8877 148.404 19.0624C148.153 19.2417 147.918 19.4411 147.7 19.6586C147.103 20.2863 146.543 20.9486 146.024 21.6422C145.808 21.9294 145.225 22.7349 144.877 22.8591C144.843 22.8708 144.807 22.8766 144.771 22.8761C144.693 22.8819 144.614 22.8658 144.545 22.8297C144.476 22.7936 144.417 22.7389 144.377 22.6717C144.332 22.5881 144.31 22.494 144.314 22.3991C144.312 22.374 144.312 22.3487 144.314 22.3236C144.416 21.8831 145.086 21.0824 145.373 20.7319C145.885 20.1089 146.42 19.4834 146.993 18.9139C147.327 18.5373 147.712 18.2096 148.137 17.9404C148.491 17.732 148.894 17.6227 149.305 17.624H149.319C149.641 17.6277 149.956 17.7096 150.239 17.8627C150.521 18.0157 150.763 18.2353 150.942 18.5026C151.29 19.0155 151.475 19.6223 151.471 20.2427C151.522 20.8926 151.17 21.7371 150.898 22.309C150.607 22.9296 150.296 23.5454 149.985 24.1563C149.477 25.1541 148.964 26.1496 148.448 27.1425C147.962 28.0747 147.476 29.0093 146.99 29.9414C146.818 30.2651 146.648 30.5961 146.505 30.9344C146.505 30.9733 146.466 31.0488 146.429 31.1364L146.427 31.1291ZM17.7878 24.8231C19.8826 24.8196 21.9567 24.4063 23.8934 23.6062C24.9621 23.1463 26.2468 22.4283 26.8564 21.3574H21.6542C19.7358 21.3708 17.8221 21.5508 15.9347 21.8953C15.0774 22.0437 13.0203 22.4648 12.7459 23.5089C12.8284 23.9348 13.7611 24.239 14.0816 24.3461C15.289 24.6763 16.5363 24.8368 17.7878 24.8231ZM71.0387 18.8555C70.9462 18.8428 70.8528 18.8371 70.7594 18.8384C67.6264 19.2133 65.3824 21.243 63.7333 23.818C62.519 25.7236 60.8189 28.671 60.7023 30.9904C60.6992 31.0471 60.6992 31.104 60.7023 31.1607C61.137 31.0755 61.6738 30.6569 61.9749 30.3916C62.4825 29.9511 62.9755 29.4936 63.4491 29.0166C64.9227 27.4939 66.2969 25.8777 67.5633 24.1782C68.863 22.5007 70.0252 20.7207 71.0387 18.8555Z" fill="white"/>
<path fill-rule="evenodd" clip-rule="evenodd" d="M41.8942 4.6884C43.2538 4.65427 44.5743 5.14679 45.5809 6.06349C46.5888 6.97373 47.1182 8.31719 47.1668 10.0841C47.1321 10.9231 46.9834 11.7533 46.7248 12.552C46.4357 13.4646 46.065 14.3492 45.6173 15.1951C45.151 16.0923 44.6475 17.0156 44.1067 17.9647C43.5651 18.9139 43.0235 19.8874 42.4843 20.8731C42.0666 21.5302 41.5129 22.3869 40.8498 23.4335C40.1868 24.48 39.4849 25.5582 38.7855 26.6607C38.086 27.7632 37.4934 28.7416 37.015 29.5812C36.5365 30.4209 36.2864 30.9733 36.2864 31.2362C36.2864 31.409 36.3374 31.5088 36.4224 31.5453C36.5247 31.5832 36.6347 31.5957 36.743 31.5818C37.4376 31.6305 38.5798 30.7503 40.1698 28.9411C41.7598 27.132 43.9456 24.1044 46.7272 19.8582C48.2977 17.4991 49.6311 15.4871 50.7272 13.8224C51.8233 12.1577 52.7365 10.7826 53.4667 9.69714C54.1953 8.6141 54.8122 7.76228 55.281 7.13436C55.6254 6.64842 56.0158 6.19689 56.4467 5.78604C56.6117 5.60565 56.8024 5.45065 57.0126 5.32605C57.17 5.23554 57.3485 5.1885 57.5299 5.18976C58.0156 5.2141 58.3775 5.49155 58.6301 6.01968C58.8935 6.59408 59.0255 7.22024 59.0162 7.85233C59.0181 8.38431 58.9437 8.91379 58.7952 9.42456C58.5887 10.0641 58.3405 10.6893 58.0521 11.2961C57.7137 12.0344 57.2093 13.0444 56.539 14.3262C55.8687 15.608 55.0211 17.2946 53.9962 19.3861C53.266 20.8658 52.5835 22.2149 51.9488 23.4335C51.3222 24.6504 50.7709 25.7285 50.3022 26.6655C49.8335 27.6025 49.474 28.3838 49.2142 29.0239C49.0031 29.4849 48.8725 29.9789 48.828 30.4842C48.7995 30.7629 48.8815 31.0418 49.0563 31.2605C49.1394 31.3442 49.2394 31.4091 49.3495 31.4511C49.4597 31.4931 49.5774 31.5111 49.695 31.5039C50.2583 31.4953 50.8095 31.3384 51.2931 31.0488C51.9197 30.7146 52.7244 30.0493 53.7072 29.0531C55.1207 27.5928 56.0484 26.5341 56.4904 25.8697C56.9325 25.2053 57.219 24.8718 57.4012 24.8962C57.4562 24.8931 57.5109 24.9058 57.559 24.9327C57.5765 24.9439 57.5908 24.9594 57.6006 24.9777C57.6104 24.996 57.6153 25.0166 57.6149 25.0373C57.5785 25.2345 57.2093 25.7675 56.5147 26.6631C55.7779 27.6037 54.9839 28.4978 54.1371 29.3403C53.5011 29.9865 52.7939 30.558 52.029 31.0439C51.2396 31.568 50.3286 31.879 49.3842 31.9469C49.0532 31.96 48.7236 31.8976 48.4203 31.7644C48.1169 31.6311 47.8477 31.4306 47.6331 31.1778C47.2105 30.6789 46.9944 29.922 46.9822 28.8998C46.9912 28.3524 47.0846 27.8098 47.2591 27.291C47.4903 26.6208 47.7737 25.9698 48.1067 25.344C48.488 24.6139 48.9227 23.7669 49.4279 22.7934C49.933 21.8199 50.4916 20.693 51.1061 19.4201C51.9901 17.5413 52.8207 15.8279 53.5809 14.2775C54.3411 12.7272 55.0187 11.357 55.604 10.2009C56.1893 9.04489 56.6532 8.0884 56.9932 7.35583C57.2183 6.92177 57.399 6.46594 57.5323 5.99534C57.536 5.9122 57.5219 5.82924 57.491 5.75197C57.4696 5.72188 57.4405 5.6981 57.4067 5.68312C57.373 5.66814 57.3358 5.6625 57.2992 5.66678C57.2026 5.68264 57.1157 5.73488 57.0563 5.81281L56.6216 6.26306C56.2031 6.67434 55.8242 7.12413 55.4898 7.60651C54.9879 8.28798 54.3613 9.18686 53.61 10.3032C52.8588 11.4195 51.9893 12.7215 51.0017 14.2094C50.018 15.6989 48.93 17.3879 47.7278 19.2595C44.7325 23.7864 42.3621 27.0501 40.6167 29.0507C38.8713 31.0512 37.5663 32.0402 36.7017 32.0175C36.4876 32.0189 36.2762 31.9701 36.0843 31.875C35.8925 31.7799 35.7254 31.6412 35.5966 31.4698C35.327 31.1121 35.191 30.5523 35.191 29.7832C35.1961 29.1427 35.3086 28.5075 35.5238 27.9043C35.7951 27.1694 36.1324 26.4607 36.5317 25.7869C36.9866 25.0098 37.5331 24.1109 38.171 23.0903C38.8098 22.0681 39.5359 20.8731 40.3398 19.5175C41.0344 18.3347 41.6804 17.2395 42.2827 16.2173C42.8851 15.1951 43.3829 14.2289 43.8249 13.3284C44.2419 12.5035 44.5833 11.6425 44.845 10.7558C45.0729 9.97849 45.2026 9.17556 45.2311 8.36586C45.2518 7.85403 45.1692 7.34328 44.9883 6.86421C44.8685 6.59823 44.7203 6.34608 44.5463 6.11217C43.0241 9.09898 41.3527 12.007 39.5384 14.8251C37.7089 17.6136 35.5925 20.2019 33.2238 22.5476C29.4869 26.2064 25.699 29.0677 21.8601 31.1315C18.0212 33.1954 14.8672 34.2549 12.398 34.3101C10.0568 34.2468 8.1948 33.5053 6.81208 32.0856C5.42936 30.6659 4.72019 28.8811 4.68457 26.7313C4.96144 22.7982 6.79508 19.8582 10.1855 17.9112C13.5759 15.9642 16.823 14.9906 19.9269 14.9906C21.2405 14.9779 22.5479 15.1734 23.8006 15.5699C24.8961 15.8987 25.8961 16.4882 26.715 17.2881C27.1476 17.6975 27.473 18.2074 27.6622 18.7728C27.8269 19.3467 27.9015 19.9428 27.8832 20.5397H30.6591C30.7615 20.5317 30.8644 20.5467 30.9603 20.5835C30.9932 20.6019 31.0196 20.63 31.0361 20.6639C31.0526 20.6979 31.0584 20.736 31.0526 20.7733C31.0526 20.878 31.0162 20.9534 30.9433 20.9778C30.8037 21.0179 30.6584 21.0343 30.5134 21.0264H27.735C27.4209 22.3018 26.4219 23.513 24.7381 24.6601C23.0542 25.8072 20.9445 26.4189 18.409 26.4952C16.8299 26.5136 15.2664 26.1812 13.8309 25.5217C12.5356 24.9019 11.8597 24.1101 11.803 23.1463C11.9487 22 13.0173 21.2747 15.0161 20.9559C17.1051 20.6353 19.2178 20.4969 21.3306 20.5421H27.4436C27.43 20.1885 27.3696 19.8382 27.2639 19.5005C27.165 19.1891 26.9992 18.9034 26.7781 18.6632C26.2123 18.1351 25.2797 17.6897 23.9755 17.2906C22.609 16.8993 21.195 16.7002 19.7739 16.6992C16.3921 16.7436 13.0729 17.6195 10.1078 19.2498C7.19338 20.8723 5.6447 22.7812 5.46174 24.9765C5.52327 26.6996 6.45911 28.241 8.26928 29.6007C10.0794 30.9604 12.4272 31.6792 15.3124 31.757C17.8657 31.7458 20.3762 31.0985 22.6178 29.8733C24.9834 28.6174 27.378 26.7637 29.8018 24.3121C32.6152 21.4777 35.2267 18.4491 37.6173 15.2486C40.1269 11.9176 42.3127 8.76013 44.1747 5.77631C43.8614 5.64245 43.5359 5.51102 43.2032 5.38933C42.7816 5.2466 42.3391 5.17584 41.8942 5.18002C40.2961 5.26602 38.987 5.61648 37.967 6.23142C36.947 6.84636 36.3285 7.20981 36.1115 7.32176C36.0386 7.32176 35.9876 7.30959 35.9706 7.28039C35.9472 7.23119 35.9379 7.17639 35.9439 7.12219C35.9974 6.89341 36.607 6.45046 37.763 5.79821C39.0357 5.11265 40.4499 4.73273 41.8942 4.6884ZM17.7872 25.159C19.9274 25.1578 22.0464 24.7353 24.024 23.9154C25.8552 23.1268 26.9741 22.1622 27.3804 21.0216H21.6537C19.7153 21.0272 17.7815 21.2089 15.8759 21.5643C13.7508 21.9318 12.5947 22.5792 12.4053 23.4919C12.4344 23.9592 12.9639 24.3534 13.9839 24.6674C15.2226 25.0081 16.5028 25.1736 17.7872 25.159ZM74.2416 18.2373C73.8651 19.0794 73.3818 20.1454 72.7722 21.4451C72.1626 22.7447 71.5579 24.0809 70.9483 25.4779C70.3387 26.8748 69.8117 28.0966 69.3794 29.148C68.9471 30.1994 68.7358 30.8979 68.7358 31.2605C68.731 31.3367 68.7452 31.4128 68.7771 31.482C68.7976 31.5131 68.8265 31.5379 68.8605 31.5534C68.8944 31.5688 68.932 31.5745 68.9689 31.5696C69.2899 31.4431 69.5853 31.2592 69.8408 31.0269C70.2521 30.6988 70.646 30.3495 71.0211 29.9804C72.1092 28.8332 72.7827 28.0041 73.0418 27.493C73.3017 26.9819 73.4911 26.7337 73.615 26.741C73.666 26.7395 73.7164 26.7521 73.7607 26.7775C73.783 26.7903 73.8013 26.8093 73.8133 26.8321C73.8254 26.8549 73.8307 26.8807 73.8287 26.9065C73.7922 27.1231 73.4911 27.6025 72.9374 28.3546C72.3976 29.0779 71.811 29.7649 71.1814 30.4111C70.7852 30.8043 70.3526 31.1588 69.8894 31.4698C69.5068 31.7565 69.0598 31.9446 68.5876 32.0175C68.3894 32.0074 68.1954 31.9563 68.0177 31.8675C67.8401 31.7788 67.6827 31.6541 67.5554 31.5015C67.247 31.1754 67.0891 30.6521 67.0697 29.9366C67.0871 29.3482 67.1986 28.7664 67.4 28.2134C67.6513 27.4907 67.949 26.7851 68.2913 26.1009C68.667 25.348 69.0539 24.5473 69.4522 23.6987C69.8578 22.8493 70.2585 21.9951 70.652 21.1238C70.21 21.7103 69.7534 22.3407 69.2992 22.9735C68.8451 23.6063 68.3642 24.278 67.8615 24.9546C67.3587 25.6312 66.822 26.3102 66.2585 27.0063C65.6951 27.7023 65.0952 28.3862 64.4565 29.0677C63.7906 29.7841 63.0721 30.4496 62.3071 31.0585C61.7308 31.5597 61.014 31.87 60.2549 31.9469C59.9998 31.9461 59.7503 31.8727 59.5353 31.7352C59.3203 31.5978 59.1487 31.4019 59.0405 31.1705C58.7962 30.632 58.683 30.0431 58.7102 29.4522C58.7961 27.0947 59.9294 24.6439 62.1104 22.0997C63.1239 20.8739 64.3822 19.874 65.8042 19.1644C67.2263 18.4548 68.7808 18.0511 70.3678 17.9793C70.652 17.9797 70.9356 18.005 71.2154 18.0548C71.4721 18.0981 71.7254 18.1599 71.9732 18.2398L74.2416 18.2373ZM71.5433 18.6121C71.4392 18.6078 71.3362 18.5889 71.2373 18.5561C71.0747 18.5149 70.9071 18.4969 70.7394 18.5026C67.8558 18.8401 65.4271 20.5519 63.4534 23.6379C61.4797 26.7239 60.4508 29.1691 60.3666 30.9734C60.3581 31.106 60.3788 31.239 60.4273 31.3628C60.4493 31.4072 60.4844 31.4439 60.5278 31.4678C60.5712 31.4917 60.6209 31.5018 60.6702 31.4966C61.0758 31.4552 61.5858 31.1656 62.2002 30.6351C62.8147 30.1045 63.3077 29.6445 63.6939 29.2429C65.1795 27.7134 66.5628 26.0874 67.8347 24.3753C69.2385 22.5679 70.4795 20.6393 71.5433 18.6121ZM76.5196 29.9998C76.4351 30.1938 76.3937 30.4039 76.3982 30.6156C76.4024 30.7738 76.4587 30.9261 76.5585 31.0488C76.5585 31.134 76.6192 31.2143 76.7285 31.2922C76.8628 31.3721 77.0168 31.4126 77.173 31.409C77.4984 31.409 77.8603 31.2046 78.2731 30.8419C78.7317 30.4155 79.1549 29.9524 79.5385 29.4571C79.9732 28.9095 80.4225 28.2986 80.8718 27.6464C81.3211 26.9941 81.7437 26.3589 82.1371 25.7626C82.346 25.4486 82.6229 25.0325 82.9969 24.5189C83.3709 24.0054 83.7716 23.4408 84.2112 22.8494C84.6508 22.2579 85.1317 21.6544 85.6296 21.063C86.0947 20.5017 86.5892 19.9655 87.111 19.4566C87.5302 19.0346 87.9917 18.657 88.4881 18.3298C88.918 18.0523 89.292 17.9404 89.6004 18.0037C89.8096 18.0072 90.0149 18.0602 90.1998 18.1583C90.3846 18.2564 90.5438 18.3969 90.6642 18.5683C90.9378 19.0087 91.07 19.5227 91.0431 20.0408C91.0497 20.5517 90.9383 21.0574 90.7176 21.5181C90.5952 21.8 90.4582 22.0754 90.3072 22.3431C90.1226 22.6571 89.9137 23.027 89.6733 23.4529C89.0402 24.8451 88.4913 26.0027 88.0267 26.926C87.5652 27.8435 87.1839 28.5955 86.8828 29.1675C86.5816 29.7394 86.3606 30.1824 86.227 30.4793C86.1209 30.672 86.0502 30.8822 86.0182 31.0999C86.0185 31.2217 86.0645 31.3389 86.1469 31.4285C86.1931 31.4759 86.2488 31.513 86.3103 31.5373C86.3718 31.5617 86.4378 31.5727 86.5039 31.5696C86.8376 31.5343 87.1522 31.3966 87.4049 31.1754C87.5725 31.0512 87.7182 30.932 87.8372 30.8346C87.9511 30.7427 88.0598 30.6444 88.1627 30.5401C88.476 30.2018 88.7698 29.8684 89.054 29.5423C89.3381 29.2162 89.6004 28.8779 89.853 28.5396C90.3679 27.8557 90.7006 27.4857 90.8415 27.4371C90.903 27.4371 90.9394 27.4492 90.9508 27.4736C90.9655 27.5089 90.9722 27.5472 90.9702 27.5855C90.9216 27.7997 90.5889 28.2864 89.9817 29.0458C89.6806 29.4109 89.3964 29.737 89.1317 30.0315C88.867 30.326 88.6168 30.5912 88.3764 30.8322C88.0659 31.1864 87.7059 31.4938 87.3078 31.7449C87.0037 31.9206 86.6581 32.0114 86.3072 32.0077C86.0391 32.0109 85.7745 31.9479 85.5364 31.8244C85.2984 31.7009 85.0944 31.5206 84.9423 31.2995C84.6279 30.8364 84.4588 30.2898 84.4565 29.7297C84.4249 29.2989 84.6047 28.6588 84.9981 27.8216C85.1997 27.3957 85.5081 26.7872 85.9064 25.9865C86.3047 25.1858 86.822 24.1928 87.4486 23.0051L88.2039 21.5327C88.4468 21.0727 88.6727 20.6273 88.8864 20.2038C89.3317 19.378 89.5656 18.8604 89.5883 18.6511C89.5883 18.5221 89.5009 18.4539 89.3163 18.4539C88.9981 18.4783 88.5877 18.6973 88.1311 19.1086C87.5709 19.6142 87.0474 20.1591 86.5646 20.7393C85.9866 21.4159 85.36 22.2101 84.6848 23.1219C84.0096 24.0338 83.3045 24.9984 82.5695 26.0157C82.2197 26.5025 81.8578 27.0209 81.4887 27.5928C81.1195 28.1648 80.7139 28.727 80.2744 29.2794C79.852 29.8208 79.3875 30.3278 78.8852 30.7957C78.4096 31.2419 77.8607 31.6025 77.2628 31.8617C76.5543 31.8864 75.8599 31.6587 75.3029 31.2192C75.0682 31.019 74.8769 30.7727 74.7407 30.4956C74.6046 30.2186 74.5264 29.9165 74.5111 29.608C74.3946 28.929 74.448 28.3911 74.6836 27.9555C74.8674 27.5695 75.1928 27.2696 75.5919 27.1182C75.7396 27.0835 75.893 27.0798 76.0422 27.1075C76.1914 27.1351 76.3333 27.1935 76.4589 27.2789C76.7402 27.4517 76.9498 27.7205 77.0491 28.0358C77.1133 28.3791 77.1 28.7326 77.0102 29.0701C76.9091 29.4092 76.7424 29.7251 76.5196 29.9998ZM98.6666 17.9307C98.9351 17.9326 99.1991 18.0001 99.4356 18.1273C99.6722 18.2546 99.8742 18.4377 100.024 18.6608C100.337 19.1221 100.502 19.668 100.498 20.2257C100.534 20.6565 100.357 21.2966 99.9587 22.1338C99.5604 22.971 98.7444 24.5846 97.513 26.9576C96.9836 27.9928 96.4978 28.9241 96.0558 29.7516C95.6211 30.5839 95.3879 31.0999 95.3612 31.3043C95.3573 31.3355 95.3622 31.3672 95.3756 31.3956C95.3889 31.4241 95.41 31.4481 95.4365 31.465C95.4985 31.4917 95.5658 31.5042 95.6332 31.5015C96.0558 31.4406 96.6654 31.0756 97.4693 30.399C98.2732 29.7224 98.9265 29.131 99.4681 28.6126C100.871 27.2141 102.182 25.7264 103.393 24.1587C104.855 22.2779 106.146 20.2702 107.252 18.1594H109.649C108.469 20.6792 107.484 22.7544 106.693 24.3851C105.899 26.0157 105.28 27.3056 104.831 28.2329C104.381 29.1602 104.056 29.8538 103.859 30.2846C103.7 30.5607 103.609 30.8712 103.594 31.19C103.594 31.2908 103.634 31.3878 103.704 31.4601C103.744 31.4967 103.792 31.5248 103.844 31.5427C103.895 31.5607 103.95 31.5682 104.005 31.5648C104.499 31.5157 104.964 31.3083 105.331 30.9734C105.78 30.6083 106.174 30.2432 106.523 29.9025C107.14 29.2753 107.703 28.5971 108.206 27.8751C108.527 27.3884 108.748 27.1304 108.884 27.1182C108.934 27.1126 108.984 27.1256 109.025 27.1547C109.038 27.1686 109.048 27.1852 109.054 27.2032C109.06 27.2212 109.063 27.2404 109.061 27.2594C109.037 27.42 108.792 27.807 108.333 28.43C107.855 29.06 107.338 29.6583 106.783 30.2213C106.387 30.6307 105.956 31.0038 105.494 31.336C104.981 31.7283 104.366 31.9634 103.723 32.0126C103.237 32.0367 102.759 31.8788 102.382 31.5696C102.076 31.2873 101.923 30.8379 101.923 30.2213C101.902 29.7823 101.956 29.3428 102.081 28.9217C102.278 28.3423 102.522 27.7798 102.81 27.2399C103.162 26.5706 103.621 25.6896 104.199 24.6066C104.777 23.5235 105.508 22.1363 106.385 20.4496C105.341 22.1786 104.181 23.8342 102.912 25.4048C101.931 26.6209 100.885 27.7827 99.779 28.8852C99.0337 29.648 98.2342 30.3557 97.3867 31.0026C96.5828 31.6013 95.9125 31.9274 95.3831 31.9761C95.1741 31.9721 94.969 31.9186 94.7846 31.8201C94.6001 31.7215 94.4415 31.5807 94.3218 31.409C94.0467 30.9675 93.9152 30.4513 93.9453 29.9317C93.9382 29.4217 94.0461 28.9167 94.261 28.4544C94.4699 28.0041 94.8245 27.364 95.3175 26.5195C95.949 25.1347 96.5027 23.9762 96.969 23.0416C97.4353 22.107 97.8118 21.3599 98.0935 20.7928C98.3752 20.2257 98.5913 19.7828 98.7444 19.4688C98.8518 19.2797 98.9272 19.0741 98.9678 18.8604C98.9703 18.7397 98.9259 18.6227 98.8439 18.5342C98.7989 18.4835 98.7429 18.4437 98.6802 18.418C98.6174 18.3923 98.5497 18.3812 98.4821 18.3858C98.1474 18.4315 97.832 18.5697 97.5713 18.7849C97.3089 18.9787 97.0605 19.191 96.8281 19.4201C96.222 20.0574 95.6543 20.7304 95.1281 21.4353C94.6181 22.1119 94.2926 22.4746 94.1445 22.5232C94.0838 22.5232 94.0522 22.5111 94.04 22.4867C94.0257 22.4538 94.0199 22.4178 94.023 22.3821C94.0789 22.1387 94.4092 21.6519 95.0115 20.9218C95.5146 20.2944 96.0505 19.694 96.6169 19.1232C96.9276 18.7665 97.2874 18.4559 97.6855 18.2008C97.9837 18.0284 98.3223 17.9385 98.6666 17.9404V17.9307ZM126.536 18.1521C125.742 19.8542 125.041 21.3388 124.432 22.606C123.824 23.8732 123.296 24.9692 122.849 25.894L121.717 28.2159C121.408 28.8438 121.165 29.3549 120.989 29.7492C120.799 30.1483 120.67 30.4574 120.59 30.6716C120.524 30.832 120.49 31.0041 120.491 31.1778C120.491 31.4212 120.627 31.5599 120.891 31.5599C121.385 31.519 121.851 31.3153 122.217 30.9807C122.667 30.6034 123.06 30.2505 123.41 29.8976C123.815 29.4717 124.16 29.0896 124.437 28.744C124.669 28.4656 124.884 28.1739 125.081 27.8703C125.409 27.3835 125.635 27.1401 125.771 27.1134C125.907 27.0866 125.948 27.162 125.948 27.2594C125.948 27.403 125.69 27.7899 125.219 28.43C124.976 28.744 124.734 29.0458 124.469 29.3427C124.204 29.6396 123.947 29.9341 123.67 30.2237C123.509 30.3892 123.325 30.5669 123.111 30.7519C122.897 30.9368 122.65 31.134 122.383 31.336C121.868 31.7185 121.258 31.951 120.619 32.0077C120.133 32.0318 119.655 31.8739 119.279 31.5648C118.973 31.2824 118.82 30.8346 118.82 30.2237C118.793 29.7005 118.953 29.0214 119.305 28.1794C119.658 27.3373 120.155 26.2567 120.799 24.9449C120.474 25.0203 120.172 25.0738 119.883 25.1176C119.588 25.1606 119.29 25.1874 118.992 25.198C118.686 25.2101 118.361 25.2101 118.021 25.198C117.634 25.1826 117.248 25.1452 116.865 25.086C116.696 25.0874 116.527 25.0793 116.359 25.0617C116.194 25.0446 116.029 25.0203 115.857 25.0008C115.665 25.3829 115.458 25.8015 115.235 26.264C115.012 26.7264 114.776 27.2375 114.506 27.7973C114.383 27.9993 114.237 28.284 114.052 28.6272C113.868 28.9703 113.688 29.3573 113.503 29.737C113.319 30.1167 113.141 30.5061 112.964 30.876C112.787 31.2459 112.644 31.5331 112.522 31.7497H110.038C110.998 29.6177 111.844 27.7721 112.576 26.2129C113.304 24.6479 113.924 23.3483 114.426 22.2969C114.929 21.2455 115.305 20.4496 115.575 19.8899C115.752 19.5561 115.9 19.2076 116.017 18.8482C116.015 18.7899 115.998 18.733 115.969 18.6828C115.939 18.6327 115.897 18.5908 115.847 18.561C115.762 18.4959 115.658 18.4593 115.551 18.4564C115.398 18.4702 115.249 18.508 115.109 18.5683C114.853 18.6692 114.609 18.7973 114.38 18.9504C114.027 19.1745 113.686 19.4183 113.36 19.6806C112.979 19.9897 112.549 20.3718 112.083 20.8317C111.721 21.2017 111.437 21.5108 111.216 21.7444C111.057 21.9097 110.913 22.0889 110.786 22.2798C110.645 22.4965 110.543 22.5889 110.46 22.5622C110.418 22.5599 110.378 22.5455 110.344 22.5208C110.323 22.5051 110.306 22.4844 110.296 22.4605C110.285 22.4367 110.281 22.4105 110.283 22.3845C110.368 22.107 111.012 21.3574 112.211 20.1235C113.411 18.8896 114.584 18.2032 115.74 18.0499C116.011 18.0566 116.276 18.1284 116.512 18.2592C116.736 18.3805 116.933 18.5461 117.09 18.746C117.247 18.9637 117.368 19.2053 117.448 19.4615C117.535 19.7469 117.579 20.044 117.576 20.3426C117.577 20.5878 117.552 20.8324 117.503 21.0727C117.442 21.3571 117.361 21.6369 117.261 21.9099C117.137 22.2287 116.984 22.5987 116.794 23.0246C116.605 23.4505 116.357 23.947 116.066 24.5384L116.52 24.5749L117.005 24.6139C117.775 24.7112 118.905 24.6747 120.406 24.5019C120.51 24.5019 120.619 24.4776 120.724 24.4703C120.84 24.458 120.955 24.4393 121.069 24.4143C121.486 23.5844 121.955 22.6546 122.465 21.6252C122.975 20.5957 123.534 19.4347 124.148 18.1643L126.536 18.1521ZM135.118 17.6118L132.87 22.8834C133.634 22.9262 134.4 22.8532 135.143 22.6668C135.808 22.4574 136.408 22.0773 136.882 21.5643C137.853 20.5105 138.757 19.396 139.587 18.2276C140.316 17.1932 141.142 16.6383 142.086 16.5653C142.364 16.5394 142.641 16.6137 142.868 16.7746C142.95 16.8438 143.014 16.9311 143.056 17.0295C143.099 17.1279 143.117 17.2348 143.111 17.3417C143.09 17.7436 143.047 18.1442 142.982 18.5415C142.902 19.15 142.786 19.4883 142.645 19.5637C142.46 19.5151 142.336 19.335 142.264 19.0283C142.191 18.7216 141.931 18.5415 141.489 18.4977C140.819 18.6275 140.032 19.2684 139.128 20.4204C138.175 21.6123 136.916 22.5211 135.485 23.0489V23.1536C135.802 23.2137 136.106 23.3281 136.384 23.4919C136.745 23.689 137.078 23.9346 137.372 24.222C138.05 25.0763 138.613 26.2664 139.087 27.7924C139.561 29.3184 139.966 30.158 140.328 30.3284C140.652 30.1937 141.144 29.681 141.805 28.7902C142.46 27.9043 142.89 27.3932 143.082 27.257C143.145 27.25 143.207 27.2655 143.259 27.3008C143.28 27.324 143.296 27.3514 143.306 27.3812C143.315 27.4109 143.319 27.4424 143.315 27.4736C143.228 27.6756 142.798 28.2548 142.018 29.2089C141.239 30.1629 140.649 30.8395 140.255 31.2484C140.101 31.4081 139.925 31.545 139.733 31.6548C139.539 31.7622 139.321 31.8207 139.099 31.8252C138.504 31.8252 138.043 31.4333 137.724 30.6862C137.406 29.939 136.996 28.7902 136.493 27.2253C135.917 25.4405 135.421 24.3348 135.007 23.9081C134.596 23.4821 133.822 23.3093 132.69 23.3824L129.448 31.7595H127.038L132.605 17.6775L135.118 17.6118ZM149.326 17.9307C149.595 17.9328 149.858 18.0004 150.095 18.1276C150.332 18.2548 150.534 18.4378 150.684 18.6608C150.997 19.1221 151.162 19.668 151.157 20.2257C151.194 20.6565 151.017 21.2966 150.616 22.1338C150.215 22.971 149.401 24.5846 148.17 26.9576C147.643 27.992 147.157 28.9217 146.713 29.7516C146.268 30.5815 146.043 31.0999 146.018 31.3043C146.014 31.3356 146.018 31.3675 146.032 31.396C146.045 31.4246 146.067 31.4486 146.094 31.465C146.156 31.4917 146.223 31.5042 146.29 31.5015C146.713 31.4406 147.323 31.0756 148.126 30.399C148.93 29.7224 149.584 29.131 150.123 28.6126C151.527 27.2143 152.84 25.7266 154.052 24.1587C155.513 22.2773 156.805 20.2697 157.912 18.1594H160.306C159.129 20.6792 158.144 22.7544 157.35 24.3851C156.559 26.0157 155.937 27.3056 155.49 28.2329C155.043 29.1602 154.715 29.8538 154.519 30.2846C154.359 30.5607 154.268 30.8712 154.254 31.19C154.251 31.2405 154.258 31.2912 154.276 31.3388C154.293 31.3865 154.319 31.4302 154.354 31.4674C154.394 31.5041 154.442 31.5323 154.494 31.5502C154.545 31.5682 154.6 31.5756 154.655 31.5721C155.149 31.523 155.614 31.3156 155.981 30.9807C156.43 30.6156 156.823 30.2505 157.173 29.9098C157.789 29.282 158.352 28.6039 158.856 27.8824C159.177 27.3957 159.398 27.1377 159.534 27.1255C159.584 27.1204 159.634 27.1333 159.675 27.162C159.688 27.1759 159.698 27.1925 159.704 27.2105C159.71 27.2285 159.713 27.2477 159.711 27.2667C159.687 27.4273 159.442 27.8143 158.983 28.4373C158.506 29.0673 157.989 29.6656 157.436 30.2286C157.039 30.6386 156.607 31.0117 156.143 31.3433C155.632 31.7356 155.018 31.9706 154.375 32.0199C153.889 32.044 153.411 31.8861 153.035 31.5769C152.729 31.2946 152.573 30.8468 152.573 30.2286C152.553 29.7894 152.607 29.35 152.734 28.929C152.931 28.3496 153.174 27.7871 153.462 27.2472C153.812 26.5779 154.273 25.6969 154.851 24.6139C155.429 23.5308 156.16 22.1436 157.037 20.4569C155.995 22.1864 154.835 23.842 153.567 25.4121C152.585 26.6283 151.538 27.7901 150.431 28.8925C149.687 29.6559 148.889 30.3636 148.041 31.0099C147.238 31.6086 146.567 31.9347 146.038 31.9834C145.829 31.9796 145.624 31.9262 145.439 31.8276C145.255 31.7291 145.096 31.5881 144.976 31.4163C144.701 30.9748 144.57 30.4586 144.6 29.939C144.593 29.4293 144.7 28.9246 144.913 28.4617C145.122 28.0114 145.479 27.3713 145.97 26.5268C146.603 25.1412 147.154 23.9819 147.624 23.0489C148.09 22.1119 148.466 21.3672 148.748 20.8001C149.03 20.233 149.246 19.7901 149.399 19.4761C149.506 19.2871 149.581 19.0814 149.62 18.8677C149.624 18.7473 149.58 18.6303 149.499 18.5415C149.453 18.4909 149.397 18.4512 149.333 18.4255C149.27 18.3998 149.202 18.3887 149.134 18.3931C148.8 18.4389 148.486 18.5771 148.226 18.7922C147.964 18.986 147.715 19.1983 147.483 19.4274C146.877 20.0647 146.309 20.7377 145.783 21.4426C145.273 22.1192 144.947 22.4819 144.799 22.5305C144.738 22.5305 144.707 22.5184 144.695 22.494C144.68 22.4611 144.675 22.4251 144.678 22.3894C144.731 22.146 145.064 21.6592 145.666 20.9291C146.168 20.3012 146.703 19.7008 147.269 19.1305C147.58 18.7744 147.94 18.4638 148.338 18.2081C148.638 18.0325 148.979 17.9401 149.326 17.9404V17.9307Z" fill="white"/>
</svg>
