<svg width="100" height="100" viewBox="0 0 100 100" fill="none" xmlns="http://www.w3.org/2000/svg">
<g clip-path="url(#clip0)">
<path d="M99.9872 30.0372V29.9392C99.9787 29.8292 99.9678 29.7204 99.9545 29.6128V29.5638C99.9382 29.4459 99.9182 29.328 99.8964 29.2119C99.8964 29.172 99.8801 29.1339 99.871 29.0959C99.8547 29.0124 99.8347 28.929 99.8129 28.8456C99.8129 28.8075 99.7948 28.7676 99.7839 28.7277C99.7566 28.6279 99.7258 28.5282 99.6931 28.4284C99.6731 28.3686 99.6532 28.3105 99.6314 28.247C99.6314 28.2253 99.6169 28.2017 99.6078 28.1799C99.0965 26.8089 98.1277 25.6559 96.8647 24.9152L91.3714 21.6868V21.6142V7.07355V7.00281H93.1287C93.3876 7.00233 93.6357 6.89937 93.8188 6.71648C94.0018 6.53359 94.1049 6.28567 94.1054 6.02703V0.975787C94.1049 0.717139 94.0018 0.469223 93.8188 0.286331C93.6357 0.103439 93.3876 0.000479422 93.1287 0L77.0626 0C76.8037 0.000479422 76.5556 0.103439 76.3725 0.286331C76.1895 0.469223 76.0864 0.717139 76.0859 0.975787V6.01977C76.0864 6.27842 76.1895 6.52633 76.3725 6.70923C76.5556 6.89212 76.8037 6.99508 77.0626 6.99556H78.829V14.3285L56.0406 0.932257C55.2782 0.48518 54.4102 0.249477 53.5263 0.249477C52.6423 0.249477 51.7743 0.48518 51.012 0.932257L10.2005 24.9134C8.93638 25.6577 7.96765 26.8145 7.45744 28.189L7.42477 28.2815L7.37575 28.4212C7.34126 28.5263 7.3104 28.6315 7.27954 28.7386C7.27954 28.7712 7.2632 28.8038 7.25594 28.8365C7.23234 28.9254 7.21237 29.0179 7.1924 29.1031L7.17062 29.2119C7.14883 29.3298 7.12705 29.4477 7.11252 29.5747C7.11163 29.5898 7.11163 29.6049 7.11252 29.62C7.098 29.7289 7.08711 29.8395 7.07985 29.9501C7.07985 29.9828 7.07985 30.0154 7.07985 30.0481C7.07985 30.1714 7.06714 30.2965 7.06714 30.4235C7.06714 30.5505 7.06714 30.6992 7.08166 30.837C7.08166 30.8769 7.08166 30.9168 7.08166 30.9567C7.09074 31.0565 7.09982 31.1563 7.11252 31.2542C7.11252 31.2941 7.1216 31.3322 7.12705 31.3721C7.14701 31.4991 7.16698 31.626 7.1924 31.7493C7.19217 31.7536 7.19217 31.7578 7.1924 31.762C7.21963 31.8926 7.25049 32.0196 7.2868 32.1466C7.2868 32.1792 7.30495 32.2137 7.31585 32.2463C7.34308 32.3424 7.37394 32.4368 7.4048 32.5293C7.41751 32.5619 7.4284 32.5945 7.43929 32.6272C7.48286 32.7451 7.52824 32.8612 7.57726 32.9754C7.62991 33.0951 7.68618 33.2112 7.74427 33.3255L7.78421 33.4017C7.83141 33.4923 7.88224 33.583 7.93307 33.6683L7.98753 33.7354C8.05289 33.8424 8.12006 33.9476 8.19267 34.0492C8.2671 34.1544 8.34516 34.2577 8.42504 34.3593L8.46679 34.4101C8.53396 34.4935 8.60476 34.5751 8.67556 34.6531C8.6919 34.6731 8.71005 34.6912 8.72821 34.7112C8.89936 34.8981 9.0812 35.0749 9.27282 35.2408C9.28754 35.2513 9.30149 35.2628 9.31457 35.2752C9.39808 35.346 9.4834 35.4131 9.57054 35.4784L9.63045 35.5237C9.72848 35.5963 9.82833 35.667 9.9318 35.7341C10.0407 35.8048 10.1533 35.872 10.2658 35.9372L10.3076 35.9608C10.4038 36.0152 10.5018 36.066 10.5999 36.115L10.6688 36.1495C10.7741 36.2002 10.8812 36.2474 10.9884 36.2927L11.0101 36.3018C11.13 36.3508 11.2498 36.3961 11.3732 36.4397L11.4259 36.456C11.5257 36.4904 11.6292 36.5213 11.7308 36.5503L11.818 36.5739C11.9221 36.6005 12.0274 36.6259 12.1339 36.65L12.1847 36.6609C12.3081 36.6863 12.4316 36.7081 12.5478 36.7244L12.6167 36.7335C12.7184 36.7462 12.8183 36.7571 12.9199 36.7661H13.027C13.1251 36.7661 13.2249 36.777 13.3247 36.7788H13.4373C13.5026 36.7788 13.568 36.7788 13.6315 36.7788C13.6951 36.7788 13.7604 36.7788 13.824 36.7788L14.0346 36.7589C14.1035 36.7589 14.1707 36.748 14.2397 36.7389L14.4339 36.7081C14.5066 36.6954 14.581 36.6863 14.6554 36.6718L14.8224 36.6319C14.9059 36.6138 14.9876 36.5956 15.0711 36.5739L15.1946 36.5358C15.2908 36.5068 15.387 36.4796 15.4832 36.4469L15.5341 36.427L15.623 36.3943C15.3771 37.7578 15.6768 39.1632 16.4577 40.3081C17.2386 41.453 18.4383 42.2457 19.7984 42.5156C18.597 42.7533 17.5155 43.4 16.7381 44.3455C15.9608 45.291 15.5359 46.4766 15.5359 47.7002C15.5359 48.9237 15.9608 50.1094 16.7381 51.0549C17.5155 52.0003 18.597 52.6471 19.7984 52.8847C18.596 53.1215 17.5133 53.768 16.735 54.7137C15.9568 55.6595 15.5313 56.8459 15.5313 58.0702C15.5313 59.2946 15.9568 60.4809 16.735 61.4267C17.5133 62.3724 18.596 63.0189 19.7984 63.2557C18.597 63.4933 17.5155 64.1401 16.7381 65.0855C15.9608 66.031 15.5359 67.2167 15.5359 68.4402C15.5359 69.6637 15.9608 70.8494 16.7381 71.7949C17.5155 72.7403 18.597 73.3871 19.7984 73.6247C18.6356 73.8541 17.5835 74.467 16.811 75.3651C16.0385 76.2632 15.5902 77.3944 15.5381 78.5775C15.4859 79.7605 15.833 80.9268 16.5236 81.8892C17.2141 82.8516 18.2082 83.5545 19.3463 83.885H18.0139C17.3972 83.8853 16.7867 84.007 16.2172 84.2432C15.6477 84.4794 15.1303 84.8254 14.6948 85.2616C14.2593 85.6977 13.9141 86.2153 13.679 86.7849C13.4439 87.3544 13.3235 87.9647 13.3247 88.5808V91.0946C13.3247 91.5468 13.5045 91.9804 13.8246 92.3001C14.1446 92.6199 14.5786 92.7995 15.0312 92.7995H92.0213C92.4741 92.7995 92.9083 92.6199 93.2286 92.3003C93.5489 91.9806 93.7291 91.5469 93.7296 91.0946V88.5808C93.7296 87.3378 93.2354 86.1457 92.3556 85.2668C91.4759 84.3879 90.2828 83.8941 89.0387 83.8941H87.6916C88.8298 83.5634 89.8238 82.8604 90.5142 81.8978C91.2046 80.9352 91.5515 79.7689 91.4992 78.5858C91.4468 77.4028 90.9983 76.2715 90.2256 75.3736C89.4529 74.4756 88.4007 73.8629 87.2378 73.6338C88.4407 73.398 89.5242 72.752 90.3031 71.8063C91.082 70.8606 91.5078 69.674 91.5078 68.4493C91.5078 67.2246 91.082 66.0379 90.3031 65.0922C89.5242 64.1465 88.4407 63.5005 87.2378 63.2647C88.4401 63.028 89.5229 62.3815 90.3011 61.4357C91.0794 60.49 91.5049 59.3036 91.5049 58.0793C91.5049 56.8549 91.0794 55.6685 90.3011 54.7228C89.5229 53.777 88.4401 53.1306 87.2378 52.8938C88.4407 52.658 89.5242 52.012 90.3031 51.0663C91.082 50.1206 91.5078 48.934 91.5078 47.7093C91.5078 46.4846 91.082 45.2979 90.3031 44.3522C89.5242 43.4065 88.4407 42.7605 87.2378 42.5247C88.5993 42.2574 89.8007 41.4652 90.5821 40.3196C91.3635 39.1741 91.662 37.7672 91.4132 36.4034C92.4782 36.7955 93.6289 36.8962 94.7459 36.6949C95.863 36.4937 96.906 35.998 97.767 35.2589C98.413 34.714 98.9424 34.0443 99.3232 33.2901C99.7041 32.5359 99.9287 31.7127 99.9836 30.8697C99.9926 30.7191 99.9981 30.5668 99.9981 30.4126C99.9981 30.2585 99.9945 30.1605 99.9872 30.0372Z" fill="#FBDBE1"/>
<path d="M89.2202 31.5735L84.5583 28.8384V25.2254C84.5583 24.8646 84.4149 24.5186 84.1596 24.2635C83.9042 24.0084 83.5579 23.8651 83.1968 23.8651C82.8357 23.8651 82.4894 24.0084 82.2341 24.2635C81.9787 24.5186 81.8353 24.8646 81.8353 25.2254V27.1643L72.3953 21.6125V16.7752H81.8353V18.9064C81.8353 19.2671 81.9787 19.6131 82.2341 19.8683C82.4894 20.1234 82.8357 20.2667 83.1968 20.2667C83.5579 20.2667 83.9042 20.1234 84.1596 19.8683C84.4149 19.6131 84.5583 19.2671 84.5583 18.9064V16.7063H84.9123C85.5241 16.7058 86.1107 16.4628 86.5433 16.0306C86.976 15.5984 87.2192 15.0123 87.2197 14.4011V9.504C87.2187 8.89307 86.9753 8.30746 86.5427 7.87564C86.1102 7.44382 85.5238 7.20104 84.9123 7.20056H69.3164C68.7053 7.20152 68.1194 7.44451 67.6872 7.87628C67.2551 8.30805 67.0119 8.89338 67.0109 9.504V14.4011C67.0114 15.012 67.2544 15.5978 67.6866 16.03C68.1188 16.4621 68.705 16.7054 69.3164 16.7063H69.6795V20.0871L49.6105 8.29787C48.6619 7.74032 47.5814 7.44632 46.4808 7.44632C45.3803 7.44632 44.2997 7.74032 43.3511 8.29787L3.72509 31.5735C2.59154 32.2429 1.65197 33.1957 0.998807 34.338C0.345644 35.4803 0.00139693 36.7728 -6.54272e-05 38.0884C-0.0092994 39.4225 0.339456 40.7346 1.00991 41.8884C1.68037 43.0421 2.64804 43.9952 3.81222 44.6486C5.37007 45.5471 7.20035 45.8531 8.96608 45.5102C9.17699 47.1856 10.0423 48.7099 11.3733 49.7507C10.6082 50.3478 9.98931 51.1112 9.56367 51.983C9.13804 52.8548 8.91683 53.812 8.91683 54.782C8.91683 55.7519 9.13804 56.7091 9.56367 57.5809C9.98931 58.4527 10.6082 59.2161 11.3733 59.8132C10.6082 60.4103 9.98931 61.1738 9.56367 62.0456C9.13804 62.9173 8.91683 63.8746 8.91683 64.8445C8.91683 65.8145 9.13804 66.7717 9.56367 67.6435C9.98931 68.5153 10.6082 69.2787 11.3733 69.8758C10.6082 70.4729 9.98931 71.2364 9.56367 72.1081C9.13804 72.9799 8.91683 73.9371 8.91683 74.9071C8.91683 75.8771 9.13804 76.8343 9.56367 77.7061C9.98931 78.5779 10.6082 79.3413 11.3733 79.9384C10.7122 80.4552 10.1596 81.0971 9.74708 81.8274C9.33453 82.5577 9.07011 83.3621 8.96895 84.1945C8.86778 85.027 8.93186 85.8713 9.15752 86.679C9.38317 87.4867 9.76598 88.2421 10.284 88.9018C9.07154 89.2718 8.00982 90.0206 7.25497 91.0382C6.50012 92.0559 6.09197 93.2886 6.09052 94.5552V96.9947C6.09148 97.7934 6.40948 98.5591 6.97476 99.1239C7.54003 99.6887 8.30644 100.006 9.10586 100.007H83.8449C84.6443 100.006 85.4107 99.6887 85.976 99.1239C86.5413 98.5591 86.8593 97.7934 86.8602 96.9947V94.548C86.8588 93.2814 86.4506 92.0486 85.6958 91.031C84.9409 90.0134 83.8792 89.2645 82.6667 88.8946C83.1843 88.2342 83.5665 87.4784 83.7914 86.6704C84.0163 85.8623 84.0796 85.0179 83.9776 84.1854C83.8756 83.3529 83.6103 82.5486 83.1969 81.8186C82.7835 81.0886 82.2301 80.4473 81.5684 79.9311C82.3335 79.334 82.9524 78.5706 83.378 77.6988C83.8036 76.827 84.0249 75.8698 84.0249 74.8998C84.0249 73.9299 83.8036 72.9727 83.378 72.1009C82.9524 71.2291 82.3335 70.4657 81.5684 69.8686C82.3335 69.2715 82.9524 68.508 83.378 67.6362C83.8036 66.7645 84.0249 65.8072 84.0249 64.8373C84.0249 63.8673 83.8036 62.9101 83.378 62.0383C82.9524 61.1665 82.3335 60.4031 81.5684 59.806C82.3335 59.2089 82.9524 58.4455 83.378 57.5737C83.8036 56.7019 84.0249 55.7447 84.0249 54.7747C84.0249 53.8047 83.8036 52.8475 83.378 51.9757C82.9524 51.1039 82.3335 50.3405 81.5684 49.7434C82.8984 48.7025 83.7635 47.1793 83.9756 45.5047C84.4415 45.5956 84.9151 45.6418 85.3898 45.6426C87.0493 45.6422 88.6626 45.0965 89.981 44.0896C91.2994 43.0827 92.2498 41.6705 92.6855 40.0707C93.1213 38.4709 93.0183 36.7723 92.3924 35.2368C91.7665 33.7012 90.6525 32.414 89.222 31.5735H89.2202ZM69.7285 9.91571H84.5021V13.9912H69.7285V9.91571ZM62.104 33.0426L73.5227 39.8169C73.401 39.9184 19.557 39.9166 19.4354 39.8169L30.8504 33.0444L62.104 33.0426ZM35.4179 30.322L46.4736 23.7708L57.5238 30.3274L35.4179 30.322ZM21.7173 44.7049C21.7172 44.0749 21.6236 43.4484 21.4395 42.8458H71.504C71.1272 44.08 71.1337 45.3993 71.5226 46.6297C71.9115 47.8601 72.6646 48.9438 73.6824 49.738L73.5753 49.8268H19.3718C19.3355 49.7978 19.301 49.767 19.2629 49.738C20.0277 49.1413 20.6465 48.3785 21.0724 47.5074C21.4983 46.6363 21.72 45.6798 21.7209 44.7103L21.7173 44.7049ZM73.942 84.9624C73.944 84.0065 74.3181 83.0889 74.9852 82.4038C75.6524 81.7186 76.5602 81.3197 77.5165 81.2914H77.7434C78.466 81.3142 79.1659 81.5492 79.7557 81.9671C80.3455 82.3849 80.799 82.967 81.0596 83.6408C81.3202 84.3146 81.3764 85.0501 81.2211 85.7556C81.0658 86.4611 80.706 87.1052 80.1865 87.6076C79.667 88.11 79.0109 88.4484 78.3001 88.5805C77.5893 88.7126 76.8553 88.6325 76.1898 88.3503C75.5242 88.0682 74.9566 87.5964 74.5578 86.9938C74.159 86.3913 73.9468 85.6848 73.9475 84.9624H73.942ZM77.5165 51.1019H77.7434C78.704 51.1232 79.6181 51.5195 80.2899 52.2057C80.9617 52.892 81.3379 53.8138 81.3379 54.7738C81.3379 55.7337 80.9617 56.6556 80.2899 57.3418C79.6181 58.0281 78.704 58.4244 77.7434 58.4457H77.5165C76.5559 58.4244 75.6419 58.0281 74.97 57.3418C74.2982 56.6556 73.922 55.7337 73.922 54.7738C73.922 53.8138 74.2982 52.892 74.97 52.2057C75.6419 51.5195 76.5559 51.1232 77.5165 51.1019ZM73.9475 44.7103C73.949 44.0016 74.1553 43.3084 74.5418 42.7141C74.9283 42.1198 75.4784 41.6497 76.1259 41.3604L81.2943 44.4364C81.2943 44.5289 81.3052 44.6178 81.3052 44.7158C81.3042 45.6709 80.9315 46.5882 80.2657 47.2736C79.6 47.959 78.6935 48.3589 77.738 48.3886H77.6254H77.511C76.5544 48.3589 75.6469 47.9583 74.9807 47.2718C74.3146 46.5852 73.942 45.6665 73.942 44.7103H73.9475ZM77.5165 61.1645H77.629H77.7398C78.7004 61.1858 79.6144 61.582 80.2862 62.2683C80.9581 62.9546 81.3342 63.8764 81.3342 64.8364C81.3342 65.7963 80.9581 66.7181 80.2862 67.4044C79.6144 68.0907 78.7004 68.4869 77.7398 68.5083H77.5165C76.5559 68.4869 75.6419 68.0907 74.97 67.4044C74.2982 66.7181 73.922 65.7963 73.922 64.8364C73.922 63.8764 74.2982 62.9546 74.97 62.2683C75.6419 61.582 76.5559 61.1858 77.5165 61.1645ZM77.5165 71.227H77.6309H77.7434C78.6984 71.257 79.6042 71.6571 80.2691 72.3426C80.934 73.0282 81.3058 73.9453 81.3058 74.8998C81.3058 75.8544 80.934 76.7716 80.2691 77.4571C79.6042 78.1426 78.6984 78.5427 77.7434 78.5727H77.6309H77.5165C76.5615 78.5427 75.6557 78.1426 74.9908 77.4571C74.3259 76.7716 73.9541 75.8544 73.9541 74.8998C73.9541 73.9453 74.3259 73.0282 74.9908 72.3426C75.6557 71.6571 76.5615 71.257 77.5165 71.227ZM21.3252 52.5456H29.409V59.6409H19.4608C20.4636 58.793 21.1803 57.6567 21.513 56.3869C21.8456 55.1171 21.7782 53.7757 21.3197 52.5456H21.3252ZM21.2253 62.3561H29.409V69.339H19.8583C20.7532 68.4417 21.3605 67.2988 21.6029 66.0555C21.8454 64.8123 21.7121 63.5251 21.2199 62.3579L21.2253 62.3561ZM21.0583 72.0541H29.409V79.1476H20.0961C20.9487 78.1973 21.4962 77.0132 21.6678 75.7485C21.8393 74.4838 21.627 73.1969 21.0583 72.0541ZM60.815 88.6407H58.092V66.3445C58.092 63.2659 56.8679 60.3134 54.689 58.1365C52.5101 55.9596 49.555 54.7366 46.4736 54.7366C43.3922 54.7366 40.437 55.9596 38.2581 58.1365C36.0792 60.3134 34.8552 63.2659 34.8552 66.3445C34.8552 66.7053 34.9986 67.0513 35.2539 67.3064C35.5093 67.5615 35.8556 67.7048 36.2167 67.7048C36.5778 67.7048 36.9241 67.5615 37.1794 67.3064C37.4348 67.0513 37.5782 66.7053 37.5782 66.3445C37.5782 63.9874 38.5154 61.7269 40.1836 60.0602C41.8518 58.3935 44.1144 57.4572 46.4736 57.4572C48.8328 57.4572 51.0953 58.3935 52.7635 60.0602C54.4317 61.7269 55.3689 63.9874 55.3689 66.3445V88.6407H37.5782V72.4568C37.5782 72.2781 37.543 72.1012 37.4746 71.9362C37.4062 71.7712 37.3059 71.6212 37.1794 71.4949C37.053 71.3686 36.9029 71.2684 36.7377 71.2C36.5725 71.1316 36.3955 71.0965 36.2167 71.0965C36.0379 71.0965 35.8608 71.1316 35.6957 71.2C35.5305 71.2684 35.3804 71.3686 35.2539 71.4949C35.1275 71.6212 35.0272 71.7712 34.9588 71.9362C34.8904 72.1012 34.8552 72.2781 34.8552 72.4568V88.6407H32.1321V52.5474H60.815V88.6407ZM63.5381 88.6407V81.8628H72.0377C71.4521 82.9117 71.1754 84.1047 71.2397 85.3041C71.3039 86.5034 71.7065 87.6602 72.4008 88.6407H63.5381ZM73.4864 59.6428H63.5381V52.5474H71.6329C71.1744 53.7775 71.1069 55.1189 71.4396 56.3887C71.7723 57.6585 72.4889 58.7949 73.4918 59.6428H73.4864ZM71.7273 62.3633C71.2351 63.5306 71.1017 64.8178 71.3442 66.061C71.5866 67.3042 72.194 68.4472 73.0888 69.3444H63.5381V62.3579L71.7273 62.3633ZM71.8961 72.0595C71.3267 73.2016 71.1132 74.4879 71.2831 75.7524C71.4529 77.0169 71.9985 78.2015 72.8492 79.153H63.5381V72.0541L71.8961 72.0595ZM20.9149 81.8628H29.409V88.6407H20.5518C21.2455 87.6599 21.6477 86.5033 21.7119 85.304C21.7761 84.1048 21.4998 82.9119 20.9149 81.8628ZM15.2092 51.1019H15.4306C16.3912 51.1232 17.3053 51.5195 17.9771 52.2057C18.6489 52.892 19.0251 53.8138 19.0251 54.7738C19.0251 55.7337 18.6489 56.6556 17.9771 57.3418C17.3053 58.0281 16.3912 58.4244 15.4306 58.4457H15.211C14.2504 58.4244 13.3363 58.0281 12.6645 57.3418C11.9927 56.6556 11.6165 55.7337 11.6165 54.7738C11.6165 53.8138 11.9927 52.892 12.6645 52.2057C13.3363 51.5195 14.2504 51.1232 15.211 51.1019H15.2092ZM11.6401 44.7103C11.6401 44.616 11.6401 44.5289 11.6546 44.4292L16.8267 41.3531C17.5918 41.6895 18.2192 42.2766 18.6054 43.0173C18.9916 43.7581 19.1133 44.6083 18.9507 45.4275C18.788 46.2467 18.3505 46.986 17.7106 47.5234C17.0706 48.0608 16.2664 48.364 15.4306 48.3831H15.3163H15.2037C14.249 48.3521 13.3437 47.9517 12.6788 47.2664C12.0139 46.5812 11.6415 45.6647 11.6401 44.7103ZM15.211 61.1645H15.3217H15.4343C16.3948 61.1858 17.3089 61.582 17.9807 62.2683C18.6525 62.9546 19.0287 63.8764 19.0287 64.8364C19.0287 65.7963 18.6525 66.7181 17.9807 67.4044C17.3089 68.0907 16.3948 68.4869 15.4343 68.5083H15.2092C14.2486 68.4869 13.3345 68.0907 12.6627 67.4044C11.9909 66.7181 11.6147 65.7963 11.6147 64.8364C11.6147 63.8764 11.9909 62.9546 12.6627 62.2683C13.3345 61.582 14.2486 61.1858 15.2092 61.1645H15.211ZM15.211 71.227H15.3235H15.4379C16.3929 71.257 17.2987 71.6571 17.9636 72.3426C18.6285 73.0282 19.0003 73.9453 19.0003 74.8998C19.0003 75.8544 18.6285 76.7716 17.9636 77.4571C17.2987 78.1426 16.3929 78.5427 15.4379 78.5727H15.3235H15.211C14.256 78.5427 13.3502 78.1426 12.6853 77.4571C12.0204 76.7716 11.6486 75.8544 11.6486 74.8998C11.6486 73.9453 12.0204 73.0282 12.6853 72.3426C13.3502 71.6571 14.256 71.257 15.211 71.227ZM15.211 81.2896H15.3235H15.4379C16.4031 81.3199 17.3177 81.7281 17.9844 82.426C18.6511 83.124 19.0165 84.0558 19.0017 85.0205C18.9869 85.9852 18.5932 86.9054 17.9054 87.5826C17.2177 88.2599 16.291 88.6399 15.3253 88.6407C14.3597 88.6399 13.433 88.2599 12.7452 87.5826C12.0575 86.9054 11.6638 85.9852 11.649 85.0205C11.6342 84.0558 11.9996 83.124 12.6663 82.426C13.333 81.7281 14.2476 81.3199 15.2128 81.2896H15.211ZM84.1426 94.548V96.9875C84.1429 97.0266 84.1353 97.0654 84.1204 97.1016C84.1056 97.1378 84.0836 97.1706 84.056 97.1983C84.0283 97.226 83.9953 97.2479 83.9591 97.2628C83.9229 97.2776 83.8841 97.2851 83.8449 97.2849H9.10405C9.06488 97.2851 9.02606 97.2776 8.98983 97.2628C8.9536 97.2479 8.92068 97.226 8.89299 97.1983C8.86529 97.1706 8.84337 97.1378 8.8285 97.1016C8.81362 97.0654 8.80608 97.0266 8.80632 96.9875V94.548C8.80728 93.702 9.14396 92.8909 9.74255 92.2925C10.3411 91.6941 11.1528 91.3573 11.9996 91.3558H80.9476C81.7943 91.3573 82.606 91.6941 83.2046 92.2925C83.8032 92.8909 84.1398 93.702 84.1408 94.548H84.1426ZM87.7861 42.2817C87.0452 42.7094 86.2031 42.9309 85.3475 42.9232C84.4919 42.9156 83.654 42.679 82.9209 42.2382L62.6304 30.2041L47.1598 21.023C46.95 20.8983 46.7104 20.8324 46.4663 20.8324C46.2222 20.8324 45.9826 20.8983 45.7728 21.023L30.4057 30.1424L10.0263 42.2382C9.2922 42.6719 8.45648 42.9041 7.60372 42.9113C6.75096 42.9185 5.91142 42.7005 5.17013 42.2792C4.42884 41.858 3.8121 41.2486 3.38237 40.5127C2.95264 39.7767 2.72517 38.9404 2.723 38.0884C2.72427 37.2461 2.94485 36.4186 3.36307 35.6872C3.7813 34.9558 4.38277 34.3457 5.1084 33.9168L44.7217 10.634C45.2528 10.3222 45.8576 10.1578 46.4736 10.1578C47.0895 10.1578 47.6943 10.3222 48.2254 10.634L87.8424 33.9168C88.5676 34.3459 89.1685 34.9561 89.5861 35.6875C90.0037 36.4189 90.2236 37.2463 90.2241 38.0884C90.2288 38.9412 90.005 39.7798 89.576 40.5171C89.1469 41.2545 88.5283 41.8637 87.7843 42.2817H87.7861Z" fill="#D62C4B"/>
</g>
<defs>
<clipPath id="clip0">
<rect width="100" height="100" fill="white"/>
</clipPath>
</defs>
</svg>
