<svg width="107" height="107" viewBox="0 0 107 107" fill="none" xmlns="http://www.w3.org/2000/svg">
<path d="M44.1103 20.1553C42.5119 21.2372 40.3223 22.7188 40.3223 25.737C40.3223 26.8158 41.1966 27.6901 42.2754 27.6901C43.3542 27.6901 44.2285 26.8158 44.2285 25.737C44.2285 24.8772 44.8274 24.3866 46.2991 23.391C47.8983 22.3091 50.0879 20.8275 50.0879 17.8085C50.0879 14.7896 47.8983 13.3087 46.2991 12.2269C44.8274 11.2312 44.2285 10.7407 44.2285 9.88083C44.2285 9.021 44.8274 8.53043 46.2991 7.53479C47.8983 6.45294 50.0879 4.97208 50.0879 1.95312C50.0879 0.875092 49.2128 0 48.1348 0C47.056 0 46.1816 0.875092 46.1816 1.95312C46.1816 2.81296 45.582 3.30353 44.1103 4.29916C42.5119 5.38101 40.3223 6.86188 40.3223 9.88083C40.3223 12.8998 42.5111 14.3806 44.1103 15.4625C45.582 16.4581 46.1816 16.9487 46.1816 17.8093C46.1816 18.6691 45.582 19.1597 44.1103 20.1553Z" fill="#FBDBE1"/>
<path d="M57.5834 20.1553C55.9851 21.2372 53.7954 22.718 53.7954 25.737C53.7954 26.8158 54.6698 27.6901 55.7486 27.6901C56.8274 27.6901 57.7017 26.8158 57.7017 25.737C57.7017 24.8772 58.3006 24.3866 59.7723 23.391C61.3714 22.3091 63.5611 20.8275 63.5611 17.8085C63.5611 14.7896 61.3714 13.3087 59.7723 12.2269C58.3006 11.2312 57.7009 10.7407 57.7009 9.88083C57.7009 9.021 58.3006 8.53043 59.7723 7.53479C61.3714 6.45294 63.5611 4.97131 63.5611 1.95312C63.5611 0.874328 62.686 0 61.6079 0C60.5291 0 59.6548 0.874328 59.6548 1.95312C59.6548 2.81219 59.0551 3.30353 57.5834 4.29916C55.9843 5.38101 53.7947 6.86188 53.7947 9.88083C53.7947 12.899 55.9843 14.3806 57.5834 15.4617C59.0551 16.4581 59.6548 16.9487 59.6548 17.8085C59.6548 18.6691 59.0559 19.1597 57.5834 20.1553Z" fill="#FBDBE1"/>
<path d="M71.057 20.1553C69.4587 21.2372 67.269 22.7188 67.269 25.737C67.269 26.8158 68.1434 27.6901 69.2222 27.6901C70.301 27.6901 71.1753 26.8158 71.1753 25.737C71.1753 24.8772 71.775 24.3866 73.2467 23.391C74.845 22.3091 77.0347 20.8275 77.0347 17.8085C77.0347 14.7896 74.845 13.3087 73.2467 12.2269C71.775 11.2312 71.1753 10.7407 71.1753 9.88083C71.1753 9.021 71.775 8.53043 73.2467 7.53479C74.845 6.45294 77.0347 4.97208 77.0347 1.95312C77.0347 0.875092 76.1596 0 75.0815 0C74.0027 0 73.1284 0.875092 73.1284 1.95312C73.1284 2.81296 72.5287 3.30353 71.057 4.29916C69.4587 5.38101 67.269 6.86188 67.269 9.88083C67.269 12.8998 69.4587 14.3806 71.057 15.4625C72.5287 16.4581 73.1284 16.9487 73.1284 17.8093C73.1284 18.6691 72.5287 19.1597 71.057 20.1553Z" fill="#FBDBE1"/>
<path d="M100.245 44.8135H93.1003C93.3253 43.4242 93.4718 42.0097 93.5344 40.5731C95.7843 39.7872 97.4032 37.6449 97.4032 35.1302C97.4032 31.9518 94.8169 29.3655 91.6377 29.3655H22.2484C19.0692 29.3655 16.4836 31.9518 16.4836 35.1302C16.4836 37.6449 18.1018 39.7872 20.3517 40.5731C20.415 42.0097 20.5615 43.4242 20.7858 44.8127H13.6409C12.5621 44.8127 11.6877 45.6878 11.6877 46.7658C11.6877 47.8446 12.5621 48.719 13.6409 48.719H21.6403C24.3312 58.4228 30.9237 66.5199 39.6159 71.2066L34.9948 79.8797C34.9917 79.885 34.9894 79.8896 34.9864 79.895L26.3553 96.0937H23.3836C22.3048 96.0937 21.4305 96.9688 21.4305 98.0468C21.4305 99.1256 22.3048 99.9999 23.3836 99.9999H31.6714C32.7502 99.9999 33.6245 99.1256 33.6245 98.0468C33.6245 96.9688 32.7502 96.0937 31.6714 96.0937H30.7811L37.881 82.7705H76.4705L83.5696 96.0937H82.2146C81.1366 96.0937 80.2615 96.9688 80.2615 98.0468C80.2615 99.1256 81.1366 99.9999 82.2146 99.9999H90.5024C91.5812 99.9999 92.4556 99.1256 92.4556 98.0468C92.4556 96.9688 91.5812 96.0937 90.5024 96.0937H87.9962L79.3635 79.8942C79.3612 79.8896 79.359 79.885 79.3567 79.8805L74.6295 71.0098C83.1439 66.2948 89.5923 58.2885 92.2458 48.7197H100.245C101.323 48.7197 102.198 47.8446 102.198 46.7666C102.198 45.6878 101.324 44.8135 100.245 44.8135ZM39.9623 78.8642L43.1529 72.8752C47.4124 74.6124 52.0671 75.5721 56.943 75.5721C61.9647 75.5721 66.7529 74.5559 71.1146 72.7188L74.3892 78.8642H39.9623Z" fill="#FBDBE1"/>
<path d="M37.1103 27.1553C35.5119 28.2372 33.3223 29.7188 33.3223 32.737C33.3223 33.8158 34.1966 34.6901 35.2754 34.6901C36.3542 34.6901 37.2285 33.8158 37.2285 32.737C37.2285 31.8772 37.8274 31.3866 39.2991 30.391C40.8983 29.3091 43.0879 27.8275 43.0879 24.8085C43.0879 21.7896 40.8983 20.3087 39.2991 19.2269C37.8274 18.2312 37.2285 17.7407 37.2285 16.8808C37.2285 16.021 37.8274 15.5304 39.2991 14.5348C40.8983 13.4529 43.0879 11.9721 43.0879 8.95312C43.0879 7.87509 42.2128 7 41.1348 7C40.056 7 39.1816 7.87509 39.1816 8.95312C39.1816 9.81296 38.582 10.3035 37.1103 11.2992C35.5119 12.381 33.3223 13.8619 33.3223 16.8808C33.3223 19.8998 35.5111 21.3806 37.1103 22.4625C38.582 23.4581 39.1816 23.9487 39.1816 24.8093C39.1816 25.6691 38.582 26.1597 37.1103 27.1553Z" fill="#D62C4B"/>
<path d="M50.5834 27.1553C48.9851 28.2372 46.7954 29.718 46.7954 32.737C46.7954 33.8158 47.6698 34.6901 48.7486 34.6901C49.8274 34.6901 50.7017 33.8158 50.7017 32.737C50.7017 31.8772 51.3006 31.3866 52.7723 30.391C54.3714 29.3091 56.5611 27.8275 56.5611 24.8085C56.5611 21.7896 54.3714 20.3087 52.7723 19.2269C51.3006 18.2312 50.7009 17.7407 50.7009 16.8808C50.7009 16.021 51.3006 15.5304 52.7723 14.5348C54.3714 13.4529 56.5611 11.9713 56.5611 8.95312C56.5611 7.87433 55.686 7 54.6079 7C53.5291 7 52.6548 7.87433 52.6548 8.95312C52.6548 9.81219 52.0551 10.3035 50.5834 11.2992C48.9843 12.381 46.7947 13.8619 46.7947 16.8808C46.7947 19.899 48.9843 21.3806 50.5834 22.4617C52.0551 23.4581 52.6548 23.9487 52.6548 24.8085C52.6548 25.6691 52.0559 26.1597 50.5834 27.1553Z" fill="#D62C4B"/>
<path d="M64.057 27.1553C62.4587 28.2372 60.269 29.7188 60.269 32.737C60.269 33.8158 61.1434 34.6901 62.2222 34.6901C63.301 34.6901 64.1753 33.8158 64.1753 32.737C64.1753 31.8772 64.775 31.3866 66.2467 30.391C67.845 29.3091 70.0347 27.8275 70.0347 24.8085C70.0347 21.7896 67.845 20.3087 66.2467 19.2269C64.775 18.2312 64.1753 17.7407 64.1753 16.8808C64.1753 16.021 64.775 15.5304 66.2467 14.5348C67.845 13.4529 70.0347 11.9721 70.0347 8.95312C70.0347 7.87509 69.1596 7 68.0815 7C67.0027 7 66.1284 7.87509 66.1284 8.95312C66.1284 9.81296 65.5287 10.3035 64.057 11.2992C62.4587 12.381 60.269 13.8619 60.269 16.8808C60.269 19.8998 62.4587 21.3806 64.057 22.4625C65.5287 23.4581 66.1284 23.9487 66.1284 24.8093C66.1284 25.6691 65.5287 26.1597 64.057 27.1553Z" fill="#D62C4B"/>
<path d="M93.5574 51.448H86.4125C86.6376 50.0587 86.7841 48.6442 86.8466 47.2076C89.0965 46.4218 90.7155 44.2794 90.7155 41.7648C90.7155 38.5864 88.1291 36 84.95 36H15.5606C12.3814 36 9.79584 38.5864 9.79584 41.7648C9.79584 44.2794 11.414 46.4218 13.6639 47.2076C13.7273 48.6442 13.8737 50.0587 14.0981 51.4472H6.95313C5.87433 51.4472 5 52.3223 5 53.4004C5 54.4792 5.87433 55.3535 6.95313 55.3535H14.9525C17.6434 65.0573 24.236 73.1544 32.9282 77.8411L28.307 86.5142C28.304 86.5196 28.3017 86.5241 28.2986 86.5295L19.6675 102.728H16.6959C15.6171 102.728 14.7427 103.603 14.7427 104.681C14.7427 105.76 15.6171 106.634 16.6959 106.634H24.9837C26.0625 106.634 26.9368 105.76 26.9368 104.681C26.9368 103.603 26.0625 102.728 24.9837 102.728H24.0933L31.1932 89.405H69.7827L76.8819 102.728H75.5269C74.4489 102.728 73.5738 103.603 73.5738 104.681C73.5738 105.76 74.4489 106.634 75.5269 106.634H83.8147C84.8935 106.634 85.7678 105.76 85.7678 104.681C85.7678 103.603 84.8935 102.728 83.8147 102.728H81.3084L72.6758 86.5287C72.6735 86.5241 72.6712 86.5196 72.6689 86.515L67.9417 77.6443C76.4562 72.9293 82.9045 64.923 85.558 55.3542H93.5574C94.6355 55.3542 95.5106 54.4792 95.5106 53.4011C95.5106 52.3223 94.6362 51.448 93.5574 51.448ZM33.2745 85.4987L36.4652 79.5097C40.7246 81.2469 45.3793 82.2067 50.2553 82.2067C55.277 82.2067 60.0652 81.1904 64.4269 79.3533L67.7014 85.4987H33.2745ZM50.2553 78.3004C32.8671 78.3004 18.6024 64.669 17.5893 47.5303H82.9213C81.9081 64.669 67.6442 78.3004 50.2553 78.3004ZM84.95 43.6241H15.5606C14.536 43.6241 13.7021 42.7902 13.7021 41.7648C13.7021 40.7401 14.536 39.9062 15.5606 39.9062H84.95C85.9753 39.9062 86.8092 40.7401 86.8092 41.7648C86.8092 42.7902 85.9753 43.6241 84.95 43.6241Z" fill="#D62C4B"/>
<path d="M49.9429 75.2288C60.0869 75.2288 69.3696 70.0797 74.775 61.4554C75.348 60.5414 75.0718 59.336 74.157 58.763C73.243 58.19 72.0376 58.467 71.4654 59.381C66.7787 66.8578 58.7335 71.3225 49.9429 71.3225C48.8641 71.3225 47.9897 72.1969 47.9897 73.2757C47.9897 74.3537 48.8641 75.2288 49.9429 75.2288Z" fill="#D62C4B"/>
<path d="M74.4605 54.0221C74.7787 54.7843 75.5607 55.2764 76.3862 55.2238C77.169 55.1734 77.8564 54.6447 78.1112 53.9031C78.3843 53.1089 78.0967 52.1926 77.4162 51.6998C76.7875 51.2435 75.9269 51.2023 75.2601 51.6006C74.4407 52.0904 74.0936 53.1402 74.4605 54.0221Z" fill="#D62C4B"/>
</svg>
