<svg width="209" height="180" viewBox="0 0 209 180" fill="none" xmlns="http://www.w3.org/2000/svg">
<g clip-path="url(#clip0)">
<path fill-rule="evenodd" clip-rule="evenodd" d="M104.36 180L93.4667 175.462L82.5732 170.924L104.36 149.011V180Z" fill="#50323A"/>
<path fill-rule="evenodd" clip-rule="evenodd" d="M126.15 170.924L115.256 175.462L104.378 179.991L104.36 180V149.011L104.372 149.023L126.15 170.924Z" fill="#5E3E44"/>
<path fill-rule="evenodd" clip-rule="evenodd" d="M135.175 149.011L130.663 159.969L126.159 170.899L126.15 170.924L104.36 149.011H135.175Z" fill="#834F58"/>
<path fill-rule="evenodd" clip-rule="evenodd" d="M126.15 127.101L130.663 138.056L135.166 148.995L135.175 149.011H104.36L104.372 149.002L126.15 127.101Z" fill="#DA717D"/>
<path fill-rule="evenodd" clip-rule="evenodd" d="M73.5474 149.011V149.008L78.0602 138.056L82.573 127.101L104.351 149.002L104.36 149.011H73.5474Z" fill="#B7686E"/>
<path fill-rule="evenodd" clip-rule="evenodd" d="M104.36 149.011L82.573 170.924L82.5607 170.899L78.0602 159.969L73.5474 149.011H104.36Z" fill="#73484E"/>
<path fill-rule="evenodd" clip-rule="evenodd" d="M104.36 118.025H104.363L115.256 122.563L126.147 127.098L126.15 127.101L104.372 149.002L104.36 149.011V118.025Z" fill="#F5DADE"/>
<path fill-rule="evenodd" clip-rule="evenodd" d="M82.5732 127.101L82.5763 127.098L93.4667 122.563L104.36 118.025V149.011L82.5732 127.101Z" fill="#E294A3"/>
<path fill-rule="evenodd" clip-rule="evenodd" d="M135.382 149.017L124.488 144.479L113.592 139.941L135.382 118.031V149.017Z" fill="#50323A"/>
<path fill-rule="evenodd" clip-rule="evenodd" d="M157.171 139.941L146.275 144.479L135.4 149.011L135.381 149.017V118.031L135.391 118.04L157.171 139.941Z" fill="#5E3E44"/>
<path fill-rule="evenodd" clip-rule="evenodd" d="M166.194 118.031L161.681 128.986L157.181 139.916L157.171 139.941L135.381 118.031H166.194Z" fill="#834F58"/>
<path fill-rule="evenodd" clip-rule="evenodd" d="M157.171 96.1184L161.681 107.076L166.188 118.013L166.194 118.031H135.381L135.391 118.022L157.171 96.1184Z" fill="#DA717D"/>
<path fill-rule="evenodd" clip-rule="evenodd" d="M104.566 118.031L104.569 118.028L109.079 107.076L113.592 96.1184L135.373 118.022L135.382 118.031H104.566Z" fill="#B7686E"/>
<path fill-rule="evenodd" clip-rule="evenodd" d="M135.382 118.031L113.592 139.941L113.583 139.916L109.079 128.986L104.566 118.031H135.382Z" fill="#73484E"/>
<path fill-rule="evenodd" clip-rule="evenodd" d="M135.381 87.042L135.384 87.0451L146.275 91.5802L157.165 96.1185H157.171L135.391 118.022L135.381 118.031V87.042Z" fill="#F5DADE"/>
<path fill-rule="evenodd" clip-rule="evenodd" d="M113.592 96.1185H113.595L124.488 91.5802L135.382 87.042V118.031L113.592 96.1185Z" fill="#E294A3"/>
<path fill-rule="evenodd" clip-rule="evenodd" d="M73.5507 149.017L62.6573 144.479L51.7607 139.941L73.5507 118.031V149.017Z" fill="#50323A"/>
<path fill-rule="evenodd" clip-rule="evenodd" d="M95.3377 139.941L84.4442 144.479L73.5692 149.011L73.5508 149.017V118.031L73.56 118.04L95.3377 139.941Z" fill="#5E3E44"/>
<path fill-rule="evenodd" clip-rule="evenodd" d="M104.363 118.031L99.8505 128.986L95.3499 139.916L95.3377 139.941L73.5508 118.031H104.363Z" fill="#834F58"/>
<path fill-rule="evenodd" clip-rule="evenodd" d="M95.3377 96.1184L99.8505 107.076L104.357 118.013L104.363 118.031H73.5508L73.56 118.022L95.3377 96.1184Z" fill="#DA717D"/>
<path fill-rule="evenodd" clip-rule="evenodd" d="M42.7383 118.031V118.028L47.248 107.076L51.7609 96.1184L73.5416 118.022L73.5508 118.031H42.7383Z" fill="#B7686E"/>
<path fill-rule="evenodd" clip-rule="evenodd" d="M73.5508 118.031L51.7609 139.941L51.7516 139.916L47.248 128.986L42.7383 118.031H73.5508Z" fill="#73484E"/>
<path fill-rule="evenodd" clip-rule="evenodd" d="M73.5508 87.042L73.5539 87.0451L84.4442 91.5802L95.3346 96.1185H95.3377L73.56 118.022L73.5508 118.031V87.042Z" fill="#F5DADE"/>
<path fill-rule="evenodd" clip-rule="evenodd" d="M51.7607 96.1185H51.7638L62.6573 91.5802L73.5507 87.042V118.031L51.7607 96.1185Z" fill="#E294A3"/>
<path fill-rule="evenodd" clip-rule="evenodd" d="M29.971 87.045L25.4581 76.0902L20.9453 65.1323H51.7578L29.971 87.045Z" fill="#50323A"/>
<path fill-rule="evenodd" clip-rule="evenodd" d="M51.7576 96.1214L40.8642 91.5832L29.9891 87.0511L29.9707 87.045L51.7576 65.1323V65.1478V96.1214Z" fill="#5E3E44"/>
<path fill-rule="evenodd" clip-rule="evenodd" d="M73.5473 87.045L62.6538 91.5832L51.785 96.109L51.7573 96.1214V65.1323L73.5473 87.045Z" fill="#834F58"/>
<path fill-rule="evenodd" clip-rule="evenodd" d="M82.5729 65.1323L78.0601 76.0902L73.5534 87.0264L73.5473 87.045L51.7573 65.1323H51.7727H82.5729Z" fill="#DA717D"/>
<path fill-rule="evenodd" clip-rule="evenodd" d="M29.9707 43.2229L29.9738 43.2199L40.8642 38.6847L51.7576 34.1465V65.1201V65.1325L29.9707 43.2229Z" fill="#B7686E"/>
<path fill-rule="evenodd" clip-rule="evenodd" d="M51.7578 65.1324H20.9453L20.9545 65.1077L25.4581 54.1777L29.971 43.2229L51.7578 65.1324Z" fill="#73484E"/>
<path fill-rule="evenodd" clip-rule="evenodd" d="M73.5473 43.2229L78.0601 54.1777L82.5699 65.1294L82.5729 65.1324H51.7727H51.7573L73.5473 43.2229Z" fill="#F5DADE"/>
<path fill-rule="evenodd" clip-rule="evenodd" d="M51.7573 34.1465H51.7635L62.6538 38.6847L73.5473 43.2229L51.7573 65.1325V34.1465Z" fill="#E294A3"/>
<path fill-rule="evenodd" clip-rule="evenodd" d="M82.573 108.955L78.0602 97.9999L73.5474 87.0452H104.36L82.573 108.955Z" fill="#50323A"/>
<path fill-rule="evenodd" clip-rule="evenodd" d="M104.36 118.031L93.4667 113.493L82.5917 108.964L82.5732 108.955L104.36 87.0452V87.0606V118.031Z" fill="#5E3E44"/>
<path fill-rule="evenodd" clip-rule="evenodd" d="M126.15 108.955L115.256 113.493L104.388 118.022L104.36 118.031V87.0452L126.15 108.955Z" fill="#834F58"/>
<path fill-rule="evenodd" clip-rule="evenodd" d="M135.175 87.0452L130.663 97.9999L126.159 108.939L126.15 108.955L104.36 87.0452H104.375H135.175Z" fill="#DA717D"/>
<path fill-rule="evenodd" clip-rule="evenodd" d="M82.5732 65.1324H82.5763L93.4667 60.5941L104.36 56.0559V87.0295V87.045L82.5732 65.1324Z" fill="#B7686E"/>
<path fill-rule="evenodd" clip-rule="evenodd" d="M104.36 87.045H73.5474L73.5566 87.0202L78.0602 76.0902L82.573 65.1323L104.36 87.045Z" fill="#73484E"/>
<path fill-rule="evenodd" clip-rule="evenodd" d="M126.15 65.1323V65.1354L130.663 76.0902L135.172 87.0419L135.175 87.045H104.375H104.36L126.15 65.1323Z" fill="#F5DADE"/>
<path fill-rule="evenodd" clip-rule="evenodd" d="M104.36 56.0559L104.366 56.059L115.256 60.5941L126.15 65.1324L104.36 87.045V56.0559Z" fill="#E294A3"/>
<path fill-rule="evenodd" clip-rule="evenodd" d="M135.176 87.045L130.663 76.0902L126.15 65.1323H156.965L135.176 87.045Z" fill="#50323A"/>
<path fill-rule="evenodd" clip-rule="evenodd" d="M156.966 96.1214L146.069 91.5832L135.194 87.0511L135.176 87.045L156.966 65.1323V65.1478V96.1214Z" fill="#5E3E44"/>
<path fill-rule="evenodd" clip-rule="evenodd" d="M178.752 87.045L167.859 91.5832L156.99 96.109L156.965 96.1214V65.1323L178.752 87.045Z" fill="#834F58"/>
<path fill-rule="evenodd" clip-rule="evenodd" d="M187.778 65.1323L183.265 76.0902L178.761 87.0264L178.752 87.045L156.965 65.1323H156.981H187.778Z" fill="#DA717D"/>
<path fill-rule="evenodd" clip-rule="evenodd" d="M135.176 43.2229L135.179 43.2199L146.069 38.6847L156.966 34.1465V65.1201V65.1325L135.176 43.2229Z" fill="#B7686E"/>
<path fill-rule="evenodd" clip-rule="evenodd" d="M156.965 65.1324H126.15L126.162 65.1077L130.663 54.1777L135.176 43.2229L156.965 65.1324Z" fill="#73484E"/>
<path fill-rule="evenodd" clip-rule="evenodd" d="M178.752 43.2229H178.755L183.265 54.1777L187.778 65.1294V65.1324H156.981H156.965L178.752 43.2229Z" fill="#F5DADE"/>
<path fill-rule="evenodd" clip-rule="evenodd" d="M156.965 34.1465H156.968L167.859 38.6847L178.752 43.2229L156.965 65.1325V34.1465Z" fill="#E294A3"/>
<path fill-rule="evenodd" clip-rule="evenodd" d="M73.5415 43.229L104.36 0L135.179 43.2198L126.162 65.1077L104.36 56.056L82.5733 65.1324L73.5415 43.229Z" fill="#A7CFA2"/>
<path fill-rule="evenodd" clip-rule="evenodd" d="M51.7642 34.1463L73.548 43.2228L86.257 25.3943L51.7642 15.1995V34.1463Z" fill="#638C5C"/>
<path fill-rule="evenodd" clip-rule="evenodd" d="M156.966 34.1463L135.179 43.2228L122.47 25.3943L156.966 15.1995V34.1463Z" fill="#638C5C"/>
<path fill-rule="evenodd" clip-rule="evenodd" d="M103.263 139.69C102.307 140.486 101.243 141.141 100.102 141.633C99.3416 141.964 98.5192 142.126 97.6908 142.109C95.6793 142.115 93.7142 141.502 92.0597 140.351L91.7249 140.583C90.4234 141.509 88.9101 142.09 87.3257 142.27C87.0756 142.294 86.8242 142.301 86.5731 142.291C84.7878 142.233 83.0793 141.547 81.7438 140.354C80.2116 141.433 78.4151 142.068 76.549 142.193C76.3147 142.207 76.0798 142.207 75.8455 142.193C74.7524 142.137 73.6838 141.846 72.7119 141.34C71.74 140.834 70.8873 140.124 70.2114 139.258C69.8335 139.536 69.4465 139.801 69.0563 140.058C67.2128 141.29 65.0856 142.025 62.8785 142.193C62.7126 142.193 62.5436 142.208 62.3746 142.193C60.8196 142.197 59.292 141.781 57.9517 140.988C56.6114 140.195 55.5076 139.054 54.756 137.685C52.4888 140.101 49.6718 142.381 46.2587 142.285C45.1034 142.263 43.9679 141.978 42.9374 141.453C41.907 140.927 41.0081 140.173 40.3082 139.248C39.4098 138.036 38.847 136.605 38.6769 135.103C36.0724 137.099 33.3166 138.888 30.4347 140.453C26.0693 142.807 20.8253 145.087 15.8087 145.192H15.5322C11.2897 145.081 7.36674 143.648 4.37458 140.558C1.49608 137.602 0.0706569 133.861 0 129.733C0 129.56 0 129.387 0.0153602 129.211C0.500742 122.254 3.90763 116.715 9.9319 113.242C14.6075 110.549 19.7624 108.757 25.2061 108.757C27.479 108.742 29.7404 109.083 31.9093 109.767C34.189 110.476 36.2678 111.722 37.9734 113.4C38.614 114.038 39.177 114.751 39.6508 115.522C40.7465 114.192 41.8125 112.836 42.8488 111.454C43.07 111.16 43.2881 110.867 43.5062 110.57C42.342 110.146 41.3374 109.369 40.6308 108.346C39.899 107.284 39.5097 106.021 39.5156 104.728C39.5148 104.253 39.5716 103.778 39.6846 103.316C40.3481 100.57 42.5539 99.1459 44.8333 97.8514C47.2451 96.5277 49.9304 95.7873 52.6762 95.6889C52.7807 95.6889 52.8882 95.6889 52.9834 95.6889C56.1756 95.6457 59.2655 96.8202 61.6312 98.9759C62.7158 99.9644 63.6022 101.152 64.2424 102.476C64.5496 102.046 64.8568 101.617 65.164 101.191C65.8022 100.301 66.5222 99.4737 67.3145 98.7195C67.8922 98.136 68.5477 97.6359 69.2622 97.2336C70.335 96.6399 71.5397 96.3285 72.7643 96.3284C72.8667 96.3284 72.9691 96.3284 73.0715 96.3284C75.9377 96.4767 78.2939 98.182 79.5228 100.777C80.2334 102.303 80.5955 103.97 80.5826 105.655C80.5875 106.91 80.4094 108.159 80.0542 109.362C79.7189 110.444 79.3083 111.502 78.8254 112.526C78.1895 113.916 77.4891 115.278 76.7856 116.635L76.3033 117.561C79.7347 114.542 84.0802 112.777 88.6344 112.554C88.7542 112.554 88.874 112.554 88.9938 112.554C89.7024 112.553 90.4096 112.615 91.1074 112.739C91.3409 112.782 91.5713 112.829 91.8017 112.881H93.9152C94.9046 112.882 95.8782 113.131 96.7475 113.606C97.6169 114.081 98.3544 114.767 98.8931 115.601C99.4318 116.436 99.7546 117.392 99.8322 118.384C99.9098 119.376 99.7397 120.372 99.3374 121.281C98.8766 122.323 98.4055 123.362 97.9243 124.398C98.3394 124.514 98.7434 124.667 99.1316 124.855C99.4633 124.361 99.8043 123.876 100.148 123.391C100.686 122.625 101.242 121.868 101.804 121.12C102.443 120.271 103.104 119.434 103.786 118.618C104.507 117.749 105.272 116.918 106.077 116.128C106.895 115.318 107.791 114.594 108.753 113.965C110.306 112.914 112.179 112.448 114.04 112.649C115.859 112.82 117.556 113.644 118.82 114.969C119.355 114.476 119.94 114.04 120.565 113.669C121.854 112.914 123.319 112.518 124.811 112.52H125.063C126.163 112.556 127.245 112.819 128.24 113.295C129.234 113.77 130.121 114.446 130.844 115.281C131.389 114.51 132.111 113.883 132.948 113.452C133.786 113.022 134.714 112.802 135.655 112.81H138.687C139.886 112.798 141.06 113.155 142.051 113.833C143.172 113.273 144.375 112.899 145.615 112.727C145.958 112.68 146.304 112.665 146.65 112.68C147.912 112.73 149.146 113.075 150.253 113.687C150.992 114.098 151.665 114.619 152.25 115.232C152.791 114.466 153.507 113.842 154.338 113.411C155.168 112.981 156.09 112.758 157.024 112.761H160.053C161.299 112.751 162.516 113.141 163.528 113.873C164.608 112.787 166.067 112.167 167.595 112.146L170.781 112.075C171.904 112.042 173.012 112.334 173.976 112.915C175.475 111.665 177.321 110.91 179.263 110.752C179.416 110.752 179.57 110.734 179.726 110.734C181.489 110.702 183.204 111.312 184.556 112.452C184.849 112.703 185.121 112.978 185.37 113.273C186.472 112.765 187.671 112.503 188.884 112.504H189.133C190.234 112.54 191.316 112.803 192.312 113.279C193.307 113.754 194.194 114.43 194.918 115.266C195.462 114.495 196.184 113.867 197.022 113.437C197.859 113.007 198.788 112.786 199.729 112.795H202.761C203.761 112.793 204.745 113.045 205.623 113.528C206.5 114.011 207.242 114.709 207.78 115.557C208.317 116.406 208.633 117.377 208.697 118.381C208.762 119.385 208.573 120.389 208.149 121.299C207.442 122.809 206.734 124.318 206.023 125.825L206.171 125.967C206.739 126.54 207.189 127.219 207.495 127.966C207.801 128.714 207.958 129.515 207.955 130.323C207.956 130.626 207.933 130.929 207.888 131.229C207.639 132.857 206.785 134.129 205.823 135.408C205.08 136.397 204.273 137.336 203.409 138.22C202.683 138.976 201.892 139.666 201.046 140.283C199.498 141.454 197.65 142.157 195.719 142.31C195.523 142.325 195.329 142.329 195.136 142.325C193.234 142.326 191.387 141.68 189.895 140.493C188.517 141.452 186.926 142.056 185.262 142.254C184.972 142.282 184.681 142.288 184.39 142.273C182.877 142.197 181.419 141.675 180.2 140.772C180.028 140.887 179.852 140.995 179.674 141.096C178.623 141.692 177.446 142.031 176.24 142.084C176.098 142.084 175.96 142.084 175.822 142.084C172.986 142.026 170.676 140.472 169.297 138.121L169.275 138.183C168.85 139.309 168.093 140.278 167.104 140.959C166.116 141.64 164.944 142 163.746 141.992H160.698C159.492 142.001 158.312 141.637 157.319 140.948C156.028 141.696 154.591 142.155 153.107 142.295C152.88 142.317 152.651 142.325 152.422 142.319C150.349 142.325 148.348 141.554 146.81 140.157L146.687 140.042C146.136 140.661 145.46 141.154 144.705 141.49C143.949 141.825 143.132 141.995 142.306 141.989H139.166C137.989 142 136.835 141.654 135.855 140.997C134.563 141.733 133.126 142.175 131.646 142.291C131.449 142.307 131.256 142.31 131.062 142.307C129.16 142.307 127.313 141.662 125.821 140.475C124.443 141.434 122.853 142.038 121.189 142.236C120.899 142.264 120.607 142.27 120.316 142.254C118.36 142.162 116.514 141.316 115.161 139.891C114.62 140.385 114.028 140.82 113.395 141.189C112.114 141.925 110.665 142.312 109.189 142.31H109.057C107.965 142.295 106.887 142.055 105.89 141.604C104.894 141.154 104 140.502 103.263 139.69Z" fill="#50323A"/>
<path fill-rule="evenodd" clip-rule="evenodd" d="M184.767 115.754C185.017 115.563 185.279 115.389 185.551 115.232C186.562 114.638 187.713 114.325 188.884 114.327H189.059C190.039 114.355 190.999 114.617 191.859 115.092C192.718 115.567 193.453 116.241 194.002 117.058C194.392 117.63 194.702 118.254 194.924 118.911C195.333 118.217 195.726 117.511 196.103 116.792C196.444 116.122 196.964 115.562 197.604 115.173C198.245 114.783 198.98 114.582 199.728 114.59H202.76C203.454 114.587 204.137 114.761 204.746 115.095C205.355 115.43 205.87 115.913 206.244 116.502C206.617 117.09 206.836 117.763 206.88 118.46C206.925 119.156 206.794 119.852 206.499 120.484C205.579 122.459 204.653 124.43 203.719 126.397C204.151 126.604 204.545 126.884 204.883 127.225C205.283 127.627 205.599 128.104 205.814 128.63C206.029 129.155 206.139 129.718 206.137 130.286C206.136 130.493 206.121 130.7 206.09 130.904C205.894 132.183 205.126 133.252 204.37 134.259C203.671 135.19 202.911 136.073 202.097 136.904C201.435 137.584 200.716 138.204 199.946 138.757C198.675 139.723 197.154 140.302 195.566 140.426C195.431 140.433 195.295 140.433 195.16 140.426C193.535 140.44 191.962 139.846 190.749 138.757C190.508 138.531 190.288 138.285 190.088 138.022L189.695 138.331C188.343 139.344 186.789 140.209 185.087 140.37C184.883 140.387 184.677 140.387 184.473 140.37C183.665 140.335 182.874 140.13 182.15 139.769C181.427 139.407 180.786 138.898 180.27 138.272C179.822 138.727 179.313 139.117 178.759 139.431C177.955 139.887 177.054 140.146 176.132 140.185C176.031 140.185 175.945 140.185 175.843 140.185C173.303 140.132 171.37 138.519 170.4 136.221C169.973 135.211 169.595 134.151 169.241 133.095L167.561 137.447C167.278 138.238 166.759 138.921 166.075 139.403C165.39 139.886 164.575 140.143 163.739 140.141H160.692C160.076 140.15 159.465 140.015 158.91 139.747C158.354 139.479 157.867 139.085 157.488 138.597L157.202 138.81C155.953 139.736 154.475 140.302 152.929 140.444C152.771 140.46 152.612 140.466 152.453 140.463C150.827 140.477 149.255 139.882 148.041 138.794C147.396 138.189 146.898 137.441 146.588 136.61C146.579 136.632 146.569 136.654 146.557 136.675C146.339 137.135 146.115 137.602 145.86 138.05C145.509 138.689 144.992 139.22 144.365 139.588C143.737 139.955 143.023 140.144 142.297 140.135H139.157C138.557 140.146 137.963 140.021 137.417 139.769C136.872 139.517 136.391 139.145 136.008 138.68L135.879 138.776C134.607 139.742 133.087 140.32 131.498 140.444C131.363 140.452 131.228 140.452 131.093 140.444C129.467 140.458 127.895 139.864 126.681 138.776C126.442 138.549 126.221 138.303 126.021 138.041L125.628 138.35C124.279 139.363 122.722 140.228 121.02 140.389C120.815 140.406 120.61 140.406 120.405 140.389C119.523 140.35 118.662 140.109 117.887 139.684C117.112 139.26 116.443 138.663 115.932 137.939C115.727 137.646 115.547 137.336 115.395 137.012C115.183 137.237 114.968 137.463 114.75 137.682C114.089 138.412 113.326 139.042 112.486 139.551C111.479 140.129 110.339 140.431 109.18 140.429H109.091C108.114 140.419 107.154 140.177 106.289 139.721C105.424 139.266 104.678 138.61 104.114 137.809C104.074 137.756 104.044 137.71 104.007 137.658C103.84 137.4 103.689 137.132 103.552 136.857C103.251 137.179 102.944 137.488 102.63 137.784C101.682 138.688 100.586 139.42 99.3894 139.947C98.8601 140.179 98.2864 140.292 97.709 140.277C95.8497 140.3 94.0428 139.658 92.6094 138.467C92.4353 138.315 92.2694 138.157 92.1117 137.994C91.6622 138.377 91.1925 138.735 90.7048 139.066C89.6529 139.819 88.4295 140.294 87.1473 140.447C86.9738 140.464 86.7994 140.47 86.6251 140.466C85.8289 140.435 85.047 140.243 84.3261 139.902C83.6051 139.56 82.9599 139.077 82.4287 138.479C82.2554 138.293 82.0952 138.095 81.9495 137.886C81.7559 138.05 81.5624 138.195 81.3658 138.362C79.9729 139.525 78.2557 140.226 76.4505 140.367C76.2879 140.378 76.1247 140.378 75.962 140.367C74.9132 140.32 73.8965 139.988 73.0202 139.407C72.1439 138.825 71.4407 138.016 70.9853 137.064C70.8901 136.873 70.8072 136.678 70.7304 136.481C69.8965 137.233 69.0037 137.917 68.0608 138.526C66.4796 139.591 64.6526 140.229 62.7554 140.379C62.6325 140.379 62.528 140.379 62.4051 140.379C61.3974 140.384 60.4008 140.167 59.4853 139.743C58.5698 139.319 57.7577 138.699 57.1059 137.926C56.2233 136.835 55.653 135.522 55.4562 134.13C55.1306 134.525 54.8019 134.912 54.4701 135.291C52.4579 137.602 49.6132 140.562 46.3077 140.472C45.4239 140.456 44.5552 140.239 43.7667 139.837C42.9782 139.435 42.2904 138.859 41.7549 138.152C40.7288 136.805 40.394 135.158 40.394 133.496C40.3949 132.717 40.4783 131.94 40.6428 131.179C37.2373 134.125 33.53 136.699 29.5835 138.856C25.4977 141.047 20.4503 143.283 15.7655 143.376H15.575C11.8025 143.277 8.32807 142.051 5.67383 139.301C3.12711 136.666 1.88294 133.366 1.8215 129.703C1.81536 129.582 1.81536 129.461 1.8215 129.341C2.26387 122.989 5.32976 118 10.8287 114.821C15.234 112.297 20.0909 110.598 25.2058 110.598C27.2892 110.586 29.3619 110.898 31.3499 111.525C33.3552 112.146 35.1844 113.239 36.6861 114.713C37.5347 115.544 38.2095 116.538 38.6706 117.636H38.772C39.2307 117.632 39.688 117.687 40.1329 117.799C41.5665 116.1 42.9551 114.357 44.2986 112.569C45.1976 111.37 46.0855 110.159 46.962 108.936C46.5471 109.075 46.1122 109.144 45.6748 109.14C44.9794 109.149 44.2921 108.988 43.6727 108.67C43.0533 108.352 42.5204 107.886 42.1205 107.314C41.5977 106.555 41.3228 105.652 41.334 104.728C41.3314 104.398 41.3706 104.069 41.4508 103.749C41.97 101.605 43.9606 100.447 45.724 99.4425C47.8918 98.2585 50.3029 97.5955 52.7682 97.5055H52.9894C55.7299 97.462 58.3843 98.4681 60.4145 100.32C62.2577 102.007 63.2561 104.206 63.6186 106.601L64.233 105.674C65.0102 104.528 65.8059 103.385 66.6323 102.275C67.2074 101.469 67.8575 100.719 68.5738 100.036C69.0377 99.5605 69.5662 99.1538 70.1436 98.8277C70.9495 98.3827 71.8539 98.149 72.7733 98.1481C72.847 98.1481 72.9084 98.1481 72.9822 98.1481C75.1787 98.2593 76.942 99.5785 77.879 101.546C78.4733 102.833 78.7725 104.237 78.7545 105.655C78.7585 106.731 78.6064 107.802 78.3029 108.834C77.9894 109.834 77.6065 110.811 77.1571 111.757C76.5427 113.116 75.8422 114.46 75.1541 115.773C74.0666 117.873 73.0221 119.999 71.9776 122.121L71.4062 123.277C71.8428 123.155 72.2962 123.105 72.7487 123.128C73.0666 123.138 73.3826 123.18 73.6918 123.255C74.2294 122.489 74.81 121.748 75.4183 121.034C77.0585 119.058 79.0882 117.446 81.3793 116.299C83.6704 115.152 86.1732 114.495 88.7294 114.37C88.8155 114.37 88.8923 114.37 88.9783 114.37C89.5798 114.369 90.1802 114.421 90.7723 114.528C91.0396 114.574 91.3069 114.63 91.5741 114.698H93.8997C94.5857 114.698 95.2609 114.87 95.8637 115.199C96.4666 115.529 96.9781 116.004 97.3517 116.583C97.7253 117.161 97.9492 117.825 98.003 118.513C98.0568 119.2 97.9389 119.891 97.6599 120.521C97.0454 121.908 96.4095 123.286 95.7705 124.664C95.5657 125.103 95.3609 125.543 95.1561 125.986L95.1807 126.002C96.4834 125.816 97.809 126.105 98.9194 126.814C99.1721 126.972 99.4125 127.15 99.6382 127.345C99.9106 126.933 100.182 126.522 100.452 126.11C100.827 125.541 101.22 124.979 101.614 124.423C102.142 123.672 102.686 122.934 103.236 122.202C103.85 121.378 104.492 120.567 105.162 119.77C105.838 118.949 106.556 118.164 107.312 117.416C108.042 116.688 108.842 116.036 109.702 115.47C110.902 114.644 112.355 114.276 113.8 114.432C114.637 114.503 115.449 114.758 116.178 115.177C116.907 115.596 117.536 116.171 118.021 116.86C118.222 117.147 118.4 117.45 118.553 117.765C118.768 117.534 118.986 117.305 119.207 117.086C119.861 116.362 120.617 115.737 121.45 115.232C122.46 114.637 123.609 114.325 124.78 114.327H124.955C125.935 114.355 126.895 114.617 127.755 115.092C128.614 115.567 129.349 116.241 129.898 117.058C130.288 117.63 130.598 118.254 130.819 118.911C131.229 118.217 131.622 117.511 131.999 116.792C132.347 116.123 132.873 115.565 133.519 115.18C134.164 114.795 134.904 114.599 135.655 114.614H138.684C139.276 114.603 139.864 114.725 140.404 114.971C140.944 115.217 141.422 115.58 141.805 116.035C143.028 115.242 144.407 114.725 145.848 114.518C146.086 114.486 146.327 114.474 146.567 114.484C147.547 114.52 148.504 114.788 149.362 115.266C150.127 115.686 150.798 116.259 151.334 116.95C151.365 116.987 151.39 117.021 151.417 117.061C151.828 117.623 152.154 118.242 152.385 118.899L153.307 116.959C153.635 116.249 154.16 115.649 154.82 115.233C155.48 114.817 156.245 114.602 157.024 114.614H160.053C160.747 114.605 161.432 114.776 162.04 115.113C162.649 115.449 163.16 115.938 163.524 116.533C163.611 116.669 163.69 116.811 163.761 116.956L163.896 116.616C164.185 115.852 164.697 115.193 165.365 114.725C166.032 114.258 166.824 114.004 167.638 113.996L170.823 113.925C171.437 113.902 172.047 114.022 172.607 114.275C173.167 114.528 173.662 114.907 174.052 115.383C175.408 113.789 177.329 112.791 179.407 112.603C179.52 112.603 179.616 112.603 179.714 112.603C181.039 112.559 182.335 112.998 183.364 113.839C183.98 114.353 184.462 115.01 184.767 115.754ZM178.894 124.587C178.63 124.896 178.353 125.204 178.067 125.483C178.317 125.915 178.546 126.359 178.752 126.814C178.991 126.656 179.245 126.524 179.511 126.422L179.434 126.295C179.137 125.77 178.953 125.188 178.894 124.587ZM13.2433 130.175C12.2948 129.345 11.578 128.28 11.1636 127.086C11.115 127.214 11.078 127.346 11.053 127.481C11.2127 128.513 12.165 129.375 12.9423 129.953C13.0406 130.033 13.142 130.107 13.2433 130.175Z" fill="white"/>
<path fill-rule="evenodd" clip-rule="evenodd" d="M182.504 121.124L182.648 120.944C183.324 120.105 184.041 119.301 184.798 118.535C185.321 117.943 185.927 117.431 186.596 117.015C187.293 116.607 188.086 116.393 188.893 116.397H188.979C189.639 116.412 190.286 116.586 190.865 116.904C191.445 117.223 191.94 117.676 192.31 118.226C192.925 119.132 193.258 120.202 193.265 121.3C193.329 122.443 192.859 123.672 192.383 124.698C191.815 125.909 191.207 127.114 190.586 128.315C191.508 127.268 192.399 126.181 193.25 125.09C195.024 122.801 196.591 120.357 197.931 117.787C198.102 117.452 198.361 117.171 198.682 116.976C199.002 116.781 199.37 116.68 199.744 116.684H202.776C203.123 116.683 203.465 116.771 203.769 116.938C204.074 117.106 204.331 117.348 204.517 117.642C204.704 117.937 204.813 118.274 204.835 118.622C204.857 118.97 204.791 119.319 204.644 119.634C203.415 122.282 202.168 124.93 200.893 127.562L200.414 128.553C200.759 128.279 201.177 128.113 201.615 128.075C201.679 128.075 201.738 128.075 201.802 128.075C202.104 128.069 202.404 128.123 202.685 128.235C202.965 128.347 203.221 128.514 203.436 128.726C203.644 128.936 203.809 129.185 203.92 129.46C204.031 129.734 204.087 130.027 204.085 130.324C204.085 130.427 204.077 130.53 204.06 130.632C203.934 131.473 203.237 132.384 202.736 133.051C202.085 133.921 201.378 134.747 200.619 135.523C200.04 136.125 199.409 136.674 198.733 137.163C197.769 137.888 196.619 138.318 195.418 138.402C195.351 138.407 195.283 138.407 195.216 138.402C194.096 138.423 193.008 138.026 192.162 137.287C191.43 136.578 190.991 135.617 190.933 134.596C190.157 135.35 189.336 136.055 188.476 136.709C187.453 137.478 186.199 138.226 184.903 138.347C184.801 138.354 184.698 138.354 184.596 138.347C184.022 138.324 183.462 138.17 182.957 137.895C182.453 137.62 182.018 137.232 181.686 136.762C181.23 136.092 180.95 135.315 180.875 134.507C180.236 135.288 179.573 136.079 178.879 136.799C178.55 137.144 178.172 137.439 177.757 137.673C177.233 137.971 176.645 138.138 176.043 138.158C175.995 138.161 175.947 138.161 175.899 138.158C174.175 138.124 172.956 136.993 172.304 135.455C171.69 133.984 171.174 132.406 170.685 130.886C170.467 130.203 169.792 128.146 169.322 127.525C169.29 127.511 169.257 127.499 169.223 127.491L165.657 136.743C165.51 137.135 165.247 137.472 164.904 137.709C164.56 137.945 164.153 138.07 163.737 138.065H160.689C160.354 138.065 160.023 137.983 159.727 137.825C159.43 137.667 159.176 137.439 158.988 137.16C158.799 136.881 158.681 136.559 158.644 136.224C158.607 135.889 158.652 135.549 158.775 135.236L159.291 133.923L158.966 134.303C158.615 134.704 158.262 135.103 157.894 135.489C157.62 135.773 157.337 136.045 157.04 136.301C156.742 136.558 156.345 136.873 155.983 137.142C155.031 137.844 153.908 138.271 152.733 138.377C152.653 138.384 152.573 138.384 152.493 138.377C151.373 138.398 150.285 138.001 149.439 137.262C148.551 136.431 148.21 135.279 148.21 134.089C148.21 132.9 148.542 131.714 148.982 130.651C149.108 130.342 149.24 130.033 149.372 129.724H149.169C148.686 129.707 148.204 129.664 147.725 129.598C147.673 129.703 147.624 129.805 147.575 129.906C147.267 130.547 146.965 131.188 146.668 131.828C146.635 131.899 146.604 131.958 146.564 132.026C146.383 132.335 146.217 132.644 146.054 132.953C145.824 133.394 145.608 133.839 145.396 134.287C145.185 134.735 144.939 135.257 144.708 135.742C144.512 136.159 144.309 136.583 144.094 136.978C143.917 137.298 143.659 137.563 143.344 137.747C143.03 137.931 142.673 138.026 142.309 138.022L139.163 138.093C138.819 138.094 138.48 138.008 138.177 137.843C137.874 137.677 137.618 137.438 137.431 137.148C137.244 136.857 137.132 136.523 137.106 136.178C137.08 135.833 137.141 135.486 137.283 135.171C137.421 134.862 137.56 134.553 137.701 134.244C137.33 134.676 136.946 135.096 136.549 135.501C135.968 136.103 135.336 136.652 134.66 137.142C133.697 137.875 132.543 138.312 131.339 138.402C131.271 138.407 131.204 138.407 131.136 138.402C130.017 138.424 128.93 138.026 128.086 137.287C127.353 136.578 126.914 135.617 126.857 134.596C126.081 135.35 125.26 136.055 124.399 136.709C123.376 137.478 122.126 138.226 120.826 138.347C120.724 138.354 120.621 138.354 120.519 138.347C119.946 138.324 119.385 138.17 118.881 137.895C118.376 137.62 117.942 137.232 117.61 136.762C117.009 135.848 116.71 134.767 116.756 133.672C116.747 132.721 116.949 131.78 117.346 130.917C117.745 130.061 118.24 129.208 118.719 128.387C119.045 127.667 119.379 126.947 119.717 126.224C119.508 126.296 119.287 126.331 119.066 126.329C118.679 126.336 118.296 126.24 117.959 126.048C117.621 125.857 117.341 125.579 117.146 125.242C116.943 124.888 116.837 124.488 116.839 124.08C116.838 123.923 116.855 123.766 116.891 123.614C117.103 122.687 117.966 121.646 118.559 120.92C119.238 120.092 119.942 119.267 120.71 118.51C121.232 117.919 121.838 117.407 122.507 116.99C123.204 116.582 123.998 116.369 124.805 116.372H124.894C125.554 116.387 126.201 116.562 126.781 116.88C127.36 117.199 127.855 117.653 128.224 118.204C128.841 119.11 129.173 120.18 129.179 121.278C129.247 122.421 128.774 123.651 128.298 124.676C127.729 125.887 127.121 127.092 126.5 128.294C127.422 127.247 128.313 126.159 129.164 125.069C130.938 122.78 132.505 120.335 133.846 117.765C134.016 117.43 134.276 117.149 134.596 116.955C134.916 116.76 135.284 116.659 135.658 116.663H138.69C139.037 116.662 139.379 116.749 139.683 116.917C139.988 117.084 140.245 117.326 140.432 117.621C140.618 117.915 140.727 118.252 140.749 118.6C140.771 118.949 140.706 119.297 140.558 119.613C140.537 119.656 140.515 119.702 140.497 119.749C142.033 118.186 143.91 116.842 146.118 116.548C146.238 116.536 146.358 116.536 146.478 116.548C147.14 116.569 147.787 116.748 148.367 117.07C148.891 117.359 149.351 117.752 149.719 118.226L149.759 118.278C150.091 118.735 150.345 119.245 150.511 119.786C150.689 120.35 150.777 120.939 150.773 121.531C150.772 121.978 150.727 122.423 150.637 122.86C150.537 123.33 150.4 123.792 150.229 124.241C150.14 124.472 150.048 124.701 149.952 124.93C150.582 124.902 151.218 124.837 151.796 124.772C152.219 123.926 152.641 123.078 153.061 122.229C153.78 120.774 154.48 119.316 155.184 117.855C155.347 117.503 155.608 117.205 155.935 116.997C156.261 116.79 156.641 116.681 157.027 116.684H160.053C160.399 116.685 160.74 116.773 161.043 116.941C161.346 117.109 161.602 117.351 161.788 117.644C161.974 117.938 162.083 118.274 162.106 118.621C162.128 118.968 162.064 119.316 161.918 119.631C161.037 121.524 160.148 123.414 159.251 125.3C158.735 126.385 158.219 127.463 157.694 128.547C157.991 128.318 158.337 128.163 158.705 128.093C158.826 128.069 158.949 128.058 159.073 128.059C159.495 128.053 159.91 128.165 160.271 128.384C160.633 128.602 160.926 128.918 161.119 129.295L165.81 117.376C165.955 116.995 166.21 116.666 166.544 116.433C166.877 116.2 167.272 116.073 167.678 116.069L170.867 115.998C171.211 115.99 171.552 116.069 171.857 116.228C172.163 116.387 172.425 116.621 172.617 116.908C172.81 117.195 172.928 117.526 172.96 117.871C172.992 118.215 172.938 118.563 172.802 118.881L171.604 121.704C171.604 121.686 171.638 121.67 171.656 121.652C172.813 120.393 173.888 119.061 174.876 117.663C176.003 116.042 177.552 114.834 179.567 114.676C179.62 114.673 179.673 114.673 179.727 114.676C180.564 114.638 181.387 114.907 182.043 115.433C182.374 115.71 182.64 116.057 182.821 116.45C183.003 116.842 183.096 117.271 183.093 117.704C183.071 118.308 183.011 118.911 182.912 119.508C182.851 120.063 182.713 120.606 182.504 121.124ZM181.705 122.168C181.607 122.242 181.505 122.309 181.398 122.369C180.943 122.614 180.411 122.673 179.914 122.532C179.422 122.404 178.981 122.127 178.651 121.738C178.283 122.102 177.939 122.489 177.619 122.897C176.964 123.735 176.201 124.481 175.349 125.115L175.383 125.158C176.565 126.66 177.343 128.556 177.902 130.364L177.991 130.642C178.507 129.947 179.204 129.032 179.797 128.609C180.143 128.355 180.561 128.221 180.989 128.226C181.548 128.215 182.093 128.404 182.525 128.76L182.571 128.797C182.648 128.665 182.725 128.535 182.799 128.402C183.127 127.682 183.459 126.962 183.8 126.239C183.59 126.311 183.37 126.347 183.149 126.344C182.761 126.354 182.379 126.257 182.041 126.066C181.704 125.875 181.424 125.595 181.232 125.257C181.029 124.904 180.923 124.503 180.925 124.095C180.924 123.938 180.941 123.782 180.977 123.629C181.131 123.102 181.377 122.607 181.705 122.168ZM137.83 125.427C137.492 126.141 137.151 126.848 136.807 127.559L136.328 128.55C136.673 128.276 137.091 128.11 137.529 128.071C137.597 128.071 137.652 128.071 137.716 128.071C138.018 128.066 138.318 128.12 138.599 128.232C138.879 128.344 139.135 128.511 139.351 128.723C139.572 128.945 139.743 129.212 139.855 129.505C140.066 129.045 140.278 128.578 140.494 128.127C140.991 127.06 141.491 125.994 141.993 124.93C141.954 124.975 141.918 125.022 141.885 125.072L141.845 125.133C141.274 126.008 140.386 126.616 139.326 126.391C138.981 126.33 138.655 126.192 138.371 125.986C138.159 125.833 137.976 125.644 137.83 125.427ZM94.7908 128.257C94.8553 128.229 94.9229 128.204 94.9874 128.183L95.1503 128.133C95.6058 128.019 96.0798 128 96.5429 128.078C97.0059 128.156 97.448 128.33 97.8413 128.587C98.6127 129.064 99.1875 129.804 99.4603 130.673C99.4933 130.773 99.5179 130.877 99.534 130.982C99.534 131.019 99.534 131.056 99.5494 131.093C99.9119 130.611 100.259 130.126 100.597 129.628C101.132 128.847 101.66 128.056 102.182 127.265C102.545 126.712 102.926 126.171 103.307 125.631C103.823 124.898 104.351 124.177 104.892 123.468C105.492 122.669 106.111 121.886 106.75 121.117C107.385 120.352 108.059 119.62 108.769 118.924C109.398 118.292 110.09 117.726 110.833 117.234C111.636 116.663 112.619 116.405 113.598 116.508C114.146 116.548 114.678 116.71 115.156 116.982C115.634 117.254 116.046 117.629 116.363 118.081C116.962 118.988 117.264 120.062 117.226 121.151C117.233 122.097 117.029 123.032 116.63 123.888C116.452 124.296 116.249 124.695 116.034 125.084L116.009 125.124C115.757 125.554 115.515 125.989 115.272 126.422C114.946 127.138 114.618 127.855 114.28 128.569C114.484 128.502 114.698 128.468 114.913 128.47C115.321 128.461 115.723 128.568 116.073 128.779C116.424 128.989 116.708 129.294 116.894 129.659C117.056 129.992 117.138 130.358 117.134 130.728C117.135 130.883 117.117 131.038 117.082 131.189C116.876 132.091 115.997 133.172 115.423 133.886C115.054 134.34 114.673 134.775 114.286 135.211C113.957 135.579 113.619 135.94 113.272 136.289C112.745 136.878 112.135 137.387 111.463 137.8C110.768 138.205 109.98 138.418 109.177 138.418H109.131C108.474 138.415 107.826 138.254 107.243 137.948C106.66 137.642 106.158 137.2 105.779 136.66L105.727 136.583C105.134 135.673 104.814 134.611 104.806 133.524C104.797 132.77 104.93 132.022 105.199 131.318L104.836 131.871C104.326 132.658 103.784 133.421 103.208 134.16C102.606 134.933 101.944 135.656 101.227 136.323C100.452 137.049 99.5595 137.636 98.5879 138.059C98.3226 138.175 98.0352 138.231 97.7461 138.223C96.3691 138.251 95.0267 137.787 93.9583 136.913C93.2659 136.328 92.7499 135.559 92.4684 134.695C92.1509 135.053 91.8253 135.404 91.4915 135.748C90.896 136.348 90.2425 136.886 89.5407 137.355C88.7741 137.913 87.8806 138.27 86.9418 138.393C86.8548 138.399 86.7676 138.399 86.6806 138.393C86.1548 138.374 85.6383 138.247 85.1628 138.02C84.6874 137.793 84.2631 137.471 83.9158 137.074C83.2315 136.285 82.8339 135.286 82.7884 134.241C81.9403 135.133 81.0319 135.965 80.0696 136.731C79.0068 137.632 77.6918 138.18 76.3064 138.297C76.2255 138.302 76.1445 138.302 76.0637 138.297C75.3775 138.275 74.7106 138.063 74.1359 137.686C73.5611 137.308 73.1004 136.779 72.8043 136.156C72.3565 135.178 72.146 134.106 72.1898 133.03V132.993C72.2044 132.585 72.2393 132.179 72.2943 131.776C71.5447 132.668 70.7583 133.524 69.935 134.352C69.0253 135.276 68.0143 136.092 66.9213 136.786C65.633 137.656 64.143 138.177 62.5959 138.297C62.5375 138.3 62.4791 138.3 62.4208 138.297C61.7105 138.306 61.0071 138.157 60.3601 137.863C59.7131 137.568 59.1382 137.134 58.676 136.592C57.696 135.418 57.3826 133.882 57.3703 132.384C57.3757 131.467 57.5282 130.556 57.8219 129.687C58.1449 128.721 58.5477 127.784 59.0262 126.885C59.5853 125.807 60.1382 124.723 60.6974 123.647C60.9022 123.236 61.107 122.824 61.3118 122.412C59.8955 124.574 58.4425 126.684 56.9341 128.767C55.6592 130.521 54.329 132.279 52.9036 133.916C51.4014 135.64 48.8393 138.458 46.3479 138.39C45.7702 138.383 45.2017 138.244 44.6857 137.983C44.1698 137.722 43.7201 137.345 43.3711 136.882C42.6338 135.915 42.4341 134.673 42.4341 133.484C42.4384 132.436 42.6202 131.397 42.9717 130.41C43.3536 129.352 43.835 128.333 44.4094 127.367C45.0883 126.196 45.801 125.038 46.5168 123.888C47.4405 122.404 48.3467 120.907 49.2356 119.4L49.9606 118.164C47.9923 120.875 45.807 123.42 43.4264 125.773C39.0149 130.163 34.0751 134.077 28.5946 137.027C24.8528 139.048 20.0389 141.22 15.7258 141.306C15.6941 141.309 15.6622 141.309 15.6306 141.306C12.3988 141.223 9.42812 140.216 7.14867 137.858C4.96753 135.6 3.93225 132.804 3.87695 129.669C3.87695 129.604 3.87695 129.548 3.87695 129.486C4.27325 123.824 6.94899 119.452 11.8642 116.625C15.9439 114.274 20.466 112.656 25.2092 112.656C27.0838 112.64 28.9494 112.919 30.7388 113.48C32.4282 114.002 33.9698 114.92 35.2363 116.159C36.0244 116.917 36.6134 117.859 36.9505 118.902C37.0297 119.159 37.0953 119.42 37.1471 119.684H38.7753C39.2401 119.667 39.7017 119.768 40.1178 119.977C40.3093 120.078 40.4852 120.206 40.64 120.357C42.4832 118.238 44.2517 116.05 45.9454 113.793C48.2495 110.722 50.4798 107.583 52.581 104.364C51.358 104.433 50.1657 104.776 49.0912 105.368C48.3017 105.847 47.4046 106.437 46.5783 106.842C46.2985 106.98 45.9902 107.051 45.6782 107.049C45.3156 107.059 44.956 106.981 44.6309 106.819C44.3058 106.657 44.025 106.418 43.8134 106.122C43.531 105.71 43.3848 105.219 43.3956 104.719C43.3952 104.554 43.4148 104.389 43.454 104.228C43.7889 102.844 45.6044 101.886 46.7411 101.234C48.6333 100.208 50.7363 99.6355 52.8852 99.5631H52.9958C55.2261 99.5213 57.3884 100.337 59.0415 101.843C60.9216 103.554 61.6528 105.93 61.7234 108.423V108.547C61.6721 109.799 61.452 111.039 61.0691 112.232C60.6685 113.512 60.1544 114.753 59.5331 115.94C58.9432 117.072 58.3288 118.197 57.6898 119.313C59.2719 116.91 60.8755 114.519 62.4484 112.109C63.5974 110.348 64.7524 108.584 65.9352 106.857C66.694 105.732 67.4712 104.617 68.2822 103.53C68.7851 102.816 69.3573 102.153 69.9903 101.553C70.3268 101.201 70.7116 100.899 71.1331 100.657C71.635 100.377 72.1996 100.23 72.7735 100.23H72.878C74.3157 100.304 75.4124 101.176 76.0207 102.461C76.4828 103.469 76.7138 104.57 76.6965 105.68C76.6998 106.555 76.5767 107.426 76.3309 108.266C76.0461 109.173 75.697 110.059 75.2865 110.916C74.6721 112.245 74.0023 113.558 73.3296 114.852C72.2359 116.965 71.1791 119.103 70.1316 121.238C69.2816 122.972 68.4143 124.695 67.5296 126.406C66.8332 127.761 66.142 129.123 65.4559 130.49C65.032 131.34 64.6081 132.211 64.2456 133.095C65.0427 132.519 65.7815 131.866 66.4513 131.145C67.4866 130.083 68.9089 128.652 69.7261 127.413C70.4081 126.372 71.2621 125.18 72.6599 125.232C73.1139 125.24 73.5567 125.376 73.9378 125.625C74.1038 125.737 74.2546 125.871 74.3864 126.023C75.142 124.747 76.0097 123.542 76.9791 122.421C78.4385 120.654 80.2481 119.213 82.2925 118.189C84.3369 117.165 86.5711 116.581 88.8526 116.474H88.9785C89.4595 116.474 89.9395 116.517 90.4132 116.601C90.7204 116.656 91.0276 116.721 91.3071 116.805H93.8999C94.2428 116.805 94.5801 116.891 94.8814 117.056C95.1826 117.22 95.4382 117.458 95.625 117.747C95.8118 118.036 95.9238 118.367 95.9508 118.711C95.9779 119.055 95.9192 119.4 95.78 119.715C95.1656 121.093 94.5512 122.458 93.9061 123.824C93.2609 125.189 92.6773 126.499 92.0782 127.84C92.4094 127.662 92.7816 127.577 93.1565 127.593C93.5906 127.596 94.0154 127.719 94.3853 127.948C94.5316 128.029 94.6677 128.128 94.7908 128.241V128.257ZM36.8645 124.448H36.4805C36.3044 124.791 36.1052 125.123 35.8845 125.439L36.2316 125.09C36.4559 124.877 36.6679 124.664 36.8645 124.448ZM31.5007 129.286C29.0154 130.707 26.1984 131.303 23.3322 131.386H23.2554C20.9549 131.4 18.6793 130.907 16.589 129.94C14.6444 128.995 13.0132 127.469 12.8657 125.192C12.8652 125.064 12.8775 124.935 12.9026 124.809C13.2835 121.84 16.0791 120.666 18.6903 120.255C21.4424 119.832 24.2258 119.648 27.0094 119.706H30.0046L29.7681 119.634C28.2298 119.183 26.6365 118.949 25.0341 118.939C21.0996 118.994 17.2383 120.016 13.7873 121.917C11.7291 123.064 9.25609 124.868 8.97961 127.423C9.09327 129.208 10.3374 130.565 11.7045 131.599C13.9133 133.271 16.6873 133.845 19.3846 133.92C22.2704 133.895 25.1053 133.152 27.6361 131.757C28.9912 131.037 30.2876 130.211 31.513 129.286H31.5007ZM22.4904 125.554C24.6517 125.545 26.7962 125.171 28.8342 124.448H27.3903C25.0581 124.468 22.732 124.693 20.4383 125.118C20.2448 125.149 19.8884 125.223 19.489 125.322C20.4816 125.481 21.4854 125.558 22.4904 125.554ZM86.3243 122.372C84.5609 123.403 83.1539 125.001 82.0019 126.811C81.2057 128.039 80.4805 129.312 79.83 130.623C81.3703 128.949 82.8233 127.196 84.1831 125.371C84.9142 124.407 85.6331 123.403 86.3243 122.372Z" fill="#50323A"/>
<path fill-rule="evenodd" clip-rule="evenodd" d="M72.2453 103.576L71.9135 103.922L71.8859 103.95C71.6879 104.129 71.5041 104.323 71.336 104.531C71.0534 104.87 70.783 105.226 70.5188 105.584C69.6986 106.693 68.9183 107.842 68.1534 108.982C67.0474 110.63 65.9487 112.286 64.8571 113.95C63.4593 116.072 62.0922 118.229 60.716 120.36C59.0724 122.872 57.3889 125.365 55.6256 127.796C54.3783 129.514 53.0819 131.235 51.6872 132.835C50.7994 133.898 49.8096 134.871 48.7319 135.739C48.0991 136.221 47.2297 136.771 46.4064 136.746C46.0718 136.748 45.7415 136.67 45.4417 136.521C45.142 136.371 44.8812 136.153 44.6799 135.884C44.1853 135.232 44.0809 134.281 44.0809 133.484C44.0842 132.622 44.2338 131.768 44.5232 130.957C44.8742 129.998 45.3123 129.073 45.8319 128.195C46.5047 127.036 47.2082 125.896 47.9148 124.76C48.8364 123.264 49.758 121.754 50.655 120.237C51.4722 118.844 52.2894 117.456 53.0912 116.051C53.7731 114.858 54.4193 113.644 55.0296 112.408C55.545 111.383 55.9676 110.313 56.2922 109.211C56.5707 108.263 56.7296 107.283 56.7653 106.295C56.7825 105.71 56.6918 105.128 56.498 104.577C56.455 104.484 56.4059 104.389 56.3567 104.293C54.5135 107.861 52.5167 111.355 50.3417 114.729C48.0219 118.307 45.3232 121.621 42.2929 124.614C37.9921 128.887 33.1628 132.702 27.8236 135.585C25.6781 136.772 23.438 137.777 21.1266 138.591C19.3788 139.221 17.547 139.584 15.6922 139.669H15.6676C12.872 139.595 10.2946 138.76 8.31928 136.715C6.42691 134.76 5.55445 132.359 5.50837 129.641C5.50698 129.628 5.50698 129.616 5.50837 129.604C5.86473 124.488 8.23634 120.608 12.6693 118.056C16.5001 115.85 20.7518 114.305 25.2063 114.305C26.907 114.29 28.5996 114.543 30.2229 115.053C31.678 115.488 33.0077 116.269 34.0998 117.33C34.6966 117.898 35.145 118.606 35.4054 119.39C35.5951 120.021 35.6984 120.675 35.7126 121.334H38.8031C39.0019 121.322 39.2006 121.357 39.3837 121.435C39.4921 121.496 39.5815 121.586 39.6418 121.696C39.702 121.805 39.7307 121.929 39.7247 122.053C39.7341 122.192 39.6996 122.33 39.6262 122.448C39.5528 122.565 39.4443 122.656 39.3161 122.708C39.091 122.781 38.8549 122.812 38.6188 122.801H35.4054C34.791 124.732 33.1444 126.236 31.5285 127.339C29.0893 129.004 26.2108 129.656 23.2985 129.743H23.2801C21.221 129.757 19.1837 129.319 17.3111 128.458C15.9287 127.784 14.6108 126.737 14.5064 125.084C14.5032 125.056 14.5032 125.028 14.5064 125.001C14.7798 122.863 17.1176 122.146 18.927 121.859C21.5908 121.45 24.2848 121.273 26.9788 121.33H34.2565C34.2214 121.072 34.1649 120.817 34.0875 120.567C33.9818 120.237 33.808 119.933 33.5776 119.675C32.7266 118.881 31.3043 118.362 30.1983 118.04C28.5102 117.554 26.7627 117.306 25.0066 117.305C20.8057 117.363 16.6828 118.454 12.998 120.484C10.3714 121.945 7.61579 124.151 7.3393 127.389C7.43454 129.752 8.90912 131.544 10.7185 132.915C13.2161 134.806 16.3035 135.486 19.3786 135.566C22.5374 135.549 25.6426 134.744 28.4166 133.224C31.7436 131.448 34.7511 128.918 37.3992 126.242C40.9395 122.652 44.2303 118.822 47.2481 114.778C50.0591 111.031 52.7624 107.184 55.2569 103.215C55.005 103.113 54.7531 103.017 54.5012 102.921C54.0188 102.76 53.5134 102.68 53.0051 102.683C51.38 102.773 49.6597 103.1 48.2527 103.956C47.7345 104.275 47.2143 104.589 46.6921 104.898C46.4248 105.053 46.1453 105.226 45.8688 105.359C45.812 105.389 45.7486 105.403 45.6845 105.402C45.5845 105.409 45.4844 105.391 45.3928 105.35C45.3013 105.309 45.221 105.246 45.1592 105.167C45.0699 105.03 45.0269 104.867 45.0363 104.704C45.0316 104.67 45.0316 104.636 45.0363 104.602C45.1192 104.25 45.5493 103.922 45.8258 103.721C46.3774 103.333 46.9497 102.975 47.54 102.649C49.212 101.748 51.0689 101.247 52.9652 101.188H52.9867C54.8115 101.146 56.5826 101.81 57.9358 103.042C59.4718 104.444 60.0247 106.418 60.0862 108.451V108.476C60.0402 109.58 59.8459 110.674 59.5086 111.726C59.1325 112.906 58.6545 114.052 58.0801 115.149C57.4657 116.339 56.8257 117.516 56.1601 118.68C55.4658 119.901 54.7828 121.129 54.1111 122.362V122.387C53.426 123.471 52.7379 124.55 52.0436 125.64C51.1711 127.001 50.3007 128.366 49.4324 129.733C48.6674 130.948 47.9148 132.177 47.2051 133.441C47.0239 133.75 46.345 134.985 46.345 135.331V135.35H46.5231C46.9717 135.384 47.6475 134.905 47.9793 134.645C48.9006 133.892 49.7492 133.054 50.5137 132.14C51.7763 130.697 52.9468 129.122 54.0681 127.562C55.6932 125.3 57.2507 122.983 58.7806 120.657C60.461 118.102 62.1598 115.563 63.8371 112.999C64.983 111.244 66.135 109.489 67.3085 107.747C68.055 106.644 68.82 105.547 69.6126 104.478C70.064 103.839 70.5787 103.248 71.1486 102.714C71.3842 102.46 71.6541 102.241 71.9504 102.062C72.2129 101.917 72.5077 101.84 72.8075 101.84C73.64 101.883 74.2114 102.399 74.5616 103.137C74.9164 103.926 75.0916 104.784 75.0747 105.649C75.0759 106.366 74.9724 107.079 74.7674 107.765C74.5057 108.598 74.1843 109.41 73.8059 110.196C73.2099 111.503 72.5464 112.788 71.8859 114.061C70.7861 116.184 69.7355 118.334 68.6725 120.481C67.8246 122.203 66.9604 123.916 66.0797 125.622C65.3793 126.984 64.6819 128.349 64 129.721C63.5177 130.688 63.0384 131.68 62.639 132.684C62.3938 133.224 62.2381 133.801 62.1782 134.392C62.1595 134.631 62.2165 134.87 62.3411 135.075C62.4092 135.134 62.4883 135.178 62.5737 135.206C62.6592 135.233 62.7493 135.244 62.8387 135.236H62.8602C63.4954 135.215 64.1149 135.032 64.6604 134.704C65.1191 134.448 65.5513 134.147 65.9507 133.805C66.5304 133.32 67.0842 132.805 67.6096 132.261C68.3653 131.488 69.1118 130.7 69.8184 129.885C70.2739 129.38 70.6957 128.845 71.081 128.285C71.3021 127.931 71.5507 127.595 71.8244 127.281C71.9149 127.156 72.0308 127.053 72.1643 126.977C72.2979 126.901 72.4459 126.855 72.5986 126.842C72.7483 126.839 72.8956 126.879 73.0225 126.959C73.1027 127.012 73.1683 127.085 73.2134 127.17C73.2585 127.255 73.2816 127.351 73.2806 127.447C73.2836 127.474 73.2836 127.501 73.2806 127.528C73.181 127.839 73.0282 128.131 72.829 128.39C72.5218 128.862 72.1562 129.316 71.806 129.774C70.8632 130.977 69.8486 132.123 68.7678 133.203C67.9402 134.039 67.0221 134.78 66.0306 135.412C64.9734 136.122 63.7528 136.547 62.4854 136.647H62.4486C61.9694 136.661 61.4932 136.567 61.0551 136.371C60.617 136.176 60.2282 135.884 59.9172 135.517C59.1953 134.655 58.9956 133.447 58.9956 132.356C59.0033 131.62 59.1288 130.89 59.3673 130.194C59.6627 129.314 60.0305 128.46 60.4671 127.642C61.0232 126.564 61.5761 125.479 62.1383 124.404C62.8694 122.996 63.574 121.572 64.2519 120.135C65.2871 117.954 66.3255 115.773 67.3853 113.604C68.2332 111.874 69.0862 110.148 69.9444 108.426C70.5434 107.234 71.1394 106.035 71.6954 104.827C71.8644 104.463 72.0303 104.095 72.1777 103.724C72.1931 103.684 72.2238 103.632 72.2453 103.576ZM87.3751 135.242C87.6199 135.086 87.8559 134.917 88.0816 134.735C88.5887 134.331 89.0738 133.9 89.5347 133.444C90.1 132.844 90.6622 132.233 91.1783 131.59C91.4962 131.219 91.7761 130.816 92.0139 130.388C92.1466 130.113 92.3028 129.849 92.4808 129.601C92.549 129.487 92.6431 129.392 92.7553 129.323C92.8675 129.253 92.9946 129.212 93.1259 129.202C93.2669 129.2 93.4056 129.238 93.5253 129.313C93.615 129.367 93.6887 129.445 93.7389 129.537C93.7891 129.629 93.814 129.733 93.811 129.838C93.8125 129.863 93.8125 129.888 93.811 129.913C93.7188 130.444 92.9232 131.497 92.6037 131.93C91.9131 132.868 91.1575 133.756 90.3427 134.587C89.8244 135.108 89.2565 135.577 88.6469 135.986C88.1033 136.388 87.4707 136.651 86.8037 136.752H86.7515C86.4444 136.739 86.1434 136.662 85.8675 136.525C85.5915 136.389 85.3465 136.197 85.1479 135.962C84.5888 135.362 84.4351 134.482 84.429 133.688C84.4477 132.892 84.5962 132.105 84.8683 131.358C85.1928 130.423 85.5777 129.51 86.0203 128.624C86.391 127.871 86.7576 127.115 87.1201 126.357C86.8129 126.777 86.5057 127.2 86.1985 127.617C85.539 128.505 84.8591 129.377 84.1587 130.234C83.4214 131.139 82.6595 132.023 81.8608 132.875C81.0045 133.8 80.0803 134.658 79.0959 135.443C78.2953 136.132 77.3033 136.557 76.2543 136.66H76.1867C75.7879 136.652 75.3992 136.533 75.0647 136.314C74.7301 136.096 74.4633 135.787 74.2943 135.424C73.9569 134.68 73.799 133.866 73.8335 133.048C73.9626 129.425 75.9348 126.137 78.2235 123.453C79.5421 121.854 81.1783 120.55 83.0272 119.625C84.8761 118.699 86.897 118.172 88.9603 118.077H88.9848C89.37 118.077 89.7545 118.111 90.1338 118.179C90.4539 118.234 90.7701 118.31 91.08 118.408H93.9062C93.9768 118.408 94.0463 118.426 94.1083 118.46C94.1703 118.494 94.2229 118.543 94.2614 118.602C94.2998 118.662 94.3229 118.73 94.3285 118.801C94.334 118.871 94.322 118.942 94.2933 119.007C93.6789 120.373 93.0584 121.733 92.4317 123.088C91.6452 124.781 90.8772 126.484 90.1276 128.198C89.4549 129.743 88.7851 131.287 88.1492 132.832C87.9342 133.363 87.7191 133.91 87.5502 134.46C87.4697 134.715 87.4111 134.977 87.3751 135.242ZM93.8694 133.336C93.6941 132.543 93.7882 131.714 94.1366 130.982C94.4205 130.399 94.9151 129.948 95.5191 129.721H95.5528C95.7952 129.662 96.047 129.655 96.2923 129.699C96.5377 129.743 96.7713 129.838 96.9783 129.977C97.4193 130.249 97.7469 130.673 97.8999 131.17C97.9082 131.192 97.9134 131.215 97.9152 131.238C98.007 131.736 97.987 132.247 97.8569 132.736C97.7069 133.201 97.4714 133.632 97.1626 134.009C97.0906 134.179 97.055 134.362 97.0581 134.547C97.0596 134.652 97.0928 134.754 97.1534 134.84C97.2069 134.9 97.2421 134.974 97.2548 135.053L97.2916 135.081C97.3861 135.132 97.4917 135.158 97.5988 135.158C98.0251 135.071 98.415 134.855 98.717 134.54C99.2805 134.016 99.7995 133.446 100.268 132.835C100.849 132.097 101.408 131.337 101.937 130.561C102.465 129.786 103.009 128.973 103.534 128.173C103.887 127.639 104.259 127.111 104.631 126.585C105.135 125.866 105.657 125.158 106.185 124.457C106.769 123.678 107.372 122.916 107.995 122.171C108.592 121.448 109.227 120.757 109.896 120.101C110.449 119.546 111.055 119.049 111.706 118.615C112.191 118.254 112.791 118.084 113.392 118.136C113.715 118.147 114.032 118.234 114.316 118.39C114.6 118.545 114.844 118.765 115.03 119.032C115.429 119.663 115.625 120.401 115.592 121.148C115.599 121.859 115.444 122.561 115.14 123.203C114.98 123.57 114.799 123.929 114.603 124.281C114.334 124.74 114.072 125.202 113.816 125.668C113.143 127.145 112.458 128.621 111.733 130.073C111.256 131.027 110.773 131.977 110.283 132.925C110.001 133.465 109.715 134.015 109.46 134.568C109.362 134.765 109.287 134.972 109.236 135.186C109.237 135.234 109.256 135.28 109.288 135.316C109.325 135.343 109.371 135.357 109.417 135.356C109.747 135.306 110.056 135.163 110.308 134.942C110.483 134.812 110.661 134.679 110.824 134.537C110.824 134.537 110.824 134.537 110.842 134.537C110.972 134.431 111.095 134.318 111.211 134.198C111.588 133.786 111.959 133.374 112.323 132.962C112.67 132.557 112.996 132.137 113.315 131.726C113.586 131.368 114.338 130.33 114.768 130.181C114.813 130.166 114.86 130.159 114.907 130.16C115.011 130.151 115.115 130.174 115.207 130.223C115.3 130.273 115.375 130.349 115.426 130.441C115.474 130.545 115.497 130.66 115.493 130.775C115.497 130.805 115.497 130.836 115.493 130.867C115.371 131.408 114.504 132.467 114.157 132.894C113.81 133.32 113.441 133.746 113.073 134.16C112.759 134.513 112.437 134.856 112.105 135.189C111.682 135.667 111.195 136.083 110.658 136.425C110.208 136.682 109.698 136.816 109.18 136.814C108.776 136.817 108.377 136.721 108.017 136.533C107.658 136.346 107.35 136.073 107.119 135.739V135.724C106.686 135.068 106.454 134.299 106.452 133.512C106.4 132.684 106.833 131.621 107.177 130.892C107.546 130.104 107.942 129.326 108.333 128.553C108.972 127.284 109.632 126.023 110.286 124.763C110.609 124.145 110.922 123.527 111.242 122.909C111.531 122.347 111.819 121.788 112.102 121.222C112.32 120.811 112.538 120.394 112.716 119.968C112.75 119.9 112.802 119.783 112.848 119.659C112.456 119.819 112.095 120.051 111.785 120.342C111.092 120.971 110.444 121.649 109.847 122.372C109.024 123.339 108.243 124.352 107.488 125.374C106.585 126.587 105.694 127.81 104.815 129.041C104.348 129.692 103.896 130.353 103.46 131.025C102.977 131.772 102.465 132.493 101.924 133.187C101.377 133.892 100.774 134.551 100.121 135.158C99.4847 135.759 98.7499 136.244 97.949 136.592C97.8937 136.615 97.834 136.627 97.7739 136.626C96.7774 136.653 95.8035 136.324 95.0245 135.699C94.6809 135.406 94.401 135.045 94.2023 134.638C94.0036 134.232 93.8902 133.788 93.8694 133.336ZM121.143 135.211C121.757 134.995 122.605 134.315 123.026 133.975C123.883 133.255 124.731 132.514 125.527 131.729C127.285 129.964 128.927 128.086 130.442 126.107C132.274 123.739 133.893 121.212 135.28 118.556C135.315 118.486 135.369 118.428 135.435 118.388C135.501 118.347 135.578 118.326 135.655 118.328H138.687C138.76 118.328 138.831 118.346 138.895 118.381C138.958 118.417 139.011 118.468 139.05 118.529C139.088 118.591 139.11 118.662 139.114 118.735C139.118 118.807 139.103 118.88 139.071 118.945C137.843 121.587 136.614 124.228 135.33 126.851C134.543 128.48 133.759 130.108 132.976 131.735C132.562 132.597 132.15 133.462 131.748 134.333C131.601 134.618 131.497 134.923 131.44 135.239C131.442 135.26 131.442 135.282 131.44 135.304C131.439 135.32 131.439 135.336 131.44 135.353C131.463 135.354 131.485 135.354 131.508 135.353C132.037 135.287 132.533 135.058 132.927 134.698C133.437 134.278 133.932 133.833 134.402 133.37C134.872 132.906 135.265 132.443 135.674 131.936C135.962 131.595 136.231 131.237 136.479 130.864C136.643 130.597 136.828 130.343 137.031 130.104C137.181 129.901 137.4 129.76 137.646 129.709H137.683C137.859 129.7 138.031 129.761 138.162 129.879C138.274 129.995 138.336 130.152 138.334 130.314C138.336 130.336 138.336 130.358 138.334 130.379C138.266 130.818 137.584 131.704 137.32 132.057C136.708 132.871 136.043 133.644 135.33 134.371C134.812 134.907 134.247 135.396 133.643 135.832C132.93 136.376 132.077 136.703 131.185 136.774H131.176C130.458 136.802 129.755 136.561 129.204 136.097C128.952 135.831 128.758 135.514 128.634 135.168C128.511 134.822 128.46 134.453 128.485 134.086C128.456 133.484 128.53 132.881 128.703 132.304C128.949 131.54 129.263 130.801 129.643 130.095C130.04 129.319 130.445 128.55 130.854 127.778L130.482 128.207C129.235 129.764 127.901 131.25 126.488 132.656C125.533 133.641 124.507 134.553 123.416 135.384C122.664 135.949 121.628 136.62 120.67 136.703H120.605C120.277 136.695 119.955 136.609 119.666 136.453C119.377 136.297 119.128 136.075 118.94 135.804C118.543 135.171 118.35 134.429 118.387 133.682C118.379 132.972 118.528 132.269 118.824 131.624C118.989 131.263 119.18 130.91 119.37 130.561C119.628 130.089 119.896 129.619 120.166 129.156C120.842 127.676 121.53 126.199 122.255 124.744L123.677 121.893C123.954 121.334 124.23 120.774 124.498 120.215C124.598 120.026 124.679 119.826 124.737 119.619C124.738 119.577 124.723 119.536 124.694 119.505C124.679 119.489 124.66 119.477 124.639 119.469C124.618 119.462 124.596 119.459 124.574 119.461C124.235 119.517 123.917 119.663 123.653 119.885C123.337 120.113 123.039 120.366 122.762 120.642C122.007 121.438 121.299 122.279 120.642 123.159C120.369 123.524 119.631 124.546 119.192 124.704C119.15 124.719 119.105 124.726 119.06 124.726C118.961 124.733 118.862 124.712 118.773 124.667C118.685 124.621 118.611 124.551 118.559 124.466C118.502 124.36 118.475 124.241 118.479 124.12C118.475 124.088 118.475 124.056 118.479 124.024C118.605 123.465 119.453 122.449 119.816 122.004C120.46 121.2 121.145 120.43 121.868 119.696C122.288 119.218 122.775 118.801 123.312 118.46C123.76 118.196 124.27 118.057 124.789 118.059H124.808C125.214 118.063 125.613 118.167 125.971 118.361C126.328 118.556 126.634 118.835 126.86 119.174C127.302 119.825 127.536 120.595 127.533 121.383C127.594 122.208 127.149 123.28 126.808 124.006C126.436 124.794 126.043 125.575 125.65 126.351C125.009 127.617 124.36 128.881 123.705 130.141C123.091 131.324 122.476 132.511 121.862 133.694C121.647 134.105 121.429 134.525 121.247 134.954C121.235 135.004 121.186 135.1 121.143 135.211ZM152.828 135.325C152.851 135.326 152.875 135.326 152.899 135.325C153.427 135.271 153.924 135.047 154.315 134.686C154.828 134.259 155.316 133.808 155.789 133.339C156.262 132.869 156.662 132.412 157.061 131.908C157.343 131.566 157.606 131.208 157.848 130.836C158.084 130.49 158.551 129.777 158.993 129.696C159.019 129.693 159.045 129.693 159.07 129.696C159.154 129.691 159.238 129.704 159.317 129.732C159.396 129.761 159.468 129.806 159.529 129.864C159.59 129.922 159.638 129.991 159.672 130.069C159.705 130.146 159.722 130.23 159.722 130.314C159.722 130.33 159.722 130.339 159.722 130.351C159.685 130.781 158.96 131.717 158.705 132.057C158.398 132.464 158.072 132.854 157.737 133.24C157.402 133.626 157.064 134.003 156.714 134.371C156.481 134.618 156.232 134.849 155.977 135.072C155.67 135.337 155.347 135.591 155.018 135.835C154.304 136.362 153.459 136.683 152.576 136.762H152.527C151.809 136.789 151.106 136.548 150.555 136.085C150.303 135.819 150.11 135.504 149.986 135.158C149.862 134.813 149.811 134.446 149.836 134.08C149.796 133.169 150.143 132.14 150.481 131.3C150.948 130.172 151.47 129.054 152.017 127.948L151.679 128.003C151.29 128.059 150.898 128.094 150.505 128.108C150.082 128.124 149.654 128.124 149.231 128.108C148.736 128.087 148.243 128.04 147.753 127.966C147.535 127.967 147.318 127.956 147.102 127.932L146.754 127.892C146.536 128.334 146.318 128.776 146.106 129.221C145.799 129.863 145.492 130.512 145.185 131.161C145.179 131.175 145.172 131.189 145.163 131.201C144.963 131.535 144.782 131.887 144.601 132.233C144.365 132.692 144.138 133.156 143.919 133.626L143.234 135.072C143.053 135.455 142.865 135.844 142.659 136.209C142.623 136.275 142.57 136.33 142.505 136.368C142.44 136.406 142.366 136.426 142.291 136.425H139.151C139.08 136.426 139.01 136.408 138.948 136.374C138.886 136.34 138.833 136.291 138.795 136.23C138.755 136.171 138.731 136.102 138.725 136.031C138.72 135.959 138.733 135.887 138.764 135.823C139.819 133.47 140.89 131.126 141.977 128.788C142.752 127.128 143.532 125.47 144.318 123.814C144.802 122.795 145.286 121.775 145.771 120.756C145.907 120.478 146.039 120.197 146.159 119.912C146.209 119.808 146.251 119.699 146.284 119.588C146.252 119.56 146.211 119.544 146.168 119.542C146.027 119.562 145.888 119.599 145.756 119.653C145.458 119.771 145.173 119.92 144.905 120.098C144.472 120.371 144.056 120.669 143.658 120.991C143.107 121.438 142.58 121.915 142.079 122.418C141.707 122.792 141.351 123.178 140.991 123.564C140.809 123.753 140.645 123.96 140.503 124.182V124.197C140.319 124.475 140.036 124.815 139.667 124.744C139.55 124.729 139.438 124.685 139.342 124.614C139.26 124.555 139.194 124.477 139.15 124.387C139.106 124.296 139.084 124.196 139.087 124.095C139.087 124.052 139.093 124.01 139.105 123.969C139.301 123.553 139.563 123.171 139.879 122.838C140.438 122.18 141.047 121.547 141.649 120.929C142.914 119.631 144.515 118.417 146.358 118.17C146.383 118.167 146.407 118.167 146.432 118.17C146.84 118.18 147.24 118.285 147.599 118.479C147.932 118.662 148.224 118.913 148.456 119.214C148.68 119.529 148.854 119.877 148.969 120.246C149.091 120.646 149.153 121.063 149.151 121.482C149.151 121.817 149.117 122.151 149.049 122.48C148.968 122.865 148.855 123.243 148.711 123.61C148.53 124.095 148.324 124.574 148.097 125.047L147.452 126.412L148.017 126.456H148.039C148.615 126.522 149.195 126.541 149.774 126.511C150.598 126.487 151.424 126.409 152.232 126.317C152.37 126.317 152.511 126.283 152.65 126.276L152.837 126.249C153.396 125.133 153.955 124.018 154.505 122.9C155.224 121.442 155.934 119.978 156.634 118.51C156.668 118.437 156.721 118.375 156.789 118.332C156.857 118.29 156.935 118.268 157.015 118.269H160.053C160.125 118.268 160.195 118.285 160.258 118.32C160.32 118.355 160.373 118.405 160.41 118.467C160.449 118.527 160.472 118.597 160.477 118.668C160.481 118.74 160.468 118.812 160.437 118.878C159.559 120.766 158.672 122.651 157.777 124.531C157.113 125.927 156.445 127.321 155.771 128.711C155.292 129.69 154.819 130.676 154.339 131.658C154.032 132.301 153.725 132.949 153.418 133.598C153.246 133.966 153.071 134.349 152.929 134.732C152.873 134.876 152.839 135.028 152.828 135.183C152.828 135.183 152.828 135.214 152.828 135.229C152.824 135.257 152.824 135.285 152.828 135.313V135.325ZM176.95 136.24C176.647 136.41 176.307 136.503 175.96 136.511H175.933C174.87 136.487 174.203 135.733 173.81 134.803C173.555 134.204 173.328 133.589 173.113 132.974C172.805 132.112 172.52 131.244 172.24 130.376C171.956 129.453 171.621 128.547 171.239 127.66C171.046 127.181 170.784 126.732 170.461 126.329C169.951 125.804 168.885 125.748 168.13 125.779L164.136 136.144C164.106 136.225 164.052 136.294 163.981 136.343C163.91 136.391 163.826 136.417 163.74 136.416H160.692C160.623 136.417 160.555 136.4 160.494 136.368C160.432 136.336 160.38 136.288 160.342 136.23C160.303 136.173 160.279 136.106 160.271 136.036C160.264 135.967 160.273 135.897 160.299 135.832L167.334 117.957C167.367 117.879 167.423 117.813 167.495 117.768C167.566 117.723 167.649 117.7 167.733 117.704L170.922 117.636C170.993 117.634 171.063 117.65 171.126 117.683C171.189 117.715 171.243 117.764 171.282 117.823C171.322 117.882 171.346 117.95 171.352 118.021C171.359 118.092 171.347 118.163 171.318 118.229L168.726 124.33C169.441 124.336 170.153 124.248 170.845 124.068C171.612 123.817 172.303 123.376 172.855 122.786C174.068 121.464 175.197 120.065 176.234 118.599C177.072 117.392 178.203 116.437 179.711 116.307H179.745C180.195 116.276 180.641 116.406 181.005 116.675C181.155 116.802 181.275 116.962 181.355 117.143C181.435 117.324 181.473 117.521 181.465 117.719C181.462 117.926 181.448 118.132 181.422 118.337C181.386 118.661 181.343 118.986 181.3 119.307C181.235 119.777 181.115 120.682 180.648 120.926C180.554 120.977 180.444 120.989 180.341 120.96C179.877 120.836 179.662 120.404 179.558 119.968C179.499 119.727 179.229 119.659 179.011 119.628C178.019 119.863 176.922 121.148 176.338 121.899C175.285 123.224 173.937 124.282 172.403 124.988C172.514 125.038 172.621 125.093 172.71 125.149C173.199 125.418 173.65 125.751 174.053 126.137L174.096 126.184C175.146 127.518 175.841 129.242 176.338 130.855C176.551 131.605 176.822 132.338 177.149 133.045C177.256 133.272 177.385 133.488 177.536 133.688C178.093 133.18 178.593 132.612 179.026 131.995C179.364 131.538 179.708 131.068 180.071 130.645C180.267 130.391 180.491 130.158 180.737 129.953C180.809 129.901 180.895 129.874 180.983 129.876C181.162 129.865 181.339 129.92 181.481 130.03C181.556 130.099 181.615 130.184 181.653 130.278C181.691 130.373 181.708 130.475 181.702 130.577C181.703 130.634 181.691 130.691 181.668 130.744C181.517 131.039 181.336 131.317 181.128 131.575C180.756 132.078 180.363 132.566 179.966 133.051C179.57 133.536 179.103 134.099 178.661 134.596C178.353 134.951 178.046 135.31 177.714 135.65C177.488 135.881 177.231 136.08 176.95 136.24ZM185.216 135.202C185.831 134.985 186.682 134.306 187.103 133.966C187.957 133.246 188.805 132.505 189.603 131.72C191.362 129.956 193.004 128.078 194.519 126.097C196.358 123.73 197.984 121.202 199.375 118.544C199.41 118.474 199.463 118.415 199.53 118.375C199.596 118.334 199.673 118.314 199.75 118.315H202.779C202.851 118.313 202.922 118.331 202.985 118.366C203.048 118.4 203.101 118.451 203.139 118.513C203.178 118.573 203.201 118.643 203.206 118.715C203.21 118.787 203.197 118.859 203.166 118.924C201.938 121.565 200.693 124.207 199.425 126.829C198.638 128.459 197.854 130.087 197.071 131.714C196.657 132.576 196.242 133.441 195.843 134.312C195.694 134.596 195.59 134.901 195.535 135.217C195.537 135.239 195.537 135.26 195.535 135.282C195.534 135.298 195.534 135.315 195.535 135.331C195.558 135.333 195.58 135.333 195.603 135.331C196.132 135.265 196.628 135.037 197.022 134.676C197.532 134.256 198.024 133.811 198.497 133.348C198.97 132.885 199.36 132.421 199.769 131.915C200.056 131.572 200.325 131.214 200.574 130.843C200.738 130.575 200.923 130.321 201.126 130.083C201.276 129.879 201.495 129.739 201.741 129.687H201.781C201.957 129.678 202.129 129.739 202.26 129.857C202.371 129.974 202.432 130.131 202.429 130.293C202.431 130.314 202.431 130.336 202.429 130.357C202.361 130.796 201.679 131.683 201.415 132.035C200.803 132.849 200.138 133.622 199.425 134.349C198.907 134.886 198.342 135.375 197.738 135.81C197.025 136.353 196.172 136.68 195.28 136.752H195.237C194.518 136.78 193.815 136.539 193.262 136.076C193.011 135.808 192.818 135.492 192.695 135.146C192.572 134.799 192.521 134.431 192.546 134.065C192.517 133.462 192.591 132.859 192.764 132.282C193.01 131.519 193.325 130.779 193.704 130.073C194.101 129.298 194.506 128.529 194.915 127.756L194.562 128.207C193.314 129.764 191.981 131.25 190.568 132.656C189.613 133.641 188.586 134.553 187.496 135.384C186.743 135.949 185.708 136.62 184.731 136.703H184.67C184.341 136.695 184.019 136.609 183.729 136.453C183.44 136.297 183.19 136.074 183.001 135.804C182.605 135.17 182.412 134.429 182.449 133.682C182.441 132.971 182.591 132.269 182.888 131.624C183.054 131.263 183.244 130.91 183.435 130.561C183.693 130.089 183.96 129.619 184.23 129.156C184.903 127.676 185.594 126.199 186.319 124.744L187.742 121.893C188.018 121.335 188.292 120.775 188.562 120.215C188.661 120.025 188.742 119.825 188.801 119.619C188.801 119.577 188.786 119.536 188.758 119.505C188.743 119.489 188.724 119.477 188.703 119.469C188.683 119.462 188.661 119.459 188.639 119.461C188.299 119.517 187.981 119.663 187.717 119.885C187.4 120.112 187.102 120.365 186.826 120.642C186.071 121.438 185.363 122.279 184.706 123.159C184.433 123.524 183.696 124.546 183.256 124.704C183.213 124.719 183.167 124.726 183.121 124.726C183.023 124.733 182.924 124.713 182.836 124.667C182.748 124.621 182.675 124.551 182.624 124.466C182.567 124.36 182.539 124.241 182.544 124.12C182.541 124.088 182.541 124.056 182.544 124.024C182.673 123.465 183.521 122.449 183.883 122.004C184.531 121.213 185.207 120.419 185.932 119.696C186.355 119.218 186.842 118.802 187.379 118.46C187.827 118.196 188.337 118.057 188.857 118.059H188.875C189.282 118.064 189.681 118.168 190.038 118.362C190.396 118.556 190.701 118.835 190.927 119.174C191.368 119.825 191.601 120.595 191.597 121.383C191.662 122.208 191.216 123.28 190.872 124.006C190.503 124.794 190.11 125.575 189.717 126.351C189.074 127.617 188.426 128.881 187.772 130.141C187.158 131.324 186.544 132.511 185.929 133.694C185.711 134.105 185.496 134.525 185.315 134.954C185.315 135.004 185.266 135.1 185.219 135.211L185.216 135.202ZM22.4998 127.197C25.1496 127.193 27.7731 126.668 30.2229 125.652C31.5746 125.069 33.1997 124.157 33.9708 122.798H27.3905C24.9639 122.815 22.5433 123.043 20.1558 123.481C19.0714 123.669 16.4694 124.204 16.1223 125.529C16.2267 126.069 17.4064 126.456 17.8119 126.592C19.3391 127.011 20.9168 127.214 22.4998 127.197ZM89.8573 119.622C89.7402 119.606 89.6221 119.599 89.504 119.6C85.5411 120.076 82.7025 122.653 80.6166 125.921C79.0806 128.34 76.9302 132.081 76.7827 135.025C76.7787 135.097 76.7787 135.17 76.7827 135.242C77.3326 135.134 78.0115 134.602 78.3924 134.265C79.0345 133.706 79.6581 133.126 80.2572 132.52C82.1211 130.587 83.8593 128.536 85.4612 126.378C87.1052 124.249 88.5754 121.99 89.8573 119.622Z" fill="white"/>
<path fill-rule="evenodd" clip-rule="evenodd" d="M52.9925 101.639C54.7123 101.596 56.3826 102.221 57.6558 103.385C58.9307 104.54 59.6004 106.245 59.6619 108.488C59.618 109.553 59.4299 110.607 59.1027 111.621C58.7371 112.779 58.2682 113.902 57.7019 114.976C57.1121 116.115 56.4751 117.287 55.7911 118.491C55.106 119.696 54.421 120.932 53.739 122.183C53.2106 123.017 52.5102 124.105 51.6715 125.433C50.8328 126.762 49.945 128.13 49.0603 129.53C48.1755 130.929 47.4259 132.171 46.8207 133.237C46.2155 134.303 45.8991 135.004 45.8991 135.338C45.8991 135.557 45.9636 135.684 46.0712 135.73C46.2006 135.778 46.3398 135.794 46.4767 135.776C47.3553 135.838 48.8002 134.721 50.8113 132.424C52.8225 130.128 55.5873 126.285 59.1058 120.895C61.0924 117.9 62.7789 115.346 64.1655 113.233C65.552 111.12 66.7071 109.375 67.6307 107.997C68.5523 106.622 69.3326 105.541 69.9255 104.744C70.3612 104.127 70.855 103.554 71.4001 103.032C71.6088 102.803 71.85 102.607 72.1159 102.448C72.3149 102.334 72.5407 102.274 72.7702 102.275C73.3846 102.306 73.8424 102.659 74.1619 103.329C74.4951 104.058 74.662 104.853 74.6503 105.655C74.6527 106.33 74.5585 107.003 74.3708 107.651C74.1095 108.463 73.7955 109.256 73.4307 110.027C73.0027 110.964 72.3647 112.246 71.5168 113.873C70.669 115.5 69.5968 117.641 68.3004 120.296C67.3768 122.174 66.5135 123.886 65.7107 125.433C64.9181 126.978 64.2208 128.346 63.6278 129.536C63.0349 130.725 62.5803 131.717 62.2516 132.529C61.9846 133.115 61.8194 133.742 61.7631 134.383C61.7271 134.737 61.8309 135.091 62.0519 135.368C62.1571 135.475 62.2835 135.557 62.4228 135.61C62.5621 135.664 62.7111 135.686 62.8598 135.677C63.5724 135.666 64.2695 135.467 64.8812 135.1C65.6738 134.675 66.6917 133.831 67.9349 132.566C69.7228 130.713 70.8963 129.369 71.4554 128.526C72.0145 127.682 72.377 127.259 72.6074 127.29C72.677 127.286 72.7462 127.302 72.8071 127.336C72.8292 127.35 72.8473 127.37 72.8596 127.393C72.872 127.417 72.8782 127.443 72.8778 127.469C72.8317 127.719 72.3647 128.396 71.4861 129.533C70.5541 130.727 69.5497 131.862 68.4786 132.931C67.6742 133.751 66.7796 134.477 65.8121 135.093C64.8136 135.759 63.6613 136.153 62.4666 136.24C62.048 136.256 61.6311 136.177 61.2474 136.008C60.8637 135.839 60.5232 135.584 60.2517 135.263C59.7172 134.63 59.4437 133.669 59.4284 132.372C59.4398 131.677 59.5579 130.988 59.7786 130.33C60.0711 129.479 60.4296 128.653 60.8507 127.858C61.333 126.931 61.8829 125.856 62.5219 124.621C63.1609 123.385 63.8675 121.955 64.6447 120.339C65.7629 117.954 66.8136 115.779 67.7751 113.811C68.7366 111.843 69.5938 110.104 70.3341 108.636C71.0745 107.169 71.6612 105.955 72.0913 105.025C72.3761 104.474 72.6046 103.895 72.7733 103.298C72.7779 103.193 72.7601 103.087 72.7211 102.989C72.6939 102.951 72.6571 102.921 72.6144 102.902C72.5717 102.883 72.5248 102.876 72.4784 102.881C72.3562 102.901 72.2463 102.967 72.1712 103.066L71.6213 103.638C71.092 104.16 70.6127 104.731 70.1897 105.343C69.5548 106.208 68.7623 107.349 67.812 108.766C66.8617 110.183 65.7619 111.836 64.5126 113.725C63.2684 115.615 61.8922 117.759 60.3715 120.135C56.5827 125.881 53.5843 130.024 51.3766 132.563C49.1688 135.103 47.5181 136.358 46.4244 136.329C46.1537 136.331 45.8863 136.269 45.6436 136.148C45.4009 136.028 45.1896 135.852 45.0267 135.634C44.6857 135.18 44.5136 134.469 44.5136 133.493C44.52 132.68 44.6623 131.874 44.9345 131.108C45.2777 130.175 45.7044 129.276 46.2094 128.42C46.7849 127.434 47.4761 126.293 48.283 124.998C49.091 123.7 50.0095 122.183 51.0264 120.462C51.905 118.961 52.7221 117.571 53.484 116.273C54.2459 114.976 54.8756 113.749 55.4347 112.606C55.9622 111.559 56.394 110.466 56.725 109.341C57.0133 108.354 57.1774 107.335 57.2134 106.307C57.2396 105.657 57.1351 105.009 56.9062 104.401C56.7548 104.063 56.5673 103.743 56.3471 103.446C54.4218 107.238 52.3076 110.929 50.0126 114.506C47.6986 118.046 45.0215 121.331 42.0253 124.309C37.2984 128.953 32.5071 132.585 27.6512 135.205C22.7954 137.824 18.8058 139.169 15.6826 139.239C12.7211 139.159 10.3659 138.218 8.61689 136.416C6.86787 134.614 5.97084 132.348 5.92578 129.619C6.27599 124.627 8.59538 120.895 12.8839 118.423C17.1725 115.952 21.2798 114.716 25.2059 114.716C26.8675 114.7 28.5212 114.948 30.1058 115.451C31.4916 115.869 32.7563 116.617 33.7922 117.633C34.3395 118.152 34.751 118.799 34.9903 119.517C35.1987 120.246 35.293 121.002 35.2699 121.76H38.7812C38.9107 121.75 39.0408 121.769 39.1622 121.816C39.2037 121.839 39.2372 121.875 39.2581 121.918C39.2789 121.961 39.2862 122.009 39.2789 122.056C39.2789 122.189 39.2328 122.285 39.1406 122.316C38.9641 122.367 38.7803 122.388 38.5969 122.378H35.0825C34.6852 123.997 33.4215 125.534 31.2916 126.99C29.1616 128.446 26.4931 129.223 23.2859 129.319C21.2885 129.343 19.3108 128.921 17.4951 128.084C15.8567 127.297 15.0016 126.292 14.9299 125.069C15.1142 123.613 16.4659 122.693 18.9942 122.288C21.6366 121.881 24.309 121.706 26.9815 121.763H34.7138C34.6967 121.314 34.6202 120.869 34.4865 120.441C34.3614 120.046 34.1517 119.683 33.8721 119.378C33.1563 118.708 31.9767 118.142 30.327 117.636C28.5986 117.139 26.8099 116.886 25.0123 116.885C20.7347 116.941 16.5362 118.053 12.7856 120.123C9.0992 122.182 7.14026 124.605 6.90883 127.392C6.98666 129.579 8.17042 131.536 10.4601 133.261C12.7498 134.987 15.7194 135.9 19.369 135.999C22.5987 135.984 25.7743 135.163 28.6097 133.607C31.6019 132.013 34.6309 129.66 37.6968 126.548C41.2554 122.951 44.5588 119.106 47.5826 115.044C50.757 110.815 53.5219 106.808 55.8771 103.02C55.4808 102.85 55.0692 102.683 54.6483 102.529C54.115 102.348 53.5553 102.258 52.9925 102.263C50.9711 102.372 49.3152 102.817 48.025 103.598C46.7347 104.378 45.9524 104.84 45.6779 104.982C45.5858 104.982 45.5213 104.966 45.4998 104.929C45.4701 104.867 45.4584 104.797 45.466 104.728C45.5336 104.438 46.3046 103.876 47.7669 103.048C49.3768 102.178 51.1656 101.695 52.9925 101.639ZM22.4994 127.623C25.2065 127.622 27.8869 127.086 30.3884 126.045C32.7047 125.044 34.1199 123.819 34.634 122.372H27.3901C24.9383 122.379 22.4922 122.609 20.0817 123.061C17.3937 123.527 15.9314 124.349 15.6918 125.507C15.7287 126.1 16.3984 126.601 17.6886 126.999C19.2554 127.432 20.8747 127.642 22.4994 127.623ZM93.9089 118.837C93.4328 119.906 92.8214 121.259 92.0503 122.909C91.2793 124.559 90.5143 126.255 89.7432 128.028C88.9722 129.801 88.3055 131.352 87.7587 132.687C87.2119 134.021 86.9446 134.908 86.9446 135.368C86.9386 135.465 86.9565 135.562 86.9968 135.65C87.0229 135.689 87.0594 135.72 87.1023 135.74C87.1452 135.76 87.1928 135.767 87.2395 135.761C87.6456 135.6 88.0192 135.367 88.3424 135.072C88.8626 134.655 89.3609 134.212 89.8354 133.743C91.2117 132.287 92.0637 131.235 92.3913 130.586C92.72 129.937 92.9597 129.622 93.1163 129.632C93.1808 129.63 93.2446 129.646 93.3007 129.678C93.3289 129.694 93.3521 129.718 93.3673 129.747C93.3825 129.776 93.3892 129.809 93.3867 129.842C93.3406 130.117 92.9597 130.725 92.2592 131.68C91.5765 132.598 90.8345 133.47 90.0382 134.29C89.537 134.789 88.9897 135.239 88.4038 135.634C87.9199 135.998 87.3544 136.237 86.7572 136.329C86.5065 136.316 86.261 136.252 86.0364 136.139C85.8117 136.026 85.6126 135.868 85.4516 135.674C85.0615 135.26 84.8618 134.596 84.8372 133.688C84.8592 132.941 85.0003 132.202 85.255 131.501C85.5728 130.583 85.9494 129.687 86.3824 128.819C86.8576 127.863 87.3471 126.847 87.8509 125.77C88.3639 124.692 88.8708 123.607 89.3685 122.501C88.8093 123.246 88.2318 124.046 87.6573 124.849C87.0829 125.652 86.4746 126.505 85.8387 127.364C85.2028 128.223 84.5238 129.085 83.8111 129.968C83.0984 130.852 82.3396 131.72 81.5317 132.585C80.6894 133.494 79.7806 134.339 78.8129 135.112C78.084 135.748 77.1773 136.142 76.2171 136.24C75.8945 136.239 75.5788 136.145 75.3069 135.971C75.0349 135.796 74.8179 135.548 74.681 135.254C74.3719 134.571 74.2287 133.823 74.2633 133.073C74.3718 130.08 75.8054 126.97 78.5641 123.74C79.8462 122.184 81.4377 120.915 83.2365 120.014C85.0353 119.113 87.0016 118.601 89.009 118.51C89.3685 118.51 89.7272 118.542 90.0812 118.606C90.4059 118.661 90.7262 118.739 91.0396 118.84L93.9089 118.837ZM90.4959 119.313C90.3642 119.308 90.2339 119.284 90.1088 119.242C89.9031 119.19 89.6911 119.167 89.479 119.174C85.8315 119.603 82.7595 121.775 80.2629 125.693C77.7664 129.61 76.4649 132.714 76.3584 135.004C76.3477 135.172 76.3739 135.341 76.4352 135.498C76.463 135.555 76.5074 135.601 76.5623 135.632C76.6172 135.662 76.6801 135.675 76.7424 135.668C77.2554 135.616 77.9005 135.248 78.6778 134.574C79.455 133.901 80.0786 133.317 80.5671 132.807C82.4463 130.866 84.196 128.802 85.8049 126.629C87.5805 124.334 89.1503 121.886 90.4959 119.313ZM96.7905 133.768C96.6836 134.014 96.6311 134.281 96.6369 134.55C96.6422 134.751 96.7135 134.944 96.8396 135.1C96.8396 135.208 96.9164 135.31 97.0547 135.409C97.2245 135.51 97.4194 135.561 97.6169 135.557C98.0285 135.557 98.4863 135.297 99.0085 134.837C99.5886 134.296 100.124 133.708 100.609 133.079C101.159 132.384 101.727 131.609 102.296 130.781C102.864 129.953 103.398 129.146 103.896 128.39C104.16 127.991 104.511 127.463 104.984 126.811C105.457 126.159 105.964 125.442 106.52 124.692C107.076 123.941 107.684 123.175 108.314 122.424C108.902 121.712 109.528 121.031 110.188 120.385C110.718 119.849 111.302 119.37 111.929 118.955C112.473 118.603 112.946 118.46 113.336 118.541C113.601 118.545 113.861 118.613 114.095 118.737C114.328 118.862 114.53 119.04 114.682 119.258C115.028 119.817 115.195 120.469 115.161 121.127C115.17 121.775 115.029 122.417 114.75 123.002C114.595 123.36 114.421 123.709 114.23 124.049C113.997 124.448 113.733 124.917 113.429 125.458C112.628 127.225 111.934 128.694 111.346 129.866C110.762 131.031 110.28 131.986 109.899 132.712C109.518 133.438 109.238 134 109.069 134.377C108.935 134.621 108.846 134.888 108.805 135.165C108.806 135.319 108.864 135.468 108.968 135.582C109.026 135.642 109.097 135.689 109.175 135.72C109.253 135.751 109.336 135.765 109.42 135.761C109.842 135.716 110.24 135.541 110.559 135.26C110.771 135.103 110.956 134.951 111.106 134.828C111.25 134.711 111.388 134.586 111.518 134.454C111.914 134.025 112.286 133.601 112.645 133.187C113.005 132.773 113.336 132.344 113.656 131.915C114.307 131.046 114.728 130.577 114.906 130.515C114.984 130.515 115.03 130.531 115.045 130.561C115.063 130.606 115.072 130.655 115.069 130.704C115.008 130.975 114.587 131.593 113.819 132.557C113.438 133.021 113.078 133.434 112.744 133.808C112.409 134.182 112.092 134.519 111.788 134.825C111.395 135.274 110.94 135.664 110.436 135.983C110.052 136.206 109.615 136.321 109.171 136.317C108.832 136.321 108.497 136.241 108.196 136.084C107.895 135.927 107.637 135.699 107.444 135.418C107.047 134.83 106.833 134.136 106.83 133.425C106.79 132.878 107.017 132.066 107.515 131.003C107.77 130.463 108.16 129.69 108.664 128.674C109.168 127.657 109.822 126.397 110.615 124.889L111.57 123.02C111.877 122.436 112.163 121.871 112.433 121.334C112.997 120.285 113.292 119.628 113.321 119.363C113.321 119.199 113.211 119.112 112.977 119.112C112.575 119.143 112.055 119.421 111.478 119.943C110.769 120.585 110.107 121.277 109.496 122.013C108.765 122.872 107.973 123.88 107.119 125.038C106.265 126.195 105.373 127.42 104.443 128.711C104.001 129.329 103.543 129.987 103.076 130.713C102.609 131.439 102.096 132.152 101.54 132.854C101.006 133.541 100.418 134.184 99.7827 134.778C99.1811 135.345 98.4869 135.802 97.7305 136.131C96.8343 136.163 95.956 135.874 95.2514 135.316C94.9545 135.062 94.7126 134.749 94.5403 134.397C94.3681 134.046 94.2693 133.662 94.2499 133.271C94.1025 132.409 94.17 131.726 94.468 131.173C94.7006 130.683 95.1122 130.303 95.617 130.11C95.8039 130.066 95.9978 130.062 96.1866 130.097C96.3754 130.132 96.5548 130.206 96.7137 130.314C97.0695 130.534 97.3345 130.875 97.4602 131.275C97.5414 131.711 97.5246 132.16 97.411 132.588C97.2831 133.018 97.0722 133.419 96.7905 133.768ZM124.804 118.448C125.144 118.451 125.478 118.536 125.777 118.698C126.076 118.859 126.332 119.092 126.522 119.375C126.917 119.961 127.126 120.653 127.121 121.361C127.167 121.908 126.943 122.721 126.439 123.783C125.935 124.846 124.903 126.894 123.345 129.906C122.675 131.22 122.061 132.403 121.502 133.453C120.952 134.51 120.657 135.165 120.623 135.424C120.618 135.464 120.625 135.504 120.641 135.54C120.658 135.576 120.685 135.607 120.719 135.628C120.797 135.662 120.882 135.678 120.967 135.674C121.502 135.597 122.273 135.134 123.29 134.275C124.307 133.416 125.133 132.665 125.818 132.007C127.592 130.232 129.25 128.344 130.783 126.354C132.632 123.966 134.265 121.418 135.664 118.739H138.696C137.203 121.937 135.957 124.571 134.957 126.641C133.953 128.711 133.17 130.348 132.601 131.525C132.033 132.702 131.621 133.583 131.372 134.13C131.171 134.48 131.056 134.874 131.038 135.279C131.037 135.407 131.087 135.53 131.176 135.622C131.227 135.668 131.288 135.704 131.353 135.727C131.418 135.749 131.488 135.759 131.557 135.755C132.182 135.692 132.77 135.429 133.234 135.004C133.802 134.54 134.3 134.077 134.742 133.645C135.523 132.848 136.235 131.988 136.871 131.071C137.277 130.453 137.556 130.126 137.728 130.11C137.791 130.103 137.855 130.12 137.907 130.157C137.923 130.174 137.936 130.195 137.944 130.218C137.952 130.241 137.955 130.265 137.953 130.29C137.922 130.493 137.612 130.985 137.031 131.776C136.427 132.575 135.773 133.335 135.071 134.049C134.571 134.569 134.025 135.042 133.44 135.464C132.792 135.962 132.014 136.261 131.2 136.323C130.585 136.354 129.981 136.153 129.505 135.761C129.118 135.402 128.924 134.832 128.924 134.049C128.897 133.492 128.965 132.934 129.124 132.4C129.373 131.664 129.681 130.95 130.045 130.265C130.491 129.415 131.071 128.297 131.802 126.922C132.534 125.547 133.458 123.786 134.567 121.646C133.247 123.84 131.779 125.942 130.174 127.935C128.934 129.479 127.611 130.954 126.211 132.353C125.269 133.322 124.257 134.22 123.185 135.041C122.169 135.801 121.321 136.215 120.651 136.277C120.387 136.272 120.127 136.204 119.894 136.079C119.661 135.954 119.46 135.775 119.309 135.557C118.961 134.996 118.794 134.341 118.832 133.682C118.823 133.034 118.96 132.393 119.232 131.806C119.496 131.235 119.944 130.422 120.568 129.35C121.367 127.593 122.067 126.122 122.657 124.936C123.247 123.749 123.723 122.801 124.079 122.081C124.436 121.361 124.709 120.799 124.903 120.401C125.039 120.161 125.134 119.9 125.185 119.628C125.189 119.475 125.132 119.327 125.029 119.214C124.972 119.15 124.901 119.099 124.822 119.067C124.742 119.034 124.656 119.02 124.571 119.026C124.148 119.084 123.749 119.259 123.419 119.532C123.087 119.779 122.773 120.048 122.479 120.339C121.712 121.148 120.994 122.002 120.328 122.897C119.683 123.756 119.272 124.216 119.084 124.278C119.007 124.278 118.968 124.262 118.952 124.231C118.934 124.19 118.927 124.144 118.931 124.099C119.001 123.79 119.419 123.172 120.181 122.245C120.817 121.448 121.495 120.686 122.212 119.962C122.605 119.509 123.06 119.115 123.563 118.791C123.941 118.572 124.369 118.458 124.804 118.46V118.448ZM160.056 118.729C159.052 120.89 158.166 122.774 157.396 124.383C156.626 125.991 155.958 127.382 155.393 128.556L153.961 131.504C153.57 132.301 153.263 132.949 153.039 133.45C152.8 133.957 152.637 134.349 152.536 134.621C152.452 134.824 152.409 135.043 152.41 135.263C152.41 135.572 152.582 135.748 152.917 135.748C153.541 135.696 154.131 135.438 154.594 135.013C155.162 134.534 155.66 134.086 156.102 133.638C156.615 133.098 157.052 132.613 157.402 132.174C157.695 131.821 157.966 131.45 158.216 131.065C158.631 130.447 158.916 130.138 159.088 130.104C159.26 130.07 159.313 130.166 159.313 130.29C159.313 130.472 158.987 130.963 158.391 131.776C158.084 132.174 157.777 132.557 157.442 132.934C157.107 133.311 156.781 133.685 156.431 134.052C156.228 134.262 155.995 134.488 155.724 134.723C155.454 134.958 155.141 135.208 154.803 135.464C154.152 135.95 153.38 136.245 152.573 136.317C151.958 136.347 151.353 136.147 150.877 135.755C150.49 135.396 150.296 134.828 150.296 134.052C150.262 133.388 150.465 132.526 150.911 131.457C151.356 130.388 151.986 129.017 152.8 127.352C152.388 127.447 152.007 127.515 151.642 127.571C151.268 127.625 150.892 127.66 150.514 127.673C150.127 127.688 149.716 127.688 149.285 127.673C148.796 127.653 148.308 127.606 147.823 127.531C147.61 127.533 147.396 127.522 147.184 127.5C146.975 127.478 146.766 127.447 146.548 127.423C146.306 127.908 146.044 128.439 145.762 129.026C145.479 129.613 145.181 130.262 144.84 130.972C144.684 131.229 144.499 131.59 144.266 132.026C144.032 132.461 143.805 132.953 143.571 133.434C143.338 133.916 143.114 134.411 142.889 134.88C142.665 135.35 142.484 135.714 142.33 135.989H139.188C140.402 133.283 141.472 130.94 142.398 128.961C143.32 126.975 144.103 125.325 144.739 123.99C145.375 122.656 145.851 121.646 146.192 120.935C146.416 120.511 146.603 120.069 146.751 119.613C146.748 119.539 146.727 119.467 146.69 119.403C146.652 119.339 146.599 119.286 146.536 119.248C146.428 119.166 146.297 119.119 146.161 119.115C145.969 119.133 145.78 119.181 145.602 119.258C145.279 119.386 144.97 119.548 144.68 119.743C144.234 120.027 143.803 120.336 143.39 120.669C142.908 121.062 142.364 121.547 141.774 122.131C141.317 122.6 140.957 122.993 140.678 123.289C140.477 123.499 140.295 123.726 140.134 123.969C139.956 124.244 139.827 124.361 139.722 124.327C139.669 124.324 139.618 124.306 139.575 124.275C139.548 124.255 139.527 124.228 139.514 124.198C139.501 124.168 139.495 124.135 139.498 124.102C139.605 123.749 140.42 122.798 141.937 121.232C143.455 119.665 144.939 118.794 146.401 118.6C146.743 118.608 147.078 118.699 147.378 118.865C147.661 119.019 147.909 119.229 148.109 119.483C148.307 119.759 148.46 120.066 148.56 120.391C148.671 120.754 148.726 121.131 148.723 121.51C148.724 121.821 148.693 122.131 148.631 122.436C148.554 122.798 148.451 123.153 148.324 123.499C148.167 123.904 147.974 124.373 147.734 124.914C147.494 125.455 147.181 126.085 146.812 126.836L147.387 126.882L148.001 126.931C148.975 127.055 150.404 127.009 152.302 126.789C152.434 126.789 152.573 126.758 152.705 126.749C152.851 126.734 152.997 126.71 153.141 126.678C153.669 125.625 154.262 124.445 154.907 123.138C155.552 121.831 156.259 120.357 157.036 118.745L160.056 118.729ZM170.913 118.043L168.068 124.735C169.035 124.789 170.004 124.697 170.943 124.46C171.785 124.194 172.543 123.712 173.143 123.061C174.371 121.723 175.515 120.308 176.565 118.825C177.487 117.512 178.531 116.808 179.726 116.715C180.077 116.682 180.428 116.776 180.715 116.981C180.819 117.069 180.9 117.179 180.953 117.304C181.007 117.429 181.03 117.565 181.023 117.701C180.995 118.211 180.941 118.719 180.86 119.224C180.758 119.996 180.611 120.425 180.433 120.521C180.199 120.459 180.043 120.231 179.951 119.841C179.858 119.452 179.53 119.224 178.971 119.168C178.123 119.333 177.127 120.146 175.985 121.609C174.779 123.121 173.186 124.275 171.376 124.945V125.078C171.777 125.154 172.162 125.299 172.513 125.507C172.97 125.757 173.391 126.069 173.763 126.434C174.621 127.518 175.333 129.029 175.932 130.966C176.531 132.903 177.044 133.969 177.502 134.185C177.912 134.014 178.534 133.363 179.37 132.233C180.199 131.108 180.743 130.459 180.986 130.286C181.065 130.278 181.144 130.297 181.21 130.342C181.237 130.372 181.257 130.406 181.269 130.444C181.281 130.482 181.285 130.522 181.281 130.561C181.17 130.818 180.626 131.553 179.64 132.764C178.654 133.975 177.908 134.834 177.41 135.353C177.215 135.556 176.993 135.729 176.749 135.869C176.504 136.005 176.228 136.079 175.948 136.085C175.195 136.085 174.611 135.588 174.209 134.639C173.806 133.691 173.287 132.233 172.651 130.246C171.922 127.981 171.296 126.577 170.771 126.036C170.252 125.495 169.272 125.276 167.841 125.368L163.739 136.002H160.692L167.733 118.127L170.913 118.043ZM188.884 118.448C189.224 118.451 189.557 118.537 189.857 118.698C190.156 118.86 190.411 119.092 190.601 119.375C190.997 119.961 191.206 120.653 191.2 121.361C191.246 121.908 191.022 122.721 190.515 123.783C190.008 124.846 188.979 126.894 187.422 129.906C186.755 131.219 186.141 132.4 185.579 133.453C185.016 134.506 184.731 135.165 184.7 135.424C184.694 135.464 184.7 135.504 184.717 135.54C184.734 135.577 184.761 135.607 184.795 135.628C184.874 135.662 184.959 135.678 185.044 135.674C185.579 135.597 186.35 135.134 187.366 134.275C188.383 133.416 189.21 132.665 189.892 132.007C191.668 130.232 193.328 128.344 194.862 126.354C196.71 123.966 198.344 121.417 199.744 118.739H202.773C201.284 121.937 200.038 124.571 199.034 126.641C198.033 128.711 197.246 130.348 196.681 131.525C196.116 132.702 195.701 133.583 195.452 134.13C195.25 134.48 195.135 134.874 195.117 135.279C195.114 135.343 195.123 135.407 195.145 135.468C195.166 135.528 195.2 135.584 195.243 135.631C195.295 135.678 195.355 135.713 195.42 135.736C195.486 135.759 195.555 135.768 195.624 135.764C196.249 135.702 196.837 135.438 197.301 135.013C197.87 134.55 198.367 134.086 198.81 133.654C199.589 132.857 200.301 131.996 200.939 131.08C201.344 130.463 201.624 130.135 201.796 130.12C201.859 130.113 201.922 130.13 201.974 130.166C201.99 130.184 202.003 130.205 202.011 130.227C202.019 130.25 202.022 130.275 202.02 130.299C201.989 130.503 201.679 130.994 201.098 131.785C200.496 132.584 199.842 133.344 199.142 134.059C198.64 134.579 198.093 135.052 197.507 135.473C196.86 135.971 196.083 136.27 195.271 136.332C194.656 136.363 194.051 136.162 193.575 135.77C193.188 135.412 192.991 134.843 192.991 134.059C192.965 133.501 193.034 132.943 193.194 132.409C193.443 131.673 193.752 130.959 194.116 130.274C194.558 129.425 195.142 128.306 195.873 126.931C196.604 125.557 197.529 123.796 198.638 121.655C197.319 123.85 195.853 125.952 194.248 127.945C193.006 129.488 191.682 130.963 190.282 132.362C189.341 133.332 188.331 134.23 187.259 135.05C186.242 135.81 185.394 136.224 184.724 136.286C184.46 136.281 184.201 136.213 183.967 136.088C183.734 135.963 183.533 135.784 183.382 135.566C183.034 135.006 182.868 134.35 182.906 133.691C182.897 133.044 183.033 132.403 183.302 131.816C183.566 131.244 184.018 130.432 184.638 129.36C185.439 127.601 186.137 126.129 186.731 124.945C187.32 123.756 187.797 122.81 188.153 122.09C188.509 121.371 188.783 120.808 188.976 120.41C189.112 120.17 189.206 119.909 189.256 119.638C189.26 119.485 189.205 119.336 189.102 119.224C189.044 119.159 188.973 119.109 188.893 119.076C188.813 119.044 188.727 119.03 188.641 119.035C188.219 119.093 187.821 119.269 187.492 119.542C187.16 119.788 186.846 120.057 186.552 120.348C185.786 121.157 185.068 122.011 184.402 122.906C183.757 123.765 183.345 124.225 183.158 124.287C183.081 124.287 183.041 124.272 183.026 124.241C183.008 124.199 183 124.153 183.004 124.108C183.072 123.799 183.493 123.181 184.254 122.254C184.889 121.457 185.566 120.695 186.282 119.971C186.676 119.519 187.131 119.125 187.634 118.8C188.013 118.577 188.445 118.46 188.884 118.46V118.448Z" fill="white"/>
</g>
<defs>
<clipPath id="clip0">
<rect width="208.723" height="180" fill="white"/>
</clipPath>
</defs>
</svg>
