<svg width="939" height="893" viewBox="0 0 939 893" fill="none" xmlns="http://www.w3.org/2000/svg">
<g clip-path="url(#clip0)">
<g opacity="0.5">
<g opacity="0.27">
<path opacity="0.27" d="M685.422 547.93L635.072 635.142L735.772 634.528L685.422 547.93Z" fill="#E6E6E6"/>
<path opacity="0.27" d="M685.425 547.931L819.282 547.316L752.354 664.008L685.425 547.931Z" fill="white"/>
<path opacity="0.27" d="M685.422 547.931L757.263 547.316L721.035 485.286L685.422 547.931Z" fill="#B3B3B3"/>
<path opacity="0.27" d="M741.3 450.278L628.934 450.892L685.424 547.931L741.3 450.278Z" fill="white"/>
<path opacity="0.27" d="M573.059 547.931L685.426 547.931L628.936 450.892L573.059 547.931Z" fill="#E6E6E6"/>
<path opacity="0.27" d="M685.426 547.931L597.006 547.931L641.216 624.702L685.426 547.931Z" fill="white"/>
</g>
<g opacity="0.16">
<path opacity="0.16" d="M506.748 432.467L566.308 328.673L446.573 328.673L506.748 432.467Z" fill="#E6E6E6"/>
<path opacity="0.16" d="M506.747 432.467L346.486 432.467L426.31 293.665L506.747 432.467Z" fill="white"/>
<path opacity="0.16" d="M506.747 432.467L420.169 432.467L463.765 506.781L506.747 432.467Z" fill="#B3B3B3"/>
<path opacity="0.16" d="M439.82 547.931L573.677 547.931L506.749 432.467L439.82 547.931Z" fill="white"/>
<path opacity="0.16" d="M639.991 431.853L506.748 432.467L573.676 547.931L639.991 431.853Z" fill="#E6E6E6"/>
<path opacity="0.16" d="M506.745 432.467L611.743 431.853L558.937 340.956L506.745 432.467Z" fill="white"/>
</g>
<g opacity="0.93">
<path opacity="0.93" d="M781.829 380.263L735.777 460.105L827.881 460.105L781.829 380.263Z" fill="#FFECEF"/>
<path opacity="0.93" d="M781.828 380.263L848.143 380.263L814.985 322.531L781.828 380.263Z" fill="#FFE2E7"/>
<path opacity="0.93" d="M832.792 290.594L730.25 291.209L781.828 380.263L832.792 290.594Z" fill="white"/>
<path opacity="0.93" d="M678.673 380.263L781.829 380.263L730.251 291.209L678.673 380.263Z" fill="#E6E6E6"/>
<path opacity="0.93" d="M781.829 380.263L700.778 380.263L741.303 450.278L781.829 380.263Z" fill="white"/>
</g>
<g opacity="0.72">
<path opacity="0.72" d="M299.204 270.327L229.205 391.932L369.203 391.318L299.204 270.327Z" fill="#E6E6E6"/>
<path opacity="0.72" d="M299.204 270.327L485.868 270.327L392.536 431.853L299.204 270.327Z" fill="white"/>
<path opacity="0.72" d="M299.201 270.327L399.287 270.327L348.937 183.115L299.201 270.327Z" fill="#FDB8C5"/>
<path opacity="0.72" d="M376.573 135.21L220.61 135.824L299.205 270.327L376.573 135.21Z" fill="white"/>
<path opacity="0.72" d="M143.24 270.941L299.202 270.327L220.607 135.824L143.24 270.941Z" fill="#FFDAE1"/>
<path opacity="0.72" d="M299.202 270.327L175.783 270.941L237.8 377.192L299.202 270.327Z" fill="white"/>
</g>
<g opacity="0.14">
<path opacity="0.14" d="M630.778 192.942L700.777 71.3365L560.779 71.9506L630.778 192.942Z" fill="#E6E6E6"/>
<path opacity="0.14" d="M630.776 192.942L444.112 192.942L537.444 31.4156L630.776 192.942Z" fill="white"/>
<path opacity="0.14" d="M630.776 192.942L530.69 192.942L581.04 280.153L630.776 192.942Z" fill="#B3B3B3"/>
<path opacity="0.14" d="M551 330.117L706.962 329.503L628.367 195L551 330.117Z" fill="white"/>
<path opacity="0.14" d="M786.74 192.327L630.778 192.942L709.373 327.444L786.74 192.327Z" fill="#E6E6E6"/>
<path opacity="0.14" d="M630.779 192.942L754.198 192.328L692.181 86.0765L630.779 192.942Z" fill="white"/>
</g>
<g opacity="0.27">
<path opacity="0.27" d="M737.617 441.065L687.881 528.277L788.581 528.277L737.617 441.065Z" fill="#E6E6E6"/>
<path opacity="0.27" d="M744 470L878.472 470L811.543 586.078L744 470Z" fill="#D62C4B"/>
<path opacity="0.27" d="M660 438.645L732.455 438.645L696.228 376L660 438.645Z" fill="#D62C4B"/>
<path opacity="0.27" d="M793.492 344.027L681.74 344.027L737.616 441.066L793.492 344.027Z" fill="white"/>
<path opacity="0.27" d="M584 441.653L695.752 441.039L639.876 344L584 441.653Z" fill="#E6E6E6"/>
<path opacity="0.27" d="M737.613 441.066L649.193 441.68L694.017 517.837L737.613 441.066Z" fill="white"/>
</g>
<g opacity="0.48">
<path opacity="0.48" d="M558.935 325.602L618.495 221.808L498.76 222.422L558.935 325.602Z" fill="#E6E6E6"/>
<path opacity="0.48" d="M558.939 325.602L399.292 326.216L479.116 187.414L558.939 325.602Z" fill="white"/>
<path opacity="0.48" d="M558.939 325.602L472.975 326.216L515.957 400.53L558.939 325.602Z" fill="#B3B3B3"/>
<path opacity="0.48" d="M492.621 441.68L625.865 441.066L558.936 325.602L492.621 441.68Z" fill="white"/>
<path opacity="0.48" d="M692.795 325.602L558.938 325.602L625.867 441.066L692.795 325.602Z" fill="#E6E6E6"/>
<path opacity="0.48" d="M664.547 303H558.935L611.741 394.511L664.547 303Z" fill="#EBA0AE"/>
</g>
<g opacity="0.1">
<path opacity="0.1" d="M834.633 273.398L788.581 353.854L880.685 353.239L834.633 273.398Z" fill="#E6E6E6"/>
<path opacity="0.1" d="M834.633 274.012L957.438 273.398L896.035 380.263L834.633 274.012Z" fill="white"/>
<path opacity="0.1" d="M834.632 273.397L900.947 273.397L867.175 216.28L834.632 273.397Z" fill="#B3B3B3"/>
<path opacity="0.1" d="M885.596 184.343L782.44 184.343L834.632 273.397L885.596 184.343Z" fill="white"/>
<path opacity="0.1" d="M731.477 274.012L834.633 273.398L782.441 184.343L731.477 274.012Z" fill="#E6E6E6"/>
<path opacity="0.1" d="M834.633 273.398L752.968 274.012L794.107 344.027L834.633 273.398Z" fill="white"/>
</g>
<g opacity="0.67">
<path opacity="0.67" d="M351.396 164.076L538.06 163.461L445.342 325.602L351.396 164.076Z" fill="white"/>
<path opacity="0.67" d="M351.396 164.076L452.096 164.076L401.746 76.8637L351.396 164.076Z" fill="#FFDFE5"/>
<path opacity="0.67" d="M429.377 28.9586L273.414 28.9586L351.396 164.076L429.377 28.9586Z" fill="white"/>
<path opacity="0.67" d="M195.437 164.076L351.399 164.076L273.418 28.9586L195.437 164.076Z" fill="#E6E6E6"/>
<path opacity="0.67" d="M351.399 164.076L228.594 164.076L289.997 270.941L351.399 164.076Z" fill="#FCAEBC"/>
</g>
<g opacity="0.9">
<path opacity="0.9" d="M683.585 86.0764L496.922 86.6905L589.639 -75.4498L683.585 86.0764Z" fill="white"/>
<path opacity="0.9" d="M683.585 86.0765L582.885 86.6906L633.235 173.288L683.585 86.0765Z" fill="#B3B3B3"/>
<path opacity="0.9" d="M605.605 221.807L761.567 221.193L683.586 86.0764L605.605 221.807Z" fill="white"/>
<path opacity="0.9" d="M839.544 86.0766L683.582 86.0766L761.563 221.193L839.544 86.0766Z" fill="#FFEDF0"/>
<path opacity="0.9" d="M683.585 86.0765L806.39 86.0765L744.988 -20.1745L683.585 86.0765Z" fill="white"/>
</g>
<g opacity="0.32">
<path opacity="0.32" d="M552.794 330.515L502.444 417.727L603.145 417.113L552.794 330.515Z" fill="#E6E6E6"/>
<path opacity="0.32" d="M552.798 330.515L686.655 329.901L619.726 446.593L552.798 330.515Z" fill="white"/>
<path opacity="0.32" d="M574 325.645L645.841 325.645L609.613 263L574 325.645Z" fill="#B3B3B3"/>
<path opacity="0.32" d="M440.432 330.515L552.799 330.515L496.308 233.477L440.432 330.515Z" fill="#E6E6E6"/>
<path opacity="0.32" d="M552.799 330.515L464.379 330.515L508.589 407.286L552.799 330.515Z" fill="white"/>
</g>
<g opacity="0.46">
<path opacity="0.46" d="M373.501 215.052L433.676 111.257L313.941 111.257L373.501 215.052Z" fill="#FA9FB0"/>
<path opacity="0.46" d="M373.502 215.052L213.856 215.052L293.679 76.2499L373.502 215.052Z" fill="#FFE6EA"/>
<path opacity="0.46" d="M373.98 214.686L288.016 214.686L331.612 289L373.98 214.686Z" fill="#FAA4B4"/>
<path opacity="0.46" d="M307.188 330.515L441.045 330.515L373.502 215.052L307.188 330.515Z" fill="white"/>
<path opacity="0.46" d="M507.359 214.438L373.501 215.052L441.044 330.515L507.359 214.438Z" fill="#E6E6E6"/>
<path opacity="0.46" d="M373.498 215.052L479.111 214.438L426.304 123.541L373.498 215.052Z" fill="white"/>
</g>
<g opacity="0.86">
<path opacity="0.86" d="M649.197 162.847L603.145 242.689L695.249 242.689L649.197 162.847Z" fill="#FFF1F4"/>
<path opacity="0.86" d="M649.2 162.847L772.619 162.847L710.602 269.713L649.2 162.847Z" fill="white"/>
<path opacity="0.86" d="M649.196 162.847L715.51 162.847L682.353 105.116L649.196 162.847Z" fill="#FFDAE1"/>
<path opacity="0.86" d="M700.16 73.793L597.617 73.793L649.196 162.847L700.16 73.793Z" fill="white"/>
<path opacity="0.86" d="M546.04 162.847L649.197 162.847L597.618 73.793L546.04 162.847Z" fill="#FFE9ED"/>
<path opacity="0.86" d="M649.197 162.847L568.145 162.847L608.671 233.477L649.197 162.847Z" fill="white"/>
</g>
<g opacity="0.35">
<path opacity="0.35" d="M165.963 52.9112L96.5781 174.516L236.576 173.902L165.963 52.9112Z" fill="#E6E6E6"/>
<path opacity="0.35" d="M165.96 53.5254L352.624 52.9113L259.906 214.437L165.96 53.5254Z" fill="#F49EAD"/>
<path opacity="0.35" d="M165.96 52.9112L266.66 52.9113L216.31 -33.6864L165.96 52.9112Z" fill="#B3B3B3"/>
<path opacity="0.35" d="M243.945 -82.2057L87.9827 -81.5915L165.964 52.9112L243.945 -82.2057Z" fill="white"/>
<path opacity="0.35" d="M10.0006 53.5253L165.963 52.9111L87.9818 -81.5916L10.0006 53.5253Z" fill="#E6E6E6"/>
<path opacity="0.35" d="M165.963 52.9113L43.1578 53.5255L105.174 159.776L165.963 52.9113Z" fill="white"/>
</g>
<g opacity="0.66">
<path opacity="0.66" d="M420.78 110.643L576.743 110.643L498.147 -24.4736L420.78 110.643Z" fill="white"/>
</g>
<g opacity="0.43">
<path opacity="0.43" d="M832.176 590.922L781.826 678.134L882.526 677.52L832.176 590.922Z" fill="#E6E6E6"/>
<path opacity="0.43" d="M832.179 590.922L966.037 590.922L899.108 707L832.179 590.922Z" fill="#FFD1DA"/>
<path opacity="0.43" d="M832.176 590.922L904.017 590.922L867.79 528.277L832.176 590.922Z" fill="#FFA9B8"/>
<path opacity="0.43" d="M832.18 590.922L743.761 590.922L787.97 667.693L832.18 590.922Z" fill="#F88FA2"/>
</g>
<g opacity="0.14">
<path opacity="0.14" d="M652.883 475.459L713.057 371.664L593.322 371.664L652.883 475.459Z" fill="#E6E6E6"/>
<path opacity="0.34" d="M649.26 474.802L489 474.802L568.823 336L649.26 474.802Z" fill="#D62C4B"/>
<path opacity="0.14" d="M653.496 475.459L566.918 475.459L610.514 549.773L653.496 475.459Z" fill="#B3B3B3"/>
<path opacity="0.3" d="M586.569 590.922L720.427 590.922L653.498 475.459L586.569 590.922Z" fill="#D62C4B"/>
</g>
<g opacity="0.69">
<path opacity="0.69" d="M928.578 423.255L882.526 503.097L974.63 503.097L928.578 423.255Z" fill="#FDB2C0"/>
<path opacity="0.69" d="M928.581 423.255L1052 423.255L990.597 530.12L928.581 423.255Z" fill="#FFEFF2"/>
<path opacity="0.69" d="M928.582 423.255L994.896 423.255L961.739 365.523L928.582 423.255Z" fill="#FCB7C3"/>
<path opacity="0.69" d="M979.546 334.2L877.004 334.2L928.582 423.255L979.546 334.2Z" fill="#FFD0D9"/>
<path opacity="0.69" d="M825.422 423.255L928.578 423.255L877 334.2L825.422 423.255Z" fill="#E6E6E6"/>
<path opacity="0.69" d="M928.578 423.255L847.527 423.255L888.052 493.884L928.578 423.255Z" fill="#FFDDE3"/>
</g>
<g opacity="0.96">
<path opacity="0.96" d="M445.958 313.318L375.959 434.924L515.957 434.31L445.958 313.318Z" fill="#FFE4E9"/>
<path opacity="0.96" d="M546.041 276.721L445.341 276.721L495.691 363.318L546.041 276.721Z" fill="#FFEAEE"/>
<path opacity="0.96" d="M445.344 229L289.996 229.614L367.977 364.117L445.344 229Z" fill="#FFEEF1"/>
</g>
<g opacity="0.42">
<path opacity="0.42" d="M777.532 235.933L847.531 114.942L707.533 114.942L777.532 235.933Z" fill="#FA869B"/>
<path opacity="0.42" d="M742.086 235.933L642 235.933L692.35 323.145L742.086 235.933Z" fill="#EC93A3"/>
<path opacity="0.42" d="M933.494 235.319L777.532 235.933L856.127 371.05L933.494 235.319Z" fill="#EE506D"/>
<path opacity="0.42" d="M777.533 235.933L900.952 235.933L838.935 129.068L777.533 235.933Z" fill="white"/>
</g>
</g>
</g>
<defs>
<clipPath id="clip0">
<rect width="1077" height="893" fill="white" transform="translate(1077 893) rotate(-180)"/>
</clipPath>
</defs>
</svg>
