<svg width="1073" height="893" viewBox="0 0 1073 893" fill="none" xmlns="http://www.w3.org/2000/svg">
<g opacity="0.5" clip-path="url(#clip0)">
<g opacity="0.2">
<g opacity="0.27">
<path opacity="0.27" d="M461.421 569.93L411.071 657.142L511.771 656.528L461.421 569.93Z" fill="#E6E6E6"/>
<path opacity="0.27" d="M461.424 569.93L595.282 569.316L528.353 686.008L461.424 569.93Z" fill="white"/>
<path opacity="0.27" d="M461.422 569.93L533.262 569.316L497.035 507.285L461.422 569.93Z" fill="#B3B3B3"/>
<path opacity="0.27" d="M517.3 472.278L404.933 472.892L461.424 569.93L517.3 472.278Z" fill="white"/>
<path opacity="0.27" d="M349.059 569.93L461.426 569.93L404.935 472.892L349.059 569.93Z" fill="#E6E6E6"/>
<path opacity="0.27" d="M461.426 569.93L373.006 569.93L417.216 646.701L461.426 569.93Z" fill="white"/>
</g>
<g opacity="0.16">
<path opacity="0.16" d="M282.747 454.467L342.308 350.672L222.573 350.672L282.747 454.467Z" fill="#E6E6E6"/>
<path opacity="0.16" d="M282.746 454.467L122.486 454.467L202.309 315.665L282.746 454.467Z" fill="white"/>
<path opacity="0.16" d="M282.746 454.467L196.169 454.467L239.765 528.781L282.746 454.467Z" fill="#B3B3B3"/>
<path opacity="0.16" d="M215.819 569.93L349.677 569.93L282.748 454.467L215.819 569.93Z" fill="white"/>
<path opacity="0.16" d="M415.991 453.853L282.747 454.467L349.676 569.93L415.991 453.853Z" fill="#E6E6E6"/>
<path opacity="0.16" d="M282.744 454.467L387.742 453.853L334.936 362.956L282.744 454.467Z" fill="white"/>
</g>
<g opacity="0.93">
<path opacity="0.93" d="M477.052 447L431 526.842L523.104 526.842L477.052 447Z" fill="#FFECEF"/>
<path opacity="0.93" d="M557.827 402.262L681.246 401.648L619.843 509.128L557.827 402.262Z" fill="white"/>
<path opacity="0.93" d="M575 386.732L641.315 386.732L608.158 329L575 386.732Z" fill="#FFE2E7"/>
<path opacity="0.93" d="M615.543 291L513.001 291.614L564.579 380.668L615.543 291Z" fill="white"/>
<path opacity="0.93" d="M454.672 402.263L557.829 402.263L506.25 313.208L454.672 402.263Z" fill="#E6E6E6"/>
<path opacity="0.93" d="M553.052 412L472 412L512.526 482.015L553.052 412Z" fill="white"/>
</g>
<g opacity="0.72">
<path opacity="0.72" d="M78.9989 340L9.00006 461.605L148.998 460.991L78.9989 340Z" fill="#E6E6E6"/>
<path opacity="0.72" d="M82 313L268.664 313L175.332 474.526L82 313Z" fill="white"/>
<path opacity="0.72" d="M75.2008 292.327L175.287 292.327L124.937 205.115L75.2008 292.327Z" fill="#FDB8C5"/>
<path opacity="0.72" d="M-80.7607 292.941L75.2017 292.327L-3.39352 157.824L-80.7607 292.941Z" fill="#FFDAE1"/>
<path opacity="0.72" d="M75.2017 311L-48.2174 311.614L13.7992 417.865L75.2017 311Z" fill="white"/>
</g>
<g opacity="0.14">
<path opacity="0.14" d="M406.777 214.942L476.776 93.3362L336.779 93.9504L406.777 214.942Z" fill="#E6E6E6"/>
<path opacity="0.14" d="M406.775 214.942L220.112 214.942L313.444 53.4153L406.775 214.942Z" fill="white"/>
<path opacity="0.14" d="M406.775 214.941L306.689 214.941L357.039 302.153L406.775 214.941Z" fill="#B3B3B3"/>
<path opacity="0.14" d="M329.412 350.058L485.375 349.444L406.779 214.941L329.412 350.058Z" fill="white"/>
<path opacity="0.14" d="M562.74 214.327L406.777 214.941L485.373 349.444L562.74 214.327Z" fill="#E6E6E6"/>
<path opacity="0.14" d="M406.778 214.942L530.198 214.327L468.181 108.076L406.778 214.942Z" fill="white"/>
</g>
<g opacity="0.27">
<path opacity="0.27" d="M513.617 463.065L463.881 550.277L564.581 550.277L513.617 463.065Z" fill="#E6E6E6"/>
<path opacity="0.27" d="M513.615 463.065L648.086 463.065L581.157 579.143L513.615 463.065Z" fill="#D62C4B"/>
<path opacity="0.27" d="M416 495.645L488.455 495.645L452.228 433L416 495.645Z" fill="#D62C4B"/>
<path opacity="0.27" d="M401.86 463.679L513.613 463.065L457.737 366.027L401.86 463.679Z" fill="#E6E6E6"/>
<path opacity="0.27" d="M513.613 463.065L425.193 463.679L470.017 539.836L513.613 463.065Z" fill="white"/>
</g>
<g opacity="0.48">
<path opacity="0.48" d="M334.934 347.602L394.495 243.807L274.76 244.421L334.934 347.602Z" fill="#E6E6E6"/>
<path opacity="0.48" d="M334.938 347.602L175.292 348.216L255.115 209.414L334.938 347.602Z" fill="white"/>
<path opacity="0.48" d="M334.938 347.602L248.975 348.216L291.957 422.53L334.938 347.602Z" fill="#B3B3B3"/>
<path opacity="0.48" d="M468.795 347.602L334.937 347.602L401.866 463.065L468.795 347.602Z" fill="#E6E6E6"/>
<path opacity="0.48" d="M440.547 325H334.935L387.741 416.511L440.547 325Z" fill="#EBA0AE"/>
</g>
<g opacity="0.1">
<path opacity="0.1" d="M610.633 295.397L564.581 375.853L656.685 375.239L610.633 295.397Z" fill="#E6E6E6"/>
<path opacity="0.1" d="M610.633 296.011L733.438 295.397L672.035 402.262L610.633 296.011Z" fill="white"/>
<path opacity="0.1" d="M610.632 295.397L676.947 295.397L643.175 238.28L610.632 295.397Z" fill="#B3B3B3"/>
<path opacity="0.1" d="M661.596 206.343L558.439 206.343L610.632 295.397L661.596 206.343Z" fill="white"/>
<path opacity="0.1" d="M507.477 296.011L610.633 295.397L558.441 206.343L507.477 296.011Z" fill="#E6E6E6"/>
</g>
<g opacity="0.67">
<path opacity="0.67" d="M127.396 186.075L228.096 186.075L177.746 98.8635L127.396 186.075Z" fill="#FFDFE5"/>
<path opacity="0.67" d="M-28.5635 186.075L127.399 186.075L49.4177 50.9584L-28.5635 186.075Z" fill="#E6E6E6"/>
</g>
<g opacity="0.9">
<path opacity="0.9" d="M459.584 108.076L358.884 108.69L409.234 195.288L459.584 108.076Z" fill="#B3B3B3"/>
<path opacity="0.9" d="M227.001 278.731L382.963 278.117L304.982 143L227.001 278.731Z" fill="white"/>
<path opacity="0.9" d="M615.544 108.076L459.581 108.076L537.563 243.193L615.544 108.076Z" fill="#FFEDF0"/>
<path opacity="0.9" d="M554.001 272.251L676.806 272.251L615.403 166L554.001 272.251Z" fill="white"/>
</g>
<g opacity="0.32">
<path opacity="0.32" d="M328.794 352.515L400.635 352.515L364.408 289.87L328.794 352.515Z" fill="#B3B3B3"/>
<path opacity="0.32" d="M384.672 255.477L272.306 255.477L328.796 352.515L384.672 255.477Z" fill="white"/>
<path opacity="0.32" d="M216.432 352.515L328.798 352.515L272.308 255.477L216.432 352.515Z" fill="#E6E6E6"/>
<path opacity="0.32" d="M328.798 352.515L240.378 352.515L284.588 429.286L328.798 352.515Z" fill="white"/>
</g>
<g opacity="0.46">
<path opacity="0.46" d="M149.501 237.052L209.675 133.257L89.9404 133.257L149.501 237.052Z" fill="#FA9FB0"/>
<path opacity="0.46" d="M149.979 236.686L64.0158 236.686L107.612 311L149.979 236.686Z" fill="#FAA4B4"/>
<path opacity="0.46" d="M149.498 237.052L255.11 236.437L202.304 145.54L149.498 237.052Z" fill="white"/>
</g>
<g opacity="0.86">
<path opacity="0.86" d="M429.053 245L383.001 324.842L475.104 324.842L429.053 245Z" fill="#FFF1F4"/>
<path opacity="0.86" d="M435 204L558.419 204L496.403 310.865L435 204Z" fill="white"/>
<path opacity="0.86" d="M431 194.732L497.315 194.732L464.158 137L431 194.732Z" fill="#FFDAE1"/>
<path opacity="0.86" d="M476.159 95.7925L373.617 95.7925L425.195 184.847L476.159 95.7925Z" fill="white"/>
<path opacity="0.86" d="M322.04 184.847L425.196 184.847L373.618 95.7925L322.04 184.847Z" fill="#FFE9ED"/>
<path opacity="0.86" d="M417.052 195L336 195L376.526 265.629L417.052 195Z" fill="white"/>
</g>
<g opacity="0.35">
<path opacity="0.35" d="M-58.0377 74.911L-127.422 196.516L12.5752 195.902L-58.0377 74.911Z" fill="#E6E6E6"/>
<path opacity="0.35" d="M-58.0407 74.9111L42.6594 74.9111L-7.69059 -11.6865L-58.0407 74.9111Z" fill="#B3B3B3"/>
<path opacity="0.35" d="M19.9446 -60.2059L-136.018 -59.5917L-58.0367 74.911L19.9446 -60.2059Z" fill="white"/>
</g>
<g opacity="0.66">
<path opacity="0.66" d="M196.78 132.643L352.742 132.643L274.147 -2.47388L196.78 132.643Z" fill="white"/>
</g>
<g opacity="0.43">
<path opacity="0.43" d="M608.175 612.922L557.825 700.134L658.525 699.52L608.175 612.922Z" fill="#E6E6E6"/>
<path opacity="0.43" d="M608.178 612.922L742.036 612.922L675.107 729L608.178 612.922Z" fill="#FFD1DA"/>
<path opacity="0.43" d="M608.175 612.922L680.016 612.922L643.789 550.277L608.175 612.922Z" fill="#FFA9B8"/>
<path opacity="0.43" d="M664.054 515.884L551.687 515.884L608.177 612.922L664.054 515.884Z" fill="#FDDAE0"/>
<path opacity="0.43" d="M495.813 612.922L608.179 612.922L551.689 515.884L495.813 612.922Z" fill="#E6E6E6"/>
<path opacity="0.43" d="M608.179 612.922L519.76 612.922L563.97 689.693L608.179 612.922Z" fill="#F88FA2"/>
</g>
<g opacity="0.14">
<path opacity="0.14" d="M428.882 497.458L489.057 393.664L369.322 393.664L428.882 497.458Z" fill="#E6E6E6"/>
<path opacity="0.14" d="M429.495 497.459L342.918 497.459L386.514 571.773L429.495 497.459Z" fill="#B3B3B3"/>
<path opacity="0.3" d="M362.569 612.922L496.426 612.922L429.497 497.459L362.569 612.922Z" fill="#D62C4B"/>
<path opacity="0.14" d="M562.74 496.844L429.496 497.459L496.425 612.922L562.74 496.844Z" fill="#D52B4A"/>
<path opacity="0.14" d="M429.493 497.458L534.492 496.844L481.686 405.947L429.493 497.458Z" fill="#D62C4B"/>
</g>
<g opacity="0.69">
<path opacity="0.69" d="M704.58 445.254L828 445.254L766.597 552.12L704.58 445.254Z" fill="#FFEFF2"/>
<path opacity="0.69" d="M718 453.732L784.315 453.732L751.158 396L718 453.732Z" fill="#FCB7C3"/>
<path opacity="0.69" d="M755.546 356.2L653.003 356.2L704.582 445.254L755.546 356.2Z" fill="#FFD0D9"/>
<path opacity="0.69" d="M601.421 445.254L704.577 445.254L652.999 356.2L601.421 445.254Z" fill="#E6E6E6"/>
</g>
<g opacity="0.96">
<path opacity="0.96" d="M245 371L175.001 492.605L314.999 491.991L245 371Z" fill="#FFE4E9"/>
<path opacity="0.96" d="M312.001 376.405L435.001 376L373.906 483L312.001 376.405Z" fill="white"/>
<path opacity="0.96" d="M322.04 298.721L221.34 298.721L271.69 385.318L322.04 298.721Z" fill="#FFEAEE"/>
<path opacity="0.96" d="M216.349 201L61.001 201.614L138.982 336.117L216.349 201Z" fill="#FFEEF1"/>
<path opacity="0.96" d="M212.806 409L90.0009 409.614L152.017 515.865L212.806 409Z" fill="white"/>
</g>
<g opacity="0.42">
<path opacity="0.42" d="M553.529 257.933L453.443 257.933L503.793 345.145L553.529 257.933Z" fill="#EC93A3"/>
<path opacity="0.42" d="M709.494 257.319L553.531 257.933L632.126 393.05L709.494 257.319Z" fill="#EE506D"/>
<path opacity="0.42" d="M553.532 257.933L676.951 257.933L614.935 151.068L553.532 257.933Z" fill="white"/>
</g>
</g>
</g>
<defs>
<clipPath id="clip0">
<rect width="1077" height="893" fill="white" transform="translate(1073 893) rotate(-180)"/>
</clipPath>
</defs>
</svg>
