<svg width="863" height="893" viewBox="0 0 863 893" fill="none" xmlns="http://www.w3.org/2000/svg">
<g clip-path="url(#clip0)">
<g opacity="0.5">
<g opacity="0.27">
<path opacity="0.27" d="M685.422 547.93L635.072 635.142L735.772 634.528L685.422 547.93Z" fill="#E6E6E6"/>
<path opacity="0.27" d="M685.425 547.931L819.282 547.316L752.354 664.008L685.425 547.931Z" fill="white"/>
<path opacity="0.27" d="M685.422 547.931L757.263 547.316L721.035 485.286L685.422 547.931Z" fill="#B3B3B3"/>
<path opacity="0.27" d="M741.3 450.278L628.934 450.892L685.424 547.931L741.3 450.278Z" fill="white"/>
<path opacity="0.27" d="M573.059 547.931L685.426 547.931L628.936 450.892L573.059 547.931Z" fill="#E6E6E6"/>
<path opacity="0.27" d="M685.426 547.931L597.006 547.931L641.216 624.702L685.426 547.931Z" fill="white"/>
</g>
<g opacity="0.16">
<path opacity="0.16" d="M506.748 432.467L566.308 328.672L446.573 328.672L506.748 432.467Z" fill="#E6E6E6"/>
<path opacity="0.16" d="M506.747 432.467L346.486 432.467L426.31 293.665L506.747 432.467Z" fill="white"/>
<path opacity="0.16" d="M506.747 432.467L420.169 432.467L463.765 506.781L506.747 432.467Z" fill="#B3B3B3"/>
<path opacity="0.16" d="M439.82 547.93L573.677 547.93L506.749 432.467L439.82 547.93Z" fill="white"/>
<path opacity="0.16" d="M639.991 431.853L506.748 432.467L573.676 547.93L639.991 431.853Z" fill="#E6E6E6"/>
<path opacity="0.16" d="M506.745 432.467L611.743 431.853L558.937 340.956L506.745 432.467Z" fill="white"/>
</g>
<g opacity="0.93">
<path opacity="0.93" d="M781.829 380.263L735.777 460.104L827.881 460.104L781.829 380.263Z" fill="#FFECEF"/>
<path opacity="0.93" d="M781.827 380.263L905.246 379.649L843.844 487.128L781.827 380.263Z" fill="white"/>
<path opacity="0.93" d="M781.828 380.263L848.143 380.263L814.985 322.531L781.828 380.263Z" fill="#FFE2E7"/>
<path opacity="0.93" d="M832.792 290.594L730.25 291.208L781.828 380.263L832.792 290.594Z" fill="white"/>
<path opacity="0.93" d="M722 381.054L825.156 381.054L773.578 292L722 381.054Z" fill="#E6E6E6"/>
<path opacity="0.93" d="M781.829 380.263L700.778 380.263L741.303 450.278L781.829 380.263Z" fill="white"/>
</g>
<g opacity="0.72">
<path opacity="0.72" d="M299.204 270.327L229.205 391.932L369.203 391.318L299.204 270.327Z" fill="#E6E6E6"/>
<path opacity="0.72" d="M299.204 270.327L485.868 270.327L392.536 431.853L299.204 270.327Z" fill="white"/>
<path opacity="0.72" d="M379 261.212L479.086 261.212L428.736 174L379 261.212Z" fill="#FDB8C5"/>
<path opacity="0.72" d="M376.573 135.21L220.61 135.824L299.205 270.327L376.573 135.21Z" fill="white"/>
<path opacity="0.72" d="M126 271.117L281.962 270.503L203.367 136L126 271.117Z" fill="#FFDAE1"/>
<path opacity="0.72" d="M299.202 270.327L175.783 270.941L237.8 377.192L299.202 270.327Z" fill="white"/>
</g>
<g opacity="0.14">
<path opacity="0.14" d="M630.778 192.942L700.777 71.3364L560.779 71.9505L630.778 192.942Z" fill="#E6E6E6"/>
<path opacity="0.14" d="M630.776 192.942L444.112 192.942L537.444 31.4155L630.776 192.942Z" fill="white"/>
<path opacity="0.14" d="M630.776 192.941L530.69 192.941L581.04 280.153L630.776 192.941Z" fill="#B3B3B3"/>
<path opacity="0.14" d="M553.413 328.058L709.375 327.444L630.78 192.941L553.413 328.058Z" fill="white"/>
<path opacity="0.14" d="M786.74 192.327L630.778 192.942L709.373 327.444L786.74 192.327Z" fill="#E6E6E6"/>
<path opacity="0.14" d="M630.779 192.942L754.198 192.327L692.181 86.0764L630.779 192.942Z" fill="white"/>
</g>
<g opacity="0.27">
<path opacity="0.27" d="M737.617 441.065L687.881 528.277L788.581 528.277L737.617 441.065Z" fill="#E6E6E6"/>
<path opacity="0.27" d="M737.615 441.065L872.086 441.065L805.158 557.143L737.615 441.065Z" fill="#D62C4B"/>
<path opacity="0.27" d="M737.617 441.065L810.072 441.065L773.845 378.42L737.617 441.065Z" fill="#D62C4B"/>
<path opacity="0.27" d="M793.492 344.027L681.74 344.027L737.616 441.065L793.492 344.027Z" fill="white"/>
<path opacity="0.27" d="M625.86 441.679L737.613 441.065L681.737 344.027L625.86 441.679Z" fill="#E6E6E6"/>
<path opacity="0.27" d="M737.613 441.065L649.193 441.68L694.017 517.836L737.613 441.065Z" fill="white"/>
</g>
<g opacity="0.48">
<path opacity="0.48" d="M553.175 313.794L612.735 210L493 210.614L553.175 313.794Z" fill="#E6E6E6"/>
<path opacity="0.48" d="M558.939 325.602L399.292 326.216L479.115 187.414L558.939 325.602Z" fill="white"/>
<path opacity="0.48" d="M558.939 325.602L472.975 326.216L515.957 400.53L558.939 325.602Z" fill="#B3B3B3"/>
<path opacity="0.48" d="M492.621 441.679L625.865 441.065L558.936 325.602L492.621 441.679Z" fill="white"/>
<path opacity="0.48" d="M705.858 337L572 337L638.929 452.464L705.858 337Z" fill="#B3B3B3"/>
<path opacity="0.48" d="M558.935 325.602L664.547 325.602L611.741 234.091L558.935 325.602Z" fill="#EBA0AE"/>
</g>
<g opacity="0.1">
<path opacity="0.1" d="M834.633 274.012L957.438 273.398L896.035 380.263L834.633 274.012Z" fill="white"/>
<path opacity="0.1" d="M834.632 273.397L900.947 273.397L867.175 216.28L834.632 273.397Z" fill="#B3B3B3"/>
<path opacity="0.1" d="M885.596 184.343L782.44 184.343L834.632 273.397L885.596 184.343Z" fill="white"/>
<path opacity="0.1" d="M731.477 274.012L834.633 273.398L782.441 184.343L731.477 274.012Z" fill="#E6E6E6"/>
<path opacity="0.1" d="M834.633 273.398L752.968 274.012L794.107 344.027L834.633 273.398Z" fill="white"/>
</g>
<g opacity="0.67">
<path opacity="0.67" d="M351.396 164.076L538.06 163.461L445.342 325.602L351.396 164.076Z" fill="white"/>
<path opacity="0.67" d="M351.396 164.075L452.096 164.075L401.746 76.8636L351.396 164.075Z" fill="#FFDFE5"/>
<path opacity="0.67" d="M429.377 28.9585L273.414 28.9585L351.396 164.075L429.377 28.9585Z" fill="white"/>
<path opacity="0.67" d="M195.437 164.075L351.399 164.075L273.418 28.9585L195.437 164.075Z" fill="#E6E6E6"/>
<path opacity="0.67" d="M351.399 164.076L228.594 164.076L289.997 270.941L351.399 164.076Z" fill="#FCAEBC"/>
</g>
<g opacity="0.9">
<path opacity="0.9" d="M683.585 86.0763L496.922 86.6904L589.639 -75.4499L683.585 86.0763Z" fill="white"/>
<path opacity="0.9" d="M605.605 221.807L761.567 221.193L683.586 86.0763L605.605 221.807Z" fill="white"/>
<path opacity="0.9" d="M839.544 66.0762L683.582 66.0762L761.563 201.193L839.544 66.0762Z" fill="#FFEDF0"/>
<path opacity="0.9" d="M683.585 86.0764L806.39 86.0764L744.988 -20.1746L683.585 86.0764Z" fill="white"/>
</g>
<g opacity="0.32">
<path opacity="0.32" d="M552.795 330.515L502.445 417.727L603.145 417.113L552.795 330.515Z" fill="#E6E6E6"/>
<path opacity="0.32" d="M655 260L726.841 260L690.614 322.645L655 260Z" fill="#B3B3B3"/>
<path opacity="0.32" d="M440.432 330.515L552.799 330.515L496.309 233.477L440.432 330.515Z" fill="#E6E6E6"/>
<path opacity="0.32" d="M552.799 330.515L464.379 330.515L508.589 407.286L552.799 330.515Z" fill="white"/>
</g>
<g opacity="0.46">
<path opacity="0.46" d="M598.56 215.051L658.735 111.257L539 111.257L598.56 215.051Z" fill="#FA9FB0"/>
<path opacity="0.46" d="M373.503 215.051L213.856 215.051L293.679 76.2494L373.503 215.051Z" fill="#FFE6EA"/>
<path opacity="0.46" d="M272.963 292L186.999 292L230.595 366.314L272.963 292Z" fill="#FAA4B4"/>
<path opacity="0.46" d="M307.188 330.515L441.046 330.515L373.503 215.051L307.188 330.515Z" fill="white"/>
<path opacity="0.46" d="M513.858 173L380.001 173.614L447.543 289.077L513.858 173Z" fill="#E6E6E6"/>
<path opacity="0.46" d="M373.499 215.051L479.111 214.437L426.305 123.54L373.499 215.051Z" fill="white"/>
</g>
<g opacity="0.86">
<path opacity="0.86" d="M672.052 135L626 214.842L718.104 214.842L672.052 135Z" fill="#FFF1F4"/>
<path opacity="0.86" d="M649.196 162.847L715.51 162.847L682.353 105.115L649.196 162.847Z" fill="#FFDAE1"/>
<path opacity="0.86" d="M700.16 73.7928L597.617 73.7928L649.196 162.847L700.16 73.7928Z" fill="white"/>
<path opacity="0.86" d="M546.04 162.847L649.197 162.847L597.618 73.7928L546.04 162.847Z" fill="#FFE9ED"/>
</g>
<g opacity="0.35">
<path opacity="0.35" d="M165.963 52.9116L96.5781 174.517L236.576 173.903L165.963 52.9116Z" fill="#E6E6E6"/>
<path opacity="0.35" d="M197 53.6141L383.663 53L290.946 214.526L197 53.6141Z" fill="#F49EAD"/>
<path opacity="0.35" d="M165.96 52.9116L266.66 52.9116L216.31 -33.686L165.96 52.9116Z" fill="#B3B3B3"/>
<path opacity="0.35" d="M243.945 -82.2053L87.9827 -81.5911L165.964 52.9116L243.945 -82.2053Z" fill="white"/>
<path opacity="0.35" d="M10.0006 53.5256L165.963 52.9115L87.9818 -81.5912L10.0006 53.5256Z" fill="#E6E6E6"/>
<path opacity="0.35" d="M165.963 52.9117L43.1578 53.5258L105.174 159.777L165.963 52.9117Z" fill="white"/>
</g>
<g opacity="0.66">
<path opacity="0.66" d="M420.78 110.643L576.743 110.643L498.147 -24.4738L420.78 110.643Z" fill="white"/>
</g>
<g opacity="0.43">
<path opacity="0.43" d="M832.176 590.922L781.826 678.134L882.526 677.52L832.176 590.922Z" fill="#E6E6E6"/>
<path opacity="0.43" d="M832.179 590.922L966.037 590.922L899.108 707L832.179 590.922Z" fill="#FFD1DA"/>
<path opacity="0.43" d="M832.176 590.922L904.017 590.922L867.79 528.277L832.176 590.922Z" fill="#FFA9B8"/>
<path opacity="0.43" d="M888.054 493.884L775.688 493.884L832.178 590.922L888.054 493.884Z" fill="#FDDAE0"/>
<path opacity="0.43" d="M719.814 590.922L832.18 590.922L775.69 493.884L719.814 590.922Z" fill="#E6E6E6"/>
<path opacity="0.43" d="M832.18 590.922L743.761 590.922L787.97 667.693L832.18 590.922Z" fill="#F88FA2"/>
</g>
<g opacity="0.14">
<path opacity="0.14" d="M652.883 475.459L713.057 371.664L593.322 371.664L652.883 475.459Z" fill="#E6E6E6"/>
<path opacity="0.14" d="M653.496 475.459L493.235 475.459L573.059 336.657L653.496 475.459Z" fill="white"/>
<path opacity="0.14" d="M653.496 475.459L566.918 475.459L610.514 549.773L653.496 475.459Z" fill="#B3B3B3"/>
<path opacity="0.3" d="M586.569 590.922L720.427 590.922L653.498 475.459L586.569 590.922Z" fill="#D62C4B"/>
<path opacity="0.14" d="M786.74 474.845L653.497 475.459L720.426 590.922L786.74 474.845Z" fill="#D52B4A"/>
<path opacity="0.14" d="M653.494 475.459L758.492 474.845L705.686 383.948L653.494 475.459Z" fill="#D62C4B"/>
</g>
<g opacity="0.69">
<path opacity="0.69" d="M825.422 423.254L928.578 423.254L877 334.2L825.422 423.254Z" fill="#E6E6E6"/>
<path opacity="0.69" d="M928.578 423.254L847.527 423.254L888.052 493.884L928.578 423.254Z" fill="#FFDDE3"/>
</g>
<g opacity="0.96">
<path opacity="0.96" d="M445.958 313.318L375.959 434.924L515.957 434.309L445.958 313.318Z" fill="#FFE4E9"/>
<path opacity="0.96" d="M445.341 313.318L546.041 313.318L495.691 226.721L445.341 313.318Z" fill="#FFEAEE"/>
<path opacity="0.96" d="M289.996 313.933L445.344 313.318L367.363 178.816L289.996 313.933Z" fill="#FFEEF1"/>
<path opacity="0.96" d="M445.344 313.318L322.539 313.933L384.556 420.184L445.344 313.318Z" fill="white"/>
</g>
<g opacity="0.42">
<path opacity="0.42" d="M833.999 235.933L903.998 114.942L764 114.942L833.999 235.933Z" fill="#FA869B"/>
<path opacity="0.42" d="M777.53 235.933L677.444 235.933L727.794 323.145L777.53 235.933Z" fill="#EC93A3"/>
<path opacity="0.42" d="M933.494 235.319L777.532 235.933L856.127 371.05L933.494 235.319Z" fill="#EE506D"/>
</g>
</g>
</g>
<defs>
<clipPath id="clip0">
<rect width="1077" height="893" fill="white" transform="translate(1077 893) rotate(-180)"/>
</clipPath>
</defs>
</svg>
