<svg width="114" height="114" viewBox="0 0 114 114" fill="none" xmlns="http://www.w3.org/2000/svg">
<g clip-path="url(#clip0)">
<path d="M57.484 78.9855C54.0139 78.9855 50.7048 76.9737 49.2164 73.5939C47.2055 69.0306 49.275 63.7007 53.8383 61.6905L97.1227 42.6194C101.687 40.6092 107.016 42.6795 109.027 47.2429C111.037 51.8062 108.968 57.1361 104.404 59.1463L61.1198 78.2166C59.9355 78.7384 58.7 78.9855 57.484 78.9855Z" fill="#FBDBE1"/>
<path d="M100.763 59.9154C99.7368 59.9154 98.6947 59.7398 97.6746 59.3683L50.1862 42.0846C45.5001 40.3793 43.0835 35.1974 44.7897 30.5113C46.495 25.8244 51.677 23.4086 56.3631 25.1139L103.851 42.3984C108.538 44.1038 110.954 49.2857 109.248 53.9718C107.914 57.6386 104.451 59.9154 100.763 59.9154Z" fill="#FBDBE1"/>
<path d="M17.9812 74.3141H49.4272V81.9841H17.9812V74.3141Z" fill="#FBDBE1"/>
<path d="M17.9812 55.4925H49.4272V63.1634H17.9812V55.4925Z" fill="#FBDBE1"/>
<path d="M46.3697 96.2701H50.5575C52.2881 96.2701 53.6919 94.8671 53.6919 93.1357V41.8936H43.2354V93.1357C43.2354 94.8671 44.6391 96.2701 46.3697 96.2701Z" fill="#FBDBE1"/>
<path d="M9.80895 96.2701H14.2756C16.0955 96.2701 17.6611 94.9825 18.0122 93.1967L28.763 38.5145H22.4659C20.0492 38.5145 17.9708 40.224 17.5042 42.595L7.50289 93.4665C7.21758 94.9183 8.32875 96.2701 9.80895 96.2701Z" fill="#FBDBE1"/>
<path d="M104.967 96.2701C103.941 96.2701 102.899 96.0945 101.88 95.7231L54.3913 78.4386C49.7052 76.7332 47.2886 71.5513 48.9948 66.8652C50.7001 62.1791 55.8812 59.7633 60.5681 61.4687L108.057 78.7523C112.743 80.4577 115.159 85.6396 113.453 90.3265C112.118 93.9925 108.656 96.2701 104.967 96.2701Z" fill="#FBDBE1"/>
<path d="M30.1103 10.4045H44.5027C49.5773 10.4045 53.6912 14.5184 53.6912 19.593V43.36H25.8144C23.1125 43.36 20.9219 41.1693 20.9219 38.4674V19.593C20.9219 14.5184 25.0357 10.4045 30.1103 10.4045Z" fill="#FBDBE1"/>
<path d="M45.0627 26.8819C45.0627 31.1656 41.5902 34.6381 37.3064 34.6381C33.0235 34.6381 29.551 31.1656 29.551 26.8819C29.551 22.599 33.0235 19.1265 37.3064 19.1265C41.5902 19.1265 45.0627 22.599 45.0627 26.8819Z" fill="#FBDBE1"/>
<path d="M73.9307 52.2875C73.7535 52.2875 73.573 52.2566 73.3966 52.1932C72.587 51.8981 72.1692 51.0024 72.4643 50.1928L78.6412 33.2221C78.9362 32.4125 79.832 31.9947 80.6416 32.2897C81.452 32.584 81.8698 33.4797 81.5748 34.2902L75.3971 51.2601C75.167 51.8933 74.568 52.2875 73.9307 52.2875Z" fill="#FBDBE1"/>
<path d="M78.2608 88.6878C78.0836 88.6878 77.9031 88.6569 77.7267 88.5927C76.9171 88.2984 76.4993 87.4027 76.7944 86.5923L82.9712 69.6224C83.2655 68.8128 84.1612 68.395 84.9716 68.6892C85.7812 68.9843 86.199 69.88 85.904 70.6896L79.7271 87.6603C79.4963 88.2936 78.898 88.6878 78.2608 88.6878Z" fill="#FBDBE1"/>
</g>
<g clip-path="url(#clip1)">
<path d="M39.6248 35.2104C39.6248 30.1984 35.5475 26.1211 30.5354 26.1211C25.5234 26.1211 21.4461 30.1984 21.4461 35.2104C21.4461 40.2225 25.5234 44.2997 30.5354 44.2997C35.5475 44.2997 39.6248 40.2225 39.6248 35.2104ZM24.5675 35.2104C24.5675 31.9192 27.245 29.2424 30.5354 29.2424C33.8259 29.2424 36.5034 31.9192 36.5034 35.2104C36.5034 38.5008 33.8267 41.1784 30.5354 41.1784C27.245 41.1784 24.5675 38.5008 24.5675 35.2104ZM103.955 86.9599C103.384 86.3136 102.398 86.2519 101.752 86.8225C101.105 87.3923 101.044 88.3783 101.614 89.0253C103.363 91.0079 103.889 93.7805 102.985 96.2621C101.953 99.0998 99.2321 101.005 96.2148 101.005C95.3759 101.005 94.5468 100.859 93.751 100.569L72.2901 92.7571L77.2184 79.2174L95.8002 85.9804C96.6098 86.2746 97.5056 85.8568 97.8006 85.0472C98.0949 84.2376 97.6771 83.3419 96.8675 83.0468L77.8004 76.1075L96.2969 67.9578C96.3237 67.9464 96.3481 67.9326 96.3733 67.9196C98.859 66.7946 100.868 64.704 101.837 62.0402C102.78 59.4481 102.658 56.6445 101.493 54.1442C100.327 51.6447 98.2574 49.7483 95.6661 48.8054L72.6184 40.4167C72.6176 40.4159 72.6176 40.4159 72.6168 40.4159H72.616L49.5684 32.0273C49.0563 31.8403 48.5328 31.6964 48.0012 31.5924V28.1345C48.0012 22.356 43.3005 17.6544 37.5219 17.6544H23.5498C19.2449 17.6544 15.4261 20.2352 13.8216 24.2296C13.5005 25.0294 13.8882 25.939 14.6881 26.2601C15.4871 26.5804 16.3967 26.1934 16.7186 25.3936C17.8452 22.5884 20.5268 20.7758 23.5498 20.7758H37.5211C41.5789 20.7758 44.8799 24.0768 44.8799 28.1345V49.645H21.3079C21.3047 49.645 21.3014 49.645 21.2982 49.645H19.379C17.6216 49.645 16.191 48.2144 16.191 46.4562V32.172C16.191 31.3095 15.4928 30.6113 14.6304 30.6113C13.7687 30.6113 13.0697 31.3095 13.0697 32.172V45.7173C11.3806 46.6237 10.158 48.2437 9.78087 50.162L1.60032 91.7728C1.59951 91.7752 1.59951 91.7793 1.5987 91.7817L0.0729728 99.5436C-0.149749 100.675 0.142878 101.835 0.875258 102.725C1.60764 103.616 2.68955 104.126 3.84217 104.126H8.17793C10.684 104.126 12.8535 102.342 13.3363 99.8834L14.8059 92.41C14.8067 92.406 14.8067 92.4035 14.8076 92.4003L15.2286 90.2592H34.7298V99.5241C34.7298 102.062 36.7944 104.126 39.3329 104.126H43.398C45.9357 104.126 48.0012 102.062 48.0012 99.5241V87.2387L92.6829 103.501C93.8225 103.917 95.0101 104.126 96.2148 104.126C100.539 104.126 104.438 101.395 105.919 97.3302C107.213 93.774 106.46 89.8 103.955 86.9599ZM10.2735 99.2819C10.0776 100.281 9.19643 101.005 8.17874 101.005H3.84217C3.54629 101.005 3.36665 100.841 3.28618 100.743C3.20489 100.644 3.07809 100.436 3.13499 100.146L4.41198 93.6521H11.3806L10.2735 99.2819ZM13.8809 80.935C13.8801 80.9374 13.8793 80.9407 13.8793 80.9439L12.417 88.3815C12.4161 88.384 12.4161 88.3856 12.4153 88.388L11.9943 90.5307H5.02568L12.8437 50.7643C12.9656 50.1466 13.2574 49.589 13.6712 49.1419C14.6824 51.2813 16.86 52.7664 19.379 52.7664H19.4189L17.4721 62.6669C17.4721 62.6686 17.4721 62.6694 17.4713 62.671L16.0089 70.1102C16.0081 70.1135 16.0073 70.1167 16.0065 70.1192L13.8809 80.935ZM34.7298 87.1379H15.8423L16.6926 82.8135H34.7298V87.1379ZM34.7298 79.6921H17.3063L18.8206 71.9896H34.7298V79.6921ZM34.7298 68.8682H19.4343L20.2846 64.5438H34.7306V68.8682H34.7298ZM34.7298 61.4225H20.8983L22.6004 52.7656H34.7298V61.4225ZM73.5614 74.5639L53.9903 67.4408L68.6899 60.964L88.261 68.0879L73.5614 74.5639ZM48.0012 66.6686V53.4338L64.4509 59.4212L48.0012 66.6686ZM73.0159 43.8827L94.598 51.7381C96.4066 52.3966 97.8502 53.7191 98.6631 55.4634C99.4767 57.2078 99.5621 59.1644 98.9037 60.973C97.8713 63.8098 95.1507 65.7151 92.1334 65.7151C91.2954 65.7151 90.4654 65.5688 89.6697 65.2786L68.0868 57.4232L73.0159 43.8827ZM48.0012 34.7991C48.1687 34.8471 48.3353 34.8999 48.5003 34.9601L70.0824 42.8155L65.154 56.356L48.0012 50.1124V34.7991ZM44.8799 99.5241C44.8799 100.341 44.2149 101.005 43.398 101.005H39.3329C38.516 101.005 37.8511 100.341 37.8511 99.5241V93.6521H44.8799V99.5241ZM44.8799 90.5307H37.8511V52.7656H44.8799V68.1261C42.8827 69.2998 41.2659 71.1474 40.414 73.4885C39.4703 76.0806 39.5931 78.8842 40.7587 81.3845C41.6553 83.3069 43.0875 84.87 44.8799 85.9202V90.5307ZM47.6533 83.7906C47.4574 83.719 47.2672 83.6385 47.0802 83.5524C47.0656 83.5459 47.051 83.5386 47.0364 83.5321C45.5171 82.8167 44.306 81.6056 43.5882 80.0652C42.7746 78.3209 42.6892 76.3651 43.3476 74.5557C44.7059 70.8231 48.849 68.8918 52.5816 70.25L74.2856 78.1502L69.3573 91.6898L47.6533 83.7906Z" fill="#D62C4B"/>
</g>
<defs>
<clipPath id="clip0">
<rect width="106.542" height="106.542" fill="white" transform="translate(7.45801)"/>
</clipPath>
<clipPath id="clip1">
<rect width="106.542" height="106.542" fill="white" transform="translate(0 7.45801)"/>
</clipPath>
</defs>
</svg>
