<svg width="14" height="14" viewBox="0 0 14 14" fill="none" xmlns="http://www.w3.org/2000/svg">
<g clip-path="url(#clip0)">
<path d="M1.34372 4.89086C1.52082 5.01583 2.05466 5.38699 2.94527 6.00415C3.8359 6.62131 4.51819 7.09651 4.99216 7.42977C5.04423 7.4663 5.15486 7.54571 5.32411 7.66811C5.49338 7.79059 5.63403 7.88957 5.74595 7.96506C5.85795 8.04053 5.99334 8.1252 6.15227 8.21892C6.31114 8.31256 6.46091 8.38299 6.60153 8.42962C6.74218 8.47663 6.87238 8.49992 6.99215 8.49992H7H7.00788C7.12765 8.49992 7.2579 8.4766 7.39855 8.42962C7.53912 8.38299 7.68902 8.31247 7.84776 8.21892C8.00658 8.12509 8.14197 8.04051 8.25397 7.96506C8.36597 7.88957 8.50651 7.79059 8.67584 7.66811C8.84505 7.5456 8.95582 7.4663 9.0079 7.42977C9.48698 7.09651 10.7058 6.25012 12.6641 4.89069C13.0443 4.62518 13.3619 4.30481 13.6171 3.92979C13.8725 3.55493 14 3.16169 14 2.75027C14 2.40648 13.8762 2.11218 13.6288 1.86741C13.3814 1.62259 13.0884 1.50024 12.75 1.50024H1.24995C0.848933 1.50024 0.540324 1.63564 0.324178 1.90643C0.108059 2.17728 0 2.51582 0 2.92204C0 3.25016 0.143277 3.60572 0.429693 3.98851C0.716082 4.37133 1.02086 4.67214 1.34372 4.89086Z" fill="#F6B941"/>
<path d="M13.2186 5.72654C11.5105 6.88268 10.2134 7.7812 9.32814 8.42189C9.03128 8.64055 8.79045 8.81125 8.6055 8.93357C8.42055 9.05596 8.17457 9.18096 7.86722 9.3085C7.55999 9.43624 7.27365 9.49991 7.00798 9.49991H7.00001H6.99216C6.72654 9.49991 6.44004 9.43624 6.1328 9.3085C5.82556 9.18096 5.57943 9.05596 5.39453 8.93357C5.20969 8.81125 4.96878 8.64055 4.67194 8.42189C3.96877 7.9063 2.67453 7.00773 0.789141 5.72654C0.492191 5.52875 0.229171 5.30204 0 5.04688V11.2498C0 11.5938 0.122343 11.8879 0.367166 12.1327C0.611934 12.3776 0.906258 12.5 1.25003 12.5H12.7501C13.0937 12.5 13.388 12.3776 13.6328 12.1327C13.8777 11.8878 14 11.5938 14 11.2498V5.04688C13.776 5.29676 13.5157 5.52347 13.2186 5.72654Z" fill="#F6B941"/>
</g>
<defs>
<clipPath id="clip0">
<rect width="14" height="14" fill="white"/>
</clipPath>
</defs>
</svg>
