<?xml version="1.0" encoding="utf-8"?><svg xmlns="http://www.w3.org/2000/svg" xmlns:xlink="http://www.w3.org/1999/xlink"><symbol viewBox="0 0 18 13" id="arrow" xmlns="http://www.w3.org/2000/svg"><path d="M12.121.19a.636.636 0 00-.907 0 .64.64 0 000 .898l4.6 4.6H.635A.632.632 0 000 6.324c0 .354.281.644.635.644h15.179l-4.6 4.591a.651.651 0 000 .907.636.636 0 00.907 0l5.689-5.688a.625.625 0 000-.898L12.12.19z"/></symbol><symbol viewBox="0 0 16 16" id="geo" xmlns="http://www.w3.org/2000/svg"><path d="M8 0a5.897 5.897 0 00-5.89 5.89c0 .848.173 1.657.515 2.405 1.472 3.223 4.296 6.625 5.127 7.591a.328.328 0 00.496 0c.83-.966 3.654-4.368 5.127-7.591a5.743 5.743 0 00.516-2.404A5.898 5.898 0 008 0zm0 8.95a3.063 3.063 0 01-3.06-3.06A3.063 3.063 0 018 2.83a3.063 3.063 0 013.06 3.06A3.063 3.063 0 018 8.95z"/></symbol><symbol viewBox="0 0 40 40" id="insta" xmlns="http://www.w3.org/2000/svg"><path d="M28.961 0H11.038C4.952 0 0 4.952 0 11.039V28.96C0 35.048 4.952 40 11.038 40h17.923C35.048 40 40 35.048 40 28.96V11.04C40 4.951 35.048 0 28.96 0zm7.49 28.961c0 4.13-3.36 7.49-7.49 7.49H11.038c-4.13 0-7.489-3.36-7.489-7.49V11.04c0-4.13 3.36-7.49 7.49-7.49H28.96c4.13 0 7.49 3.36 7.49 7.49v17.92z"/><path d="M20 9.693C14.317 9.693 9.693 14.317 9.693 20c0 5.683 4.624 10.307 10.307 10.307 5.683 0 10.307-4.624 10.307-10.307 0-5.683-4.624-10.307-10.307-10.307zm0 17.065A6.765 6.765 0 0113.242 20 6.765 6.765 0 0120 13.242 6.765 6.765 0 0126.758 20 6.765 6.765 0 0120 26.758zM30.739 6.684c-.684 0-1.355.277-1.838.762a2.615 2.615 0 00-.764 1.84c0 .685.279 1.356.764 1.841a2.622 2.622 0 001.838.762c.686 0 1.356-.279 1.84-.762a2.622 2.622 0 00.763-1.84c0-.686-.277-1.358-.762-1.841a2.614 2.614 0 00-1.841-.762z"/></symbol><symbol viewBox="0 0 14 14" id="mail" xmlns="http://www.w3.org/2000/svg"><g clip-path="url(#dclip0)"><path d="M1.344 4.89c.177.126.71.497 1.601 1.114.89.617 1.573 1.093 2.047 1.426.052.036.163.116.332.238.17.123.31.222.422.297.112.076.247.16.406.254.16.094.309.164.45.21.14.048.27.07.39.07h.016c.12 0 .25-.022.39-.07a2.35 2.35 0 00.45-.21c.159-.094.294-.178.406-.254.112-.075.253-.174.422-.297.17-.122.28-.202.332-.238l3.656-2.54c.38-.265.698-.585.953-.96S14 3.162 14 2.75a1.2 1.2 0 00-.371-.883 1.207 1.207 0 00-.879-.367H1.25c-.401 0-.71.136-.926.406C.108 2.177 0 2.516 0 2.922c0 .328.143.684.43 1.067.286.382.59.683.914.902z"/><path d="M13.219 5.727a162.383 162.383 0 00-3.89 2.695c-.298.219-.539.39-.724.512a4.46 4.46 0 01-.738.375 2.248 2.248 0 01-.859.19h-.016c-.265 0-.552-.063-.86-.19a4.462 4.462 0 01-.737-.375 18.512 18.512 0 01-.723-.512C3.969 7.906 2.675 7.008.789 5.727A4.139 4.139 0 010 5.047v6.203c0 .344.122.638.367.883s.54.367.883.367h11.5c.344 0 .638-.122.883-.367s.367-.54.367-.883V5.047a4.34 4.34 0 01-.781.68z"/></g><defs><clipPath id="dclip0"><path d="M0 0h14v14H0z"/></clipPath></defs></symbol><symbol viewBox="0 0 15 15" id="phone" xmlns="http://www.w3.org/2000/svg"><g clip-path="url(#eclip0)"><path d="M14.664 11.854l-2.317-2.316c-.461-.46-1.225-.446-1.703.032l-1.167 1.167-.23-.129C8.51 10.2 7.5 9.64 6.44 8.579 5.375 7.514 4.815 6.504 4.405 5.766l-.125-.225.783-.782.385-.386c.478-.478.492-1.242.031-1.703L3.163.353c-.46-.46-1.225-.446-1.703.032l-.653.657.018.018c-.22.279-.402.601-.538.949-.126.33-.204.646-.24.962C-.259 5.507.9 7.824 4.045 10.97c4.347 4.347 7.85 4.019 8.002 4.003.329-.04.644-.118.965-.243a3.76 3.76 0 00.945-.535l.014.012.662-.647c.477-.479.49-1.243.03-1.704z"/></g><defs><clipPath id="eclip0"><path d="M0 0h15v15H0z"/></clipPath></defs></symbol></svg>